<svg xmlns="http://www.w3.org/2000/svg" width="205.8808" height="223.5435" viewBox="0 0 205.8808 223.5435"><title>HP_GREEN</title><g id="Layer_2" data-name="Layer 2"><g id="Layer_1-2" data-name="Layer 1"><path d="M205.8808,48c-.6982,6.17-1.5022,12.33-2.0661,18.5114-.6125,6.7133-.7589,13.4788-1.634,20.1527a9.9385,9.9385,0,0,1-3.5476,5.6679c-6.75,5.4965-14.8437,8.0849-23.2837,9.5285a4.8134,4.8134,0,0,1-3.8731-1.8326c-3.5045-5.2885-6.7027-10.78-10.0586-16.2826,2.4436-1.5763,4.0409-1.075,5.7261,1.1464,2.088,2.7525,4.6357,5.1563,7.3267,8.0825,2.6236-2.9607,5.294-5.2187,5.3543-9.5057A439.1262,439.1262,0,0,0,176.527,21.76c-.6211-4.8809-1.0257-5.152-5.9937-4.1545-10.5941,2.127-10.5544,2.1268-10.4791,13.018.0864,12.4978-.2463,25.0086.211,37.4915.759,20.7206,2.01,41.423,3.0316,62.1343.09,1.8222.012,3.6526.012,5.4793l-1.0555.3556-7.5372-14.7612-.8.177v58.2019l-1.2064.4465c-2.3887-4.3819-4.7775-8.7637-7.5517-13.8525-1.5031,19.6312-2.94,38.3966-4.3769,57.162l-.9455.0852-15.2178-92.1806,1.1117-.8981,4.6739,7.7629,1.8776-1.4681c-.6844-5.8466-1.2256-11.7143-2.0847-17.535-1.5306-10.37-3.36-20.697-4.8319-31.0748-.4456-3.1415-1.934-4.1291-4.7208-3.4489a72.9147,72.9147,0,0,0-10.3707,3.0525c-.9539.39-1.667,2.5491-1.6709,3.8994-.042,14.3717.1,28.7437.1524,43.1158.0348,9.4988-.1621,19.0023.088,28.4946a36.1867,36.1867,0,0,0,1.879,11.7213c1.1567,3.0491,3.9375,5.4791,5.9824,8.196.5481.7283,1.0343,1.5033,1.5489,2.2568-.8563.2765-1.7542.8825-2.5626.78-13.401-1.6946-26.8-3.13-40.3448-1.7767a3.4357,3.4357,0,0,1-2.5793-1.75c-.2613-.5186.52-2.062,1.2288-2.4915,6.4849-3.928,8.7739-10.1154,8.9337-17.1466.38-16.7259.5023-33.4581.6463-50.1884.0236-2.7326-.373-5.4688-.54-7.7229l-24.4951,9.8927c0,11.0487-.0166,22.7786.0089,34.5084.009,4.1235.4,8.2664.1127,12.365-.3255,4.6353,1.7621,7.5732,5.4656,9.81a7.549,7.549,0,0,1,2.4112,2.2968c-15.4786-2.54-30.9415-1.8278-46.3417-2.3289-.7075-.023-1.3956-.6439-2.0927-.9863.4376-.64.734-1.6208,1.3339-1.87,8.5528-3.5466,11.0805-10.3863,10.9362-19.0089-.1695-10.1195.0836-20.2461-.0965-30.3651a5.5469,5.5469,0,0,0-2.39-3.8915,59.8393,59.8393,0,0,0-9.7039-4.8132C8.5634,107.0469,4.0952,99.0937,0,89.366l18.896-4.2439.6246,1.53L6.8531,94.2056c6.7578,6.2221,14.3867,9.9741,23.1542,13.5681,0-3.2724.0635-5.72-.01-8.1628-.6417-21.3594-1.3286-42.7175-1.9468-64.0776-.1052-3.6323-2.0622-6.033-4.7808-8.02-1.0688-.7812-2.2278-1.4389-3.3458-2.1528l.13-1.1131h41.29c-.1513.3534-.281,1.3875-.8669,1.9-2.8858,2.5261-3.69,5.6458-3.6043,9.3889.4975,21.7353.85,43.4739,1.2624,65.2112.0116.613.151,1.2237.367,2.88,4.9172-2.6292,9.4541-5.0547,13.99-7.4828.1091-.0584.1929-.17.3052-.2158,8.92-3.6386,11.0968-10.2781,10.3789-19.5645C81.9147,60.0614,81.86,43.6664,81.2024,27.3137c-.1537-3.827-.0693-7.918-4.496-9.8962-.2778-.1241-.438-.5876-.574-.925a4.0836,4.0836,0,0,1-.0154-1.0843h38.5443c-.7893,1.2152-1.6814,2.464-2.4451,3.787A28.156,28.156,0,0,0,108.21,33.8023c.1278,14.7431.0715,29.4879.1073,44.2319a20.7034,20.7034,0,0,0,.3343,2.4737c8.9-2.0829,17.7781-4.8209,25.7375,2.7649l.7887-.9109c-1.0632-8.5076-2.0883-17.02-3.1977-25.5216Q128.4912,30.1,124.948,3.367A29.5568,29.5568,0,0,1,124.8808,0h11.25l24.1627,1.1079V12.546c5.5893-1.9589,10.6444-3.6626,15.6449-5.514,2.2289-.8252,4.0218-.745,5.5987,1.2534Q193.6757,23.669,205.8808,39Z" fill="#87aa80"/></g></g></svg>