<svg xmlns="http://www.w3.org/2000/svg" width="93.6964" height="169.2813" viewBox="0 0 93.6964 169.2813"><title>Legend</title><g id="Layer_2" data-name="Layer 2"><g id="Layer_29" data-name="Layer 29"><rect width="93.6964" height="169.2813" fill="#fff"/><path d="M27.5281,50.9227l-.8007-1.3789c-.3252-.5278-.5235-.8726-.7181-1.2324h-.02c-.1743.3633-.3559.6967-.6723,1.2368l-.7513,1.3745h-.93l1.9113-3.1621L23.7093,44.68h.9326l.83,1.4663c.23.4009.4033.7163.5771,1.0562H26.07c.1778-.37.3409-.6582.5691-1.0552l.8474-1.4673h.9344l-1.9046,3.0425,1.95,3.2Z" fill="#414042"/><path d="M32.6754,50.9227l-.8008-1.3789c-.3255-.5278-.5235-.8726-.718-1.2324h-.02c-.1743.3633-.3559.6967-.6723,1.2368l-.7512,1.3745h-.93l1.9113-3.1621L28.8565,44.68h.9326l.83,1.4663c.23.4009.4033.7163.5772,1.0562h.02c.1777-.37.3408-.6582.5691-1.0552l.8474-1.4673h.9343l-1.9045,3.0425,1.95,3.2Z" fill="#414042"/><path d="M27.5281,62.4945l-.8007-1.3789c-.3252-.5279-.5235-.8726-.7181-1.232h-.02c-.1743.3628-.3559.6963-.6723,1.2364l-.7513,1.3745h-.93l1.9113-3.1621-1.8381-3.0806h.9326l.83,1.4663c.23.4009.4033.7163.5771,1.0562H26.07c.1778-.37.3409-.6582.5691-1.0547l.8474-1.4678h.9344l-1.9046,3.0425,1.95,3.2Z" fill="#414042"/><path d="M32.6754,62.4945l-.8008-1.3789c-.3255-.5279-.5235-.8726-.718-1.232h-.02c-.1743.3628-.3559.6963-.6723,1.2364l-.7512,1.3745h-.93l1.9113-3.1621-1.8381-3.0806h.9326l.83,1.4663c.23.4009.4033.7163.5772,1.0562h.02c.1777-.37.3408-.6582.5691-1.0547l.8474-1.4678h.9343l-1.9045,3.0425,1.95,3.2Z" fill="#414042"/><path d="M37.8223,62.4945l-.8008-1.3789c-.3254-.5279-.5234-.8726-.718-1.232h-.02c-.1743.3628-.3559.6963-.6724,1.2364L34.86,62.4945h-.93l1.9114-3.1621-1.8381-3.0806h.9326l.83,1.4663c.23.4009.4033.7163.5771,1.0562h.02c.1778-.37.3409-.6582.5691-1.0547l.8474-1.4678h.9344L36.81,59.2943l1.95,3.2Z" fill="#414042"/><path d="M14.2838,10.6234c-.04-.857-.084-1.8867-.0794-2.79h-.0271c-.219.8134-.4963,1.708-.7825,2.5478l-.9741,2.87h-.9321l-.8794-2.831c-.26-.8516-.4971-1.7525-.6711-2.5869H9.9163c-.0283.8681-.0681,1.9282-.1189,2.83L9.65,13.3294H8.52l.4414-6.6333H10.554L11.418,9.36c.2383.7837.4512,1.5708.61,2.31h.0291c.1782-.7247.406-1.5347.6628-2.3155l.92-2.6587h1.572l.3809,6.6333H14.4122Z" fill="#414042"/><path d="M19.5091,13.3294l-.0828-.5337H19.397a1.751,1.751,0,0,1-1.4118.6421,1.42,1.42,0,0,1-1.5108-1.4253c0-1.2089,1.0774-1.8212,2.8421-1.8139v-.08c0-.3145-.1245-.8384-.9729-.835a2.5561,2.5561,0,0,0-1.2881.3574l-.24-.7861A3.4631,3.4631,0,0,1,18.5521,8.43a1.7885,1.7885,0,0,1,1.9756,2.02v1.7251a7.1981,7.1981,0,0,0,.0744,1.1543Zm-.16-2.3466c-.8547-.0113-1.6726.1689-1.6726.8984a.64.64,0,0,0,.6907.69.9866.9866,0,0,0,.9482-.6631.9206.9206,0,0,0,.0337-.2636Z" fill="#414042"/><path d="M26.1885,8.5379c-.0232.3228-.0407.72-.0407,1.376v2.7183a2.7578,2.7578,0,0,1-.7088,2.1718,2.7569,2.7569,0,0,1-1.854.5826,3.4644,3.4644,0,0,1-1.6675-.3794l.261-.9243a2.8292,2.8292,0,0,0,1.398.37,1.2752,1.2752,0,0,0,1.3772-1.4483V12.596h-.02a1.6124,1.6124,0,0,1-1.3957.7027,2.1245,2.1245,0,0,1-2.0335-2.3374A2.2923,2.2923,0,0,1,23.6724,8.43a1.5092,1.5092,0,0,1,1.3938.7456h.02l.0439-.6377ZM24.9368,10.46a1.2154,1.2154,0,0,0-.0381-.3262,1.0083,1.0083,0,0,0-.99-.7793c-.6714,0-1.1768.5879-1.1768,1.5664,0,.8135.4114,1.4746,1.1714,1.4746a1.0211,1.0211,0,0,0,.9792-.7338,1.5554,1.5554,0,0,0,.0542-.4253Z" fill="#414042"/><path d="M28.6907,7.1971A.643.643,0,0,1,28,7.85a.6547.6547,0,1,1,.6906-.6533Zm-1.2834,6.1323V8.5379H28.62v4.7915Z" fill="#414042"/><path d="M33.4407,13.1854a3.43,3.43,0,0,1-1.3523.2476,2.3059,2.3059,0,0,1-2.47-2.4507,2.47,2.47,0,0,1,2.6656-2.55,3.142,3.142,0,0,1,1.17.2187l-.2149.9111a2.0411,2.0411,0,0,0-.9165-.1875,1.4309,1.4309,0,0,0-1.4673,1.5538,1.4276,1.4276,0,0,0,1.4712,1.5463,2.3671,2.3671,0,0,0,.9515-.1894Z" fill="#414042"/><path d="M37.0565,13.3294l-.0828-.5337h-.0293a1.7513,1.7513,0,0,1-1.4119.6421,1.42,1.42,0,0,1-1.5107-1.4253c0-1.2089,1.0774-1.8212,2.842-1.8139v-.08c0-.3145-.1245-.8384-.9729-.835a2.5567,2.5567,0,0,0-1.2881.3574l-.24-.7861A3.4627,3.4627,0,0,1,36.0994,8.43a1.7885,1.7885,0,0,1,1.9756,2.02v1.7251a7.1852,7.1852,0,0,0,.0745,1.1543Zm-.16-2.3466c-.8548-.0113-1.6726.1689-1.6726.8984a.64.64,0,0,0,.6906.69.9867.9867,0,0,0,.9483-.6631.9241.9241,0,0,0,.0337-.2636Z" fill="#414042"/><path d="M39.358,6.3416H40.57v6.9878H39.358Z" fill="#414042"/><path d="M48.7254,13.1331a4.29,4.29,0,0,1-1.7214.3,3.134,3.134,0,0,1-3.3863-3.3418A3.3407,3.3407,0,0,1,47.169,6.5926a3.7171,3.7171,0,0,1,1.6065.293l-.2632.9663a3.15,3.15,0,0,0-1.2937-.26,2.2077,2.2077,0,0,0-2.3252,2.439,2.1694,2.1694,0,0,0,2.31,2.3882,3.5283,3.5283,0,0,0,1.3221-.2407Z" fill="#414042"/><path d="M49.6749,10.0785c0-.6416-.0135-1.1133-.04-1.5406h1.0493l.045.9107h.0339A1.4278,1.4278,0,0,1,52.075,8.43a1.14,1.14,0,0,1,.2844.0264V9.597a1.6591,1.6591,0,0,0-.3552-.0342,1.0673,1.0673,0,0,0-1.0859.9165,2,2,0,0,0-.031.3653v2.4848H49.6749Z" fill="#414042"/><path d="M53.9417,11.2689a1.3068,1.3068,0,0,0,1.48,1.248,3.6438,3.6438,0,0,0,1.3225-.2221l.1792.834a4.3384,4.3384,0,0,1-1.6743.3042,2.27,2.27,0,0,1-2.4668-2.43A2.37,2.37,0,0,1,55.1251,8.43,2.08,2.08,0,0,1,57.19,10.76a2.5244,2.5244,0,0,1-.043.5088Zm2.1069-.8442a1.0313,1.0313,0,0,0-.9992-1.168,1.1862,1.1862,0,0,0-1.11,1.168Z" fill="#414042"/><path d="M60.8594,13.3294l-.0827-.5337h-.0293a1.7514,1.7514,0,0,1-1.4119.6421,1.42,1.42,0,0,1-1.5107-1.4253c0-1.2089,1.0774-1.8212,2.842-1.8139v-.08c0-.3145-.1245-.8384-.9726-.835a2.557,2.557,0,0,0-1.2884.3574l-.24-.7861A3.4638,3.4638,0,0,1,59.9027,8.43a1.7884,1.7884,0,0,1,1.9753,2.02v1.7251a7.1852,7.1852,0,0,0,.0745,1.1543Zm-.16-2.3466c-.8547-.0113-1.6723.1689-1.6723.8984a.64.64,0,0,0,.69.69.9866.9866,0,0,0,.9482-.6631.9206.9206,0,0,0,.0337-.2636Z" fill="#414042"/><path d="M64.4879,7.1659v1.372h1.1528v.9029H64.4879V11.555c0,.5864.1562.8843.62.8843a1.8265,1.8265,0,0,0,.4707-.0527l.0244.9218a2.7105,2.7105,0,0,1-.8816.1246,1.4036,1.4036,0,0,1-1.0415-.3951,1.9049,1.9049,0,0,1-.3787-1.3437V9.4408H62.617V8.5379h.6838V7.453Z" fill="#414042"/><path d="M70.8409,11.8939c0,.5693.0176,1.0459.0393,1.4355H69.8216l-.0586-.7241h-.0281a1.7377,1.7377,0,0,1-1.5346.8325c-.8736,0-1.6683-.5249-1.6683-2.09v-2.81h1.2125v2.6075c0,.7959.2514,1.3056.8935,1.3056a1.0052,1.0052,0,0,0,.9248-.6474,1.0393,1.0393,0,0,0,.0657-.3746V8.5379h1.2124Z" fill="#414042"/><path d="M72.15,10.0785c0-.6416-.0135-1.1133-.04-1.5406H73.16l.045.9107h.0339A1.4278,1.4278,0,0,1,74.55,8.43a1.14,1.14,0,0,1,.2844.0264V9.597a1.6591,1.6591,0,0,0-.3552-.0342,1.0673,1.0673,0,0,0-1.0859.9165,2,2,0,0,0-.031.3653v2.4848H72.15Z" fill="#414042"/><path d="M76.4168,11.2689a1.3068,1.3068,0,0,0,1.48,1.248,3.6438,3.6438,0,0,0,1.3225-.2221l.1792.834a4.3384,4.3384,0,0,1-1.6743.3042,2.27,2.27,0,0,1-2.4668-2.43A2.37,2.37,0,0,1,77.6,8.43a2.08,2.08,0,0,1,2.0644,2.33,2.5244,2.5244,0,0,1-.043.5088Zm2.1069-.8442a1.0313,1.0313,0,0,0-.9992-1.168,1.1862,1.1862,0,0,0-1.11,1.168Z" fill="#414042"/><path d="M80.5809,12.2152a2.6584,2.6584,0,0,0,1.2226.35c.533,0,.771-.2236.771-.5381,0-.3242-.1975-.4888-.7866-.6982-.938-.3213-1.3286-.8316-1.3245-1.3995,0-.8422.7-1.499,1.8184-1.499a2.763,2.763,0,0,1,1.2708.2862l-.24.85a2.1745,2.1745,0,0,0-1.0134-.2754c-.4309,0-.6709.2129-.6709.5073,0,.3042.231.45.8364.6714.8718.3081,1.2742.7529,1.2786,1.459,0,.874-.6807,1.5044-1.9461,1.5044a3.1034,3.1034,0,0,1-1.46-.336Z" fill="#414042"/><path d="M27.5281,39.3509l-.8007-1.3789c-.3252-.5278-.5235-.8725-.7181-1.2319h-.02c-.1743.3628-.3559.6963-.6723,1.2363l-.7513,1.3745h-.93l1.9113-3.1621-1.8381-3.0806h.9326l.83,1.4664c.23.4008.4033.7163.5771,1.0561H26.07c.1778-.37.3409-.6582.5691-1.0547l.8474-1.4678h.9344l-1.9046,3.0425,1.95,3.2Z" fill="#414042"/><path d="M16.4309,33.0554a7.8267,7.8267,0,0,0-1.6348-.4573,2.6649,2.6649,0,0,1,1.2347.1372,2.6528,2.6528,0,0,0,2.1492-.4,1.3366,1.3366,0,0,0,.5716-1.0517,2.5972,2.5972,0,0,1-2.7437.8231,7.503,7.503,0,0,0-1.8748-.16,2.8762,2.8762,0,0,0-.2287-1.4862s-.7316,1.7834-1.9777,2.0349a3.1619,3.1619,0,0,1-.9146,1.0517,3.33,3.33,0,0,1-1.0517.5259.3319.3319,0,0,0-.1829.503,1.7563,1.7563,0,0,0,.926.7317,1.27,1.27,0,0,1-.1144-.5945.9478.9478,0,0,0,.766.2515.603.603,0,0,1-.2858-.4687,1.0826,1.0826,0,0,0,.7545.2172.4116.4116,0,0,1-.2858-.4458,2.6607,2.6607,0,0,1,1.0975.1028,2.1805,2.1805,0,0,0-.3658.183,3.2034,3.2034,0,0,0-.6174.4572.7531.7531,0,0,1-.24.1258.6119.6119,0,0,1-.4-.0457.599.599,0,0,0,.2172.2515c.1258.0571-.1486.1371-.3658.0914a2.0532,2.0532,0,0,1-.4458-.1372.923.923,0,0,0,.5373.6174,1.4252,1.4252,0,0,0,.1829.0457.592.592,0,0,0,.5944-.343c0-.0114.0115-.0228.0229-.0343a1.4215,1.4215,0,0,1,.3658-.4115,2.491,2.491,0,0,1,1.4519-.3773.99.99,0,0,1,.5144.9717,1.6041,1.6041,0,0,1-.2629.6059c-.343.5488-1.1546.686-1.7377.8574a13.4963,13.4963,0,0,1-1.4976.343,4.4213,4.4213,0,0,0-1.2.3087,2.915,2.915,0,0,0-1.2,1.1546,3.37,3.37,0,0,0-.2743.6631,1.651,1.651,0,0,1-.0572.2743c1.28-.8,1.9549-.5716,4.0584-.4915A3.02,3.02,0,0,0,14.75,38.3141a4.1074,4.1074,0,0,1-.8345,1.4176c1.3489-.2744,2.0577-2.6408,2.0577-2.6408a3.7236,3.7236,0,0,1-.5144,1.9434c2.4236-2.4464.6059-4.4242.6059-4.4242.7316.2629,1.2346,1.4061,1.2346,1.4061a2.4348,2.4348,0,0,0-.1829-1.1774,1.6251,1.6251,0,0,0-.3658-.5145,2.0955,2.0955,0,0,0-.56-.3772,3.8543,3.8543,0,0,1-.4115-.24c-.0686-.0457-.1372-.0915-.1944-.1372a.8522.8522,0,0,1-.1943-.16.4748.4748,0,0,1,.1829.0343c.0686.0229.1258.0343.1829.0572.1258.0457.24.0915.3658.1258.1372.0457.2744.08.4116.1143,1.4519.3658,1.9777-.4573,1.9777-.4573C18.1457,33.5584,17.1283,33.364,16.4309,33.0554Zm-3.8183-.08L12.59,33.09a.2859.2859,0,0,1-.1486.1943l-.3086.1486a.083.083,0,0,1-.0915-.1372l.423-.4A.0872.0872,0,0,1,12.6126,32.9753Z" fill="#0039ed" stroke="#777" stroke-miterlimit="10" stroke-width="0.2"/><path d="M16.4309,44.6272a7.8336,7.8336,0,0,0-1.6348-.4573,2.6662,2.6662,0,0,1,1.2347.1372,2.6527,2.6527,0,0,0,2.1492-.4,1.3366,1.3366,0,0,0,.5716-1.0517,2.5974,2.5974,0,0,1-2.7437.8231,7.5087,7.5087,0,0,0-1.8748-.16,2.8758,2.8758,0,0,0-.2287-1.4861s-.7316,1.7834-1.9777,2.0349a3.1619,3.1619,0,0,1-.9146,1.0517,3.3319,3.3319,0,0,1-1.0517.5259.3319.3319,0,0,0-.1829.503,1.7561,1.7561,0,0,0,.926.7316,1.27,1.27,0,0,1-.1144-.5944.9482.9482,0,0,0,.766.2515.603.603,0,0,1-.2858-.4687,1.0826,1.0826,0,0,0,.7545.2172.4117.4117,0,0,1-.2858-.4459,2.6617,2.6617,0,0,1,1.0975.1029,2.18,2.18,0,0,0-.3658.1829,3.2035,3.2035,0,0,0-.6174.4573.7531.7531,0,0,1-.24.1258.611.611,0,0,1-.4-.0458.5984.5984,0,0,0,.2172.2515c.1258.0572-.1486.1372-.3658.0915a2.0532,2.0532,0,0,1-.4458-.1372.9228.9228,0,0,0,.5373.6173,1.4268,1.4268,0,0,0,.1829.0458.5923.5923,0,0,0,.5944-.343c0-.0114.0115-.0229.0229-.0343a1.4225,1.4225,0,0,1,.3658-.4116,2.4918,2.4918,0,0,1,1.4519-.3772.99.99,0,0,1,.5144.9717,1.6041,1.6041,0,0,1-.2629.6059c-.343.5487-1.1546.6859-1.7377.8574a13.5189,13.5189,0,0,1-1.4976.343,4.4211,4.4211,0,0,0-1.2.3086,2.9152,2.9152,0,0,0-1.2,1.1547,3.3693,3.3693,0,0,0-.2743.663,1.6523,1.6523,0,0,1-.0572.2744c1.28-.8,1.9549-.5716,4.0584-.4916A3.0193,3.0193,0,0,0,14.75,49.886a4.1067,4.1067,0,0,1-.8345,1.4175c1.3489-.2743,2.0577-2.6408,2.0577-2.6408a3.7237,3.7237,0,0,1-.5144,1.9435c2.4236-2.4465.6059-4.4242.6059-4.4242.7316.2629,1.2346,1.4061,1.2346,1.4061a2.4352,2.4352,0,0,0-.1829-1.1775,1.6258,1.6258,0,0,0-.3658-.5144,2.0958,2.0958,0,0,0-.56-.3773,3.853,3.853,0,0,1-.4115-.24c-.0686-.0458-.1372-.0915-.1944-.1372a.8548.8548,0,0,1-.1943-.16.4748.4748,0,0,1,.1829.0343c.0686.0229.1258.0343.1829.0572.1258.0457.24.0914.3658.1257.1372.0458.2744.08.4116.1143,1.4519.3659,1.9777-.4572,1.9777-.4572C18.1457,45.13,17.1283,44.9359,16.4309,44.6272Zm-3.8183-.08-.0229.1143a.2861.2861,0,0,1-.1486.1944l-.3086.1486a.083.083,0,0,1-.0915-.1372l.423-.4A.0872.0872,0,0,1,12.6126,44.5472Z" fill="#38a800" stroke="#777" stroke-miterlimit="10" stroke-width="0.2"/><path d="M16.4309,56.1991a7.8267,7.8267,0,0,0-1.6348-.4573,2.6662,2.6662,0,0,1,1.2347.1372,2.6527,2.6527,0,0,0,2.1492-.4,1.3368,1.3368,0,0,0,.5716-1.0518,2.5972,2.5972,0,0,1-2.7437.8231,7.5126,7.5126,0,0,0-1.8748-.16,2.8762,2.8762,0,0,0-.2287-1.4862s-.7316,1.7834-1.9777,2.0349a3.163,3.163,0,0,1-.9146,1.0518,3.3292,3.3292,0,0,1-1.0517.5258.332.332,0,0,0-.1829.5031,1.7566,1.7566,0,0,0,.926.7316,1.27,1.27,0,0,1-.1144-.5945.9478.9478,0,0,0,.766.2515.603.603,0,0,1-.2858-.4687,1.0826,1.0826,0,0,0,.7545.2172.4116.4116,0,0,1-.2858-.4458,2.6617,2.6617,0,0,1,1.0975.1029,2.18,2.18,0,0,0-.3658.1829,3.2035,3.2035,0,0,0-.6174.4573.7533.7533,0,0,1-.24.1257.6112.6112,0,0,1-.4-.0457.599.599,0,0,0,.2172.2515c.1258.0572-.1486.1372-.3658.0915a2.0532,2.0532,0,0,1-.4458-.1372.923.923,0,0,0,.5373.6173,1.4087,1.4087,0,0,0,.1829.0457.592.592,0,0,0,.5944-.3429c0-.0115.0115-.0229.0229-.0343a1.4225,1.4225,0,0,1,.3658-.4116,2.491,2.491,0,0,1,1.4519-.3772.99.99,0,0,1,.5144.9717,1.6048,1.6048,0,0,1-.2629.6059c-.343.5487-1.1546.6859-1.7377.8574a13.4959,13.4959,0,0,1-1.4976.3429,4.4213,4.4213,0,0,0-1.2.3087,2.915,2.915,0,0,0-1.2,1.1546,3.3727,3.3727,0,0,0-.2743.6631,1.6544,1.6544,0,0,1-.0572.2744c1.28-.8,1.9549-.5716,4.0584-.4916A3.02,3.02,0,0,0,14.75,61.4578a4.1064,4.1064,0,0,1-.8345,1.4176c1.3489-.2744,2.0577-2.6408,2.0577-2.6408a3.7232,3.7232,0,0,1-.5144,1.9434c2.4236-2.4464.6059-4.4242.6059-4.4242C16.7967,58.0168,17.3,59.16,17.3,59.16a2.4352,2.4352,0,0,0-.1829-1.1775,1.6262,1.6262,0,0,0-.3658-.5145,2.0978,2.0978,0,0,0-.56-.3772,3.8374,3.8374,0,0,1-.4115-.24c-.0686-.0457-.1372-.0914-.1944-.1372a.8517.8517,0,0,1-.1943-.16.4729.4729,0,0,1,.1829.0343c.0686.0228.1258.0343.1829.0571.1258.0458.24.0915.3658.1258.1372.0457.2744.08.4116.1143,1.4519.3658,1.9777-.4573,1.9777-.4573C18.1457,56.7021,17.1283,56.5078,16.4309,56.1991Zm-3.8183-.08-.0229.1143a.2859.2859,0,0,1-.1486.1943l-.3086.1486a.0829.0829,0,0,1-.0915-.1371l.423-.4A.0872.0872,0,0,1,12.6126,56.1191Z" fill="#ff0" stroke="#777" stroke-miterlimit="10" stroke-width="0.2"/><path d="M27.5281,75.9227l-.8007-1.3789c-.3252-.5278-.5235-.8726-.7181-1.2324h-.02c-.1743.3633-.3559.6967-.6723,1.2368l-.7513,1.3745h-.93l1.9113-3.1621L23.7093,69.68h.9326l.83,1.4663c.23.4009.4033.7163.5771,1.0562H26.07c.1778-.37.3409-.6582.5691-1.0552l.8474-1.4673h.9344l-1.9046,3.0425,1.95,3.2Z" fill="#414042"/><path d="M32.6754,75.9227l-.8008-1.3789c-.3255-.5278-.5235-.8726-.718-1.2324h-.02c-.1743.3633-.3559.6967-.6723,1.2368l-.7512,1.3745h-.93l1.9113-3.1621L28.8565,69.68h.9326l.83,1.4663c.23.4009.4033.7163.5772,1.0562h.02c.1777-.37.3408-.6582.5691-1.0552l.8474-1.4673h.9343l-1.9045,3.0425,1.95,3.2Z" fill="#414042"/><path d="M37.8223,75.9227l-.8008-1.3789c-.3254-.5278-.5234-.8726-.718-1.2324h-.02c-.1743.3633-.3559.6967-.6724,1.2368L34.86,75.9227h-.93l1.9114-3.1621L34.0035,69.68h.9326l.83,1.4663c.23.4009.4033.7163.5771,1.0562h.02c.1778-.37.3409-.6582.5691-1.0552L37.78,69.68h.9344L36.81,72.7225l1.95,3.2Z" fill="#414042"/><path d="M42.97,75.9227l-.8007-1.3789c-.3252-.5278-.5235-.8726-.7181-1.2324h-.02c-.1743.3633-.3559.6967-.6723,1.2368l-.7513,1.3745h-.93l1.9113-3.1621L39.1507,69.68h.9326l.83,1.4663c.23.4009.4033.7163.5771,1.0562h.0206c.1777-.37.3408-.6582.569-1.0552l.8475-1.4673h.9343l-1.9046,3.0425,1.95,3.2Z" fill="#414042"/><path d="M27.5281,87.4945l-.8007-1.3789c-.3252-.5279-.5235-.8726-.7181-1.232h-.02c-.1743.3628-.3559.6963-.6723,1.2364l-.7513,1.3745h-.93l1.9113-3.1621-1.8381-3.0806h.9326l.83,1.4663c.23.4009.4033.7163.5771,1.0562H26.07c.1778-.37.3409-.6582.5691-1.0547l.8474-1.4678h.9344l-1.9046,3.0425,1.95,3.2Z" fill="#414042"/><path d="M32.6754,87.4945l-.8008-1.3789c-.3255-.5279-.5235-.8726-.718-1.232h-.02c-.1743.3628-.3559.6963-.6723,1.2364l-.7512,1.3745h-.93l1.9113-3.1621-1.8381-3.0806h.9326l.83,1.4663c.23.4009.4033.7163.5772,1.0562h.02c.1777-.37.3408-.6582.5691-1.0547l.8474-1.4678h.9343l-1.9045,3.0425,1.95,3.2Z" fill="#414042"/><path d="M37.8223,87.4945l-.8008-1.3789c-.3254-.5279-.5234-.8726-.718-1.232h-.02c-.1743.3628-.3559.6963-.6724,1.2364L34.86,87.4945h-.93l1.9114-3.1621-1.8381-3.0806h.9326l.83,1.4663c.23.4009.4033.7163.5771,1.0562h.02c.1778-.37.3409-.6582.5691-1.0547l.8474-1.4678h.9344L36.81,84.2943l1.95,3.2Z" fill="#414042"/><path d="M42.97,87.4945l-.8007-1.3789c-.3252-.5279-.5235-.8726-.7181-1.232h-.02c-.1743.3628-.3559.6963-.6723,1.2364l-.7513,1.3745h-.93l1.9113-3.1621-1.8381-3.0806h.9326l.83,1.4663c.23.4009.4033.7163.5771,1.0562h.0206c.1777-.37.3408-.6582.569-1.0547l.8475-1.4678h.9343l-1.9046,3.0425,1.95,3.2Z" fill="#414042"/><path d="M48.1168,87.4945l-.8008-1.3789c-.3255-.5279-.5235-.8726-.718-1.232h-.02c-.1743.3628-.3559.6963-.6723,1.2364l-.7512,1.3745h-.93l1.9114-3.1621-1.8382-3.0806h.9326l.83,1.4663c.23.4009.4033.7163.5772,1.0562h.02c.1777-.37.3408-.6582.5691-1.0547l.8474-1.4678h.9343l-1.9045,3.0425,1.95,3.2Z" fill="#414042"/><path d="M16.4309,69.6272a7.8336,7.8336,0,0,0-1.6348-.4573,2.6662,2.6662,0,0,1,1.2347.1372,2.6527,2.6527,0,0,0,2.1492-.4,1.3366,1.3366,0,0,0,.5716-1.0517,2.5974,2.5974,0,0,1-2.7437.8231,7.5087,7.5087,0,0,0-1.8748-.16,2.8758,2.8758,0,0,0-.2287-1.4861s-.7316,1.7834-1.9777,2.0349a3.1619,3.1619,0,0,1-.9146,1.0517,3.3319,3.3319,0,0,1-1.0517.5259.3319.3319,0,0,0-.1829.503,1.7561,1.7561,0,0,0,.926.7316,1.27,1.27,0,0,1-.1144-.5944.9482.9482,0,0,0,.766.2515.603.603,0,0,1-.2858-.4687,1.0826,1.0826,0,0,0,.7545.2172.4117.4117,0,0,1-.2858-.4459,2.6617,2.6617,0,0,1,1.0975.1029,2.18,2.18,0,0,0-.3658.1829,3.2035,3.2035,0,0,0-.6174.4573.7531.7531,0,0,1-.24.1258.611.611,0,0,1-.4-.0458.5984.5984,0,0,0,.2172.2515c.1258.0572-.1486.1372-.3658.0915a2.0532,2.0532,0,0,1-.4458-.1372.9228.9228,0,0,0,.5373.6173,1.4268,1.4268,0,0,0,.1829.0458.5923.5923,0,0,0,.5944-.343c0-.0114.0115-.0229.0229-.0343a1.4225,1.4225,0,0,1,.3658-.4116,2.4918,2.4918,0,0,1,1.4519-.3772.99.99,0,0,1,.5144.9717,1.6041,1.6041,0,0,1-.2629.6059c-.343.5487-1.1546.6859-1.7377.8574a13.5189,13.5189,0,0,1-1.4976.343,4.4211,4.4211,0,0,0-1.2.3086,2.9152,2.9152,0,0,0-1.2,1.1547,3.3693,3.3693,0,0,0-.2743.663,1.6523,1.6523,0,0,1-.0572.2744c1.28-.8,1.9549-.5716,4.0584-.4916A3.0193,3.0193,0,0,0,14.75,74.886a4.1067,4.1067,0,0,1-.8345,1.4175c1.3489-.2743,2.0577-2.6408,2.0577-2.6408a3.7237,3.7237,0,0,1-.5144,1.9435c2.4236-2.4465.6059-4.4242.6059-4.4242.7316.2629,1.2346,1.4061,1.2346,1.4061a2.4352,2.4352,0,0,0-.1829-1.1775,1.6258,1.6258,0,0,0-.3658-.5144,2.0958,2.0958,0,0,0-.56-.3773,3.853,3.853,0,0,1-.4115-.24c-.0686-.0458-.1372-.0915-.1944-.1372a.8548.8548,0,0,1-.1943-.16.4748.4748,0,0,1,.1829.0343c.0686.0229.1258.0343.1829.0572.1258.0457.24.0914.3658.1257.1372.0458.2744.08.4116.1143,1.4519.3659,1.9777-.4572,1.9777-.4572C18.1457,70.13,17.1283,69.9359,16.4309,69.6272Zm-3.8183-.08-.0229.1143a.2861.2861,0,0,1-.1486.1944l-.3086.1486a.083.083,0,0,1-.0915-.1372l.423-.4A.0872.0872,0,0,1,12.6126,69.5472Z" fill="#ffb600" stroke="#777" stroke-miterlimit="10" stroke-width="0.2"/><path d="M16.4309,81.1991a7.8267,7.8267,0,0,0-1.6348-.4573,2.6662,2.6662,0,0,1,1.2347.1372,2.6527,2.6527,0,0,0,2.1492-.4,1.3368,1.3368,0,0,0,.5716-1.0518,2.5972,2.5972,0,0,1-2.7437.8231,7.5126,7.5126,0,0,0-1.8748-.16,2.8762,2.8762,0,0,0-.2287-1.4862s-.7316,1.7834-1.9777,2.0349a3.163,3.163,0,0,1-.9146,1.0518,3.3292,3.3292,0,0,1-1.0517.5258.332.332,0,0,0-.1829.5031,1.7566,1.7566,0,0,0,.926.7316,1.27,1.27,0,0,1-.1144-.5945.9478.9478,0,0,0,.766.2515.603.603,0,0,1-.2858-.4687,1.0826,1.0826,0,0,0,.7545.2172.4116.4116,0,0,1-.2858-.4458,2.6617,2.6617,0,0,1,1.0975.1029,2.18,2.18,0,0,0-.3658.1829,3.2035,3.2035,0,0,0-.6174.4573.7533.7533,0,0,1-.24.1257.6112.6112,0,0,1-.4-.0457.599.599,0,0,0,.2172.2515c.1258.0572-.1486.1372-.3658.0915a2.0532,2.0532,0,0,1-.4458-.1372.923.923,0,0,0,.5373.6173,1.4087,1.4087,0,0,0,.1829.0457.592.592,0,0,0,.5944-.3429c0-.0115.0115-.0229.0229-.0343a1.4225,1.4225,0,0,1,.3658-.4116,2.491,2.491,0,0,1,1.4519-.3772.99.99,0,0,1,.5144.9717,1.6048,1.6048,0,0,1-.2629.6059c-.343.5487-1.1546.6859-1.7377.8574a13.4959,13.4959,0,0,1-1.4976.3429,4.4213,4.4213,0,0,0-1.2.3087,2.915,2.915,0,0,0-1.2,1.1546,3.3727,3.3727,0,0,0-.2743.6631,1.6544,1.6544,0,0,1-.0572.2744c1.28-.8,1.9549-.5716,4.0584-.4916A3.02,3.02,0,0,0,14.75,86.4578a4.1064,4.1064,0,0,1-.8345,1.4176c1.3489-.2744,2.0577-2.6408,2.0577-2.6408a3.7232,3.7232,0,0,1-.5144,1.9434c2.4236-2.4464.6059-4.4242.6059-4.4242C16.7967,83.0168,17.3,84.16,17.3,84.16a2.4352,2.4352,0,0,0-.1829-1.1775,1.6262,1.6262,0,0,0-.3658-.5145,2.0978,2.0978,0,0,0-.56-.3772,3.8374,3.8374,0,0,1-.4115-.24c-.0686-.0457-.1372-.0914-.1944-.1372a.8517.8517,0,0,1-.1943-.16.4729.4729,0,0,1,.1829.0343c.0686.0228.1258.0343.1829.0571.1258.0458.24.0915.3658.1258.1372.0457.2744.08.4116.1143,1.4519.3658,1.9777-.4573,1.9777-.4573C18.1457,81.7021,17.1283,81.5078,16.4309,81.1991Zm-3.8183-.08-.0229.1143a.2859.2859,0,0,1-.1486.1943l-.3086.1486a.0829.0829,0,0,1-.0915-.1371l.423-.4A.0872.0872,0,0,1,12.6126,81.1191Z" fill="#d60000" stroke="#777" stroke-miterlimit="10" stroke-width="0.2"/><path d="M15.2369,151.4076a.3427.3427,0,1,1,0,.6854h-.3427V153.23l2.0776,4.3265a1.0177,1.0177,0,0,1-.15.92,1.1758,1.1758,0,0,1-.9521.4709H11.8621a1.1745,1.1745,0,0,1-.9517-.4709,1.0167,1.0167,0,0,1-.15-.92l.0172-.0432,2.06-4.2833V152.093h-.3427a.3427.3427,0,0,1,0-.6854Zm-.0017,4.1126-1.0265-2.1341V152.093h-.6854v1.2931L12.4972,155.52Z" fill="#333132" fill-rule="evenodd"/><path d="M24.1065,129.3109a8.5022,8.5022,0,0,1,1.55-.1348,2.574,2.574,0,0,1,1.8091.5142,1.5613,1.5613,0,0,1,.49,1.1865,1.6487,1.6487,0,0,1-1.1768,1.5908v.0225a1.5825,1.5825,0,0,1,.9155,1.2641,10.47,10.47,0,0,0,.48,1.7134h-.8362a8.2741,8.2741,0,0,1-.41-1.4946c-.1853-.855-.523-1.1865-1.2529-1.2105h-.7632v2.7051h-.8057Zm.8057,2.8413h.8239c.8628,0,1.41-.47,1.41-1.1851,0-.811-.585-1.1631-1.4353-1.1645a3.5282,3.5282,0,0,0-.7981.0708Z" fill="#414042"/><path d="M29.5562,133.3748a1.43,1.43,0,0,0,1.533,1.5552,3.0212,3.0212,0,0,0,1.2407-.229l.1426.5781a3.6067,3.6067,0,0,1-1.4944.2857,2.0883,2.0883,0,0,1-2.2041-2.2608,2.1762,2.1762,0,0,1,2.1077-2.4174,1.8891,1.8891,0,0,1,1.8435,2.1064,1.9793,1.9793,0,0,1-.0279.3818Zm2.3843-.5859a1.1558,1.1558,0,0,0-1.1235-1.3183,1.3387,1.3387,0,0,0-1.2508,1.3183Z" fill="#414042"/><path d="M34.7161,129.6991v1.29h1.17v.6167h-1.17v2.4141c0,.5581.1607.8735.616.8735a1.615,1.615,0,0,0,.4722-.0591l.0371.6192a2.0871,2.0871,0,0,1-.7278.1118,1.1407,1.1407,0,0,1-.8794-.3447,1.7142,1.7142,0,0,1-.3162-1.1685v-2.4463h-.6936v-.6167h.6936V129.91Z" fill="#414042"/><path d="M39.286,135.4676l-.0718-.5659H39.19a1.6651,1.6651,0,0,1-1.37.668,1.278,1.278,0,0,1-1.3682-1.2857c0-1.0849.9615-1.6806,2.6919-1.6684V132.52a.9224.9224,0,0,0-1.02-1.0332,2.1808,2.1808,0,0,0-1.167.3339l-.1849-.542a2.8176,2.8176,0,0,1,1.4783-.3925c1.3692,0,1.7031.936,1.7031,1.8335v1.6757a6.9936,6.9936,0,0,0,.0677,1.0718Zm-.1268-2.2871c-.8815-.019-1.8908.14-1.8908,1.0059a.7173.7173,0,0,0,.7605.78,1.122,1.122,0,0,0,1.0918-.75.8567.8567,0,0,0,.0385-.2569Z" fill="#414042"/><path d="M42.1746,129.722a.4907.4907,0,0,1-.518.5064.4858.4858,0,0,1-.4917-.5064.4947.4947,0,0,1,.5066-.5068A.4875.4875,0,0,1,42.1746,129.722Zm-.91,5.7456v-4.479h.8105v4.479Z" fill="#414042"/><path d="M43.4307,128.8914h.8106v6.5762h-.8106Z" fill="#414042"/><path d="M24.1065,140.8827a10.7285,10.7285,0,0,1,1.7156-.1348,3.5771,3.5771,0,0,1,2.5293.7842,2.8523,2.8523,0,0,1,.8838,2.2339,3.3236,3.3236,0,0,1-.898,2.4282,3.8832,3.8832,0,0,1-2.7639.9,13.066,13.066,0,0,1-1.4668-.0693Zm.81,5.5224a5.8217,5.8217,0,0,0,.8108.0376,2.3928,2.3928,0,0,0,2.6587-2.646,2.2223,2.2223,0,0,0-2.5244-2.4053,4.8181,4.8181,0,0,0-.9451.0826Z" fill="#414042"/><path d="M31.1771,141.2938a.4911.4911,0,0,1-.5183.5063.4857.4857,0,0,1-.4917-.5063.4946.4946,0,0,1,.5065-.5068A.4879.4879,0,0,1,31.1771,141.2938Zm-.91,5.7456V142.56h.8105v4.479Z" fill="#414042"/><path d="M32.4329,143.77c0-.4673-.0151-.8384-.0368-1.21h.72l.0449.7363h.0227a1.6528,1.6528,0,0,1,1.4812-.8384c.6153,0,1.5784.37,1.5784,1.9087v2.6724h-.81v-2.5825c0-.7241-.273-1.3306-1.0357-1.3306a1.1724,1.1724,0,0,0-1.0974.836,1.2626,1.2626,0,0,0-.0561.3779v2.6992h-.8106Z" fill="#414042"/><path d="M38.4808,141.2938a.4908.4908,0,0,1-.5181.5063.4858.4858,0,0,1-.4917-.5063.4947.4947,0,0,1,.5066-.5068A.4875.4875,0,0,1,38.4808,141.2938Zm-.91,5.7456V142.56h.8106v4.479Z" fill="#414042"/><path d="M39.7369,143.77c0-.4673-.0152-.8384-.0369-1.21h.72l.045.7363h.0227a1.6528,1.6528,0,0,1,1.4812-.8384c.6152,0,1.5783.37,1.5783,1.9087v2.6724h-.81v-2.5825c0-.7241-.2729-1.3306-1.0356-1.3306a1.1724,1.1724,0,0,0-1.0974.836,1.2593,1.2593,0,0,0-.0562.3779v2.6992h-.8105Z" fill="#414042"/><path d="M48.74,142.56c-.0225.3164-.0379.68-.0379,1.2256v2.6011a2.6061,2.6061,0,0,1-.64,2.0507,2.4088,2.4088,0,0,1-1.6319.5371,2.8906,2.8906,0,0,1-1.4953-.3686l.2041-.6265a2.5238,2.5238,0,0,0,1.3188.3584c.8313,0,1.4424-.435,1.4424-1.5693v-.5h-.0183a1.5889,1.5889,0,0,1-1.4236.7549,2.0068,2.0068,0,0,1-1.91-2.1914,2.145,2.145,0,0,1,2.0225-2.3746,1.4886,1.4886,0,0,1,1.3974.7725h.0186l.0337-.67Zm-.8477,1.7617a1.245,1.245,0,0,0-.0452-.3642,1.1769,1.1769,0,0,0-1.144-.8672c-.7771,0-1.3342.6572-1.3342,1.6982,0,.8765.4526,1.6138,1.3261,1.6138a1.1927,1.1927,0,0,0,1.1333-.84,1.4476,1.4476,0,0,0,.064-.4331Z" fill="#414042"/><path d="M8.6812,103.3255a10.98,10.98,0,0,1,1.8555-.1362,2.97,2.97,0,0,1,1.9531.543,1.8648,1.8648,0,0,1,.6494,1.4682,2.0236,2.0236,0,0,1-.5652,1.5025,2.9293,2.9293,0,0,1-2.0971.7143,2.9432,2.9432,0,0,1-.593-.0468v2.5039H8.6812Zm1.2027,3.0923a2.397,2.397,0,0,0,.5935.0557c.9057,0,1.4585-.4512,1.4585-1.229,0-.731-.5118-1.124-1.3506-1.124a3.4615,3.4615,0,0,0-.7014.0581Z" fill="#414042"/><path d="M18.4444,107.4315a2.3744,2.3744,0,0,1-2.4612,2.5513,2.3165,2.3165,0,0,1-2.3977-2.4688,2.3684,2.3684,0,0,1,2.479-2.5391A2.2979,2.2979,0,0,1,18.4444,107.4315Zm-3.6135.0522c0,.9219.46,1.6187,1.1911,1.6187.6949,0,1.177-.67,1.177-1.6348,0-.7529-.333-1.6128-1.1691-1.6128C15.18,105.8548,14.8309,106.6849,14.8309,107.4837Z" fill="#414042"/><path d="M20.7237,103.742a.6432.6432,0,0,1-.6907.6534.6547.6547,0,1,1,.6907-.6534ZM19.44,109.8744v-4.7915h1.2124v4.7915Z" fill="#414042"/><path d="M21.9581,106.5077c0-.5533-.0176-1.01-.0393-1.4248h1.0586l.0595.72h.0281a1.7444,1.7444,0,0,1,1.5271-.8277c.8352,0,1.7031.5376,1.7031,2.0533v2.8462H25.0828v-2.7037c0-.6875-.2524-1.2109-.9143-1.2109a1.0054,1.0054,0,0,0-.9424.7109,1.1878,1.1878,0,0,0-.0556.3843v2.8194H21.9581Z" fill="#414042"/><path d="M28.9212,103.7108v1.3721H30.074v.9028H28.9212V108.1c0,.5865.1563.8843.62.8843a1.8265,1.8265,0,0,0,.4707-.0527l.0245.9219a2.7159,2.7159,0,0,1-.8819.1245,1.4026,1.4026,0,0,1-1.041-.395,1.9037,1.9037,0,0,1-.3789-1.3438v-2.2534H27.05v-.9028h.6838v-1.085Z" fill="#414042"/><path d="M30.929,108.76a2.6584,2.6584,0,0,0,1.2227.35c.5329,0,.771-.2236.771-.5381,0-.3242-.1975-.4887-.7866-.6982-.938-.3213-1.3287-.8316-1.3245-1.3994,0-.8423.7-1.4991,1.8183-1.4991a2.7624,2.7624,0,0,1,1.2708.2862l-.24.85a2.1753,2.1753,0,0,0-1.0135-.2754c-.4309,0-.6709.2129-.6709.5073,0,.3042.231.45.8365.6714.8718.3081,1.2741.7529,1.2785,1.459,0,.874-.6806,1.5044-1.946,1.5044a3.1034,3.1034,0,0,1-1.46-.336Z" fill="#414042"/><path d="M41.6768,107.4315a2.3744,2.3744,0,0,1-2.4612,2.5513,2.3165,2.3165,0,0,1-2.3977-2.4688,2.3684,2.3684,0,0,1,2.479-2.5391A2.2979,2.2979,0,0,1,41.6768,107.4315Zm-3.6135.0522c0,.9219.46,1.6187,1.1912,1.6187.6948,0,1.177-.67,1.177-1.6348,0-.7529-.333-1.6128-1.1692-1.6128C38.4119,105.8548,38.0633,106.6849,38.0633,107.4837Z" fill="#414042"/><path d="M42.8057,109.8744v-3.8887h-.6491v-.9028h.6491v-.2037a2.2441,2.2441,0,0,1,.5818-1.6386,1.82,1.82,0,0,1,1.2542-.4624,2.3613,2.3613,0,0,1,.769.1191l-.0845.9312a1.4369,1.4369,0,0,0-.5163-.087c-.6,0-.8.5044-.8,1.0914v.25h1.0476v.9028H44.0181v3.8887Z" fill="#414042"/><path d="M49.0994,103.2411v6.6333H47.887v-6.6333Z" fill="#414042"/><path d="M50.5018,106.5077c0-.5533-.0176-1.01-.0393-1.4248h1.0586l.0595.72h.0281a1.7444,1.7444,0,0,1,1.5271-.8277c.8352,0,1.7031.5376,1.7031,2.0533v2.8462H53.6265v-2.7037c0-.6875-.2524-1.2109-.9143-1.2109a1.0054,1.0054,0,0,0-.9424.7109,1.1878,1.1878,0,0,0-.0556.3843v2.8194H50.5018Z" fill="#414042"/><path d="M57.4649,103.7108v1.3721h1.1528v.9028H57.4649V108.1c0,.5865.1563.8843.62.8843a1.8265,1.8265,0,0,0,.4707-.0527l.0245.9219a2.7138,2.7138,0,0,1-.8816.1245,1.4038,1.4038,0,0,1-1.0415-.395,1.9047,1.9047,0,0,1-.3787-1.3438v-2.2534h-.6838v-.9028h.6838v-1.085Z" fill="#414042"/><path d="M60.325,107.8138a1.3068,1.3068,0,0,0,1.4795,1.2481,3.6415,3.6415,0,0,0,1.3225-.2222l.1792.834a4.3384,4.3384,0,0,1-1.6743.3042,2.27,2.27,0,0,1-2.4668-2.43,2.37,2.37,0,0,1,2.3433-2.5733,2.08,2.08,0,0,1,2.0644,2.33,2.5336,2.5336,0,0,1-.0429.5088Zm2.107-.8442a1.0314,1.0314,0,0,0-.9993-1.168,1.1862,1.1862,0,0,0-1.11,1.168Z" fill="#414042"/><path d="M64.5467,106.6234c0-.6416-.0134-1.1133-.04-1.5405h1.0494l.0449.9106h.0339a1.4278,1.4278,0,0,1,1.3115-1.0186,1.1405,1.1405,0,0,1,.2845.0264v1.1406a1.6672,1.6672,0,0,0-.3553-.0341,1.0676,1.0676,0,0,0-1.0861.9165,2.0167,2.0167,0,0,0-.0308.3652v2.4849H64.5467Z" fill="#414042"/><path d="M68.8135,107.8138a1.3067,1.3067,0,0,0,1.48,1.2481,3.6415,3.6415,0,0,0,1.3225-.2222l.1792.834a4.3384,4.3384,0,0,1-1.6743.3042,2.27,2.27,0,0,1-2.4668-2.43,2.37,2.37,0,0,1,2.3433-2.5733,2.08,2.08,0,0,1,2.0644,2.33,2.5261,2.5261,0,0,1-.0429.5088Zm2.107-.8442a1.0315,1.0315,0,0,0-.9993-1.168,1.1862,1.1862,0,0,0-1.11,1.168Z" fill="#414042"/><path d="M72.9774,108.76a2.658,2.658,0,0,0,1.2226.35c.533,0,.771-.2236.771-.5381,0-.3242-.1975-.4887-.7866-.6982-.938-.3213-1.3286-.8316-1.3245-1.3994,0-.8423.7-1.4991,1.8184-1.4991a2.7622,2.7622,0,0,1,1.2707.2862l-.24.85a2.1749,2.1749,0,0,0-1.0134-.2754c-.4309,0-.6709.2129-.6709.5073,0,.3042.2309.45.8364.6714.8718.3081,1.2742.7529,1.2786,1.459,0,.874-.6807,1.5044-1.9461,1.5044a3.1034,3.1034,0,0,1-1.46-.336Z" fill="#414042"/><path d="M78.5235,103.7108v1.3721h1.1528v.9028H78.5235V108.1c0,.5865.1563.8843.62.8843a1.8265,1.8265,0,0,0,.4707-.0527l.0244.9219a2.7126,2.7126,0,0,1-.8815.1245,1.4036,1.4036,0,0,1-1.0415-.395,1.9047,1.9047,0,0,1-.3787-1.3438v-2.2534h-.6838v-.9028h.6838v-1.085Z" fill="#414042"/><path d="M24.9171,117.6532v2.6147h3.0175v-2.6147h.8106v6.2426h-.8106v-2.9287H24.9171v2.9287h-.8106v-6.2426Z" fill="#414042"/><path d="M31.1214,118.15a.5049.5049,0,1,1-.5032-.5068A.4908.4908,0,0,1,31.1214,118.15Zm-.91,5.7456v-4.479h.8106v4.479Z" fill="#414042"/><path d="M32.262,123.0663a2.22,2.22,0,0,0,1.08.3193c.595,0,.8706-.2925.8706-.667,0-.3921-.237-.5972-.8325-.82-.8093-.293-1.1924-.7334-1.19-1.27a1.3845,1.3845,0,0,1,1.55-1.3135,2.1709,2.1709,0,0,1,1.0971.2754l-.2026.5923a1.7628,1.7628,0,0,0-.9189-.2637c-.4807,0-.742.2773-.742.6147,0,.3706.2634.5362.8506.7642.7722.2876,1.1731.6768,1.1753,1.3457,0,.7939-.6169,1.35-1.6753,1.35a2.5568,2.5568,0,0,1-1.259-.312Z" fill="#414042"/><path d="M37.0211,118.1273v1.2895h1.17v.6167h-1.17v2.4141c0,.5581.1606.8735.6159.8735a1.6156,1.6156,0,0,0,.4722-.059l.0371.6191a2.0867,2.0867,0,0,1-.7278.1118,1.14,1.14,0,0,1-.8791-.3447,1.7131,1.7131,0,0,1-.3164-1.1685v-2.4463h-.6936v-.6167h.6936v-1.0791Z" fill="#414042"/><path d="M43.1063,121.6131a2.1945,2.1945,0,0,1-2.2276,2.3848,2.1323,2.1323,0,0,1-2.1533-2.3076,2.188,2.188,0,0,1,2.2246-2.3755A2.1183,2.1183,0,0,1,43.1063,121.6131Zm-3.5518.0523c0,.9824.563,1.7221,1.3579,1.7221.781,0,1.365-.73,1.365-1.7465,0-.7579-.3821-1.7159-1.35-1.7159C39.9705,119.9251,39.5545,120.8158,39.5545,121.6654Z" fill="#414042"/><path d="M44.1329,120.8119c0-.5293-.0132-.98-.0371-1.3951H44.81l.031.8785H44.87a1.3594,1.3594,0,0,1,1.2473-.98.92.92,0,0,1,.2266.0229v.7662a1.2865,1.2865,0,0,0-.2771-.0235,1.138,1.138,0,0,0-1.09,1.042,2.1645,2.1645,0,0,0-.0329.38v2.393h-.81Z" fill="#414042"/><path d="M48.1087,118.15a.4911.4911,0,0,1-.5183.5064.4858.4858,0,0,1-.4917-.5064.4948.4948,0,0,1,.5066-.5068A.4879.4879,0,0,1,48.1087,118.15Zm-.91,5.7456v-4.479h.8106v4.479Z" fill="#414042"/><path d="M52.5587,123.7337a3.0906,3.0906,0,0,1-1.2852.2593,2.1342,2.1342,0,0,1-2.2353-2.2886,2.2813,2.2813,0,0,1,2.4067-2.3881,2.6307,2.6307,0,0,1,1.1321.2382l-.1812.626a1.9786,1.9786,0,0,0-.9524-.2153,1.5543,1.5543,0,0,0-1.58,1.6963,1.5377,1.5377,0,0,0,1.56,1.6762,2.3678,2.3678,0,0,0,.9973-.2153Z" fill="#414042"/><path d="M55.3592,123.0663a2.22,2.22,0,0,0,1.08.3193c.595,0,.8706-.2925.8706-.667,0-.3921-.2371-.5972-.8325-.82-.8094-.293-1.1924-.7334-1.19-1.27a1.3846,1.3846,0,0,1,1.55-1.3135,2.171,2.171,0,0,1,1.0972.2754l-.2026.5923a1.7629,1.7629,0,0,0-.919-.2637c-.4807,0-.7419.2773-.7419.6147,0,.3706.2634.5362.8506.7642.7722.2876,1.1731.6768,1.1753,1.3457,0,.7939-.617,1.35-1.6753,1.35a2.5572,2.5572,0,0,1-1.2591-.312Z" fill="#414042"/><path d="M60.0506,118.15a.4911.4911,0,0,1-.5183.5064.4858.4858,0,0,1-.4917-.5064.4948.4948,0,0,1,.5066-.5068A.4879.4879,0,0,1,60.0506,118.15Zm-.91,5.7456v-4.479h.81v4.479Z" fill="#414042"/><path d="M62.2842,118.1273v1.2895h1.1705v.6167H62.2842v2.4141c0,.5581.1607.8735.616.8735a1.6156,1.6156,0,0,0,.4722-.059l.0371.6191a2.0867,2.0867,0,0,1-.7278.1118,1.14,1.14,0,0,1-.8791-.3447,1.7125,1.7125,0,0,1-.3165-1.1685v-2.4463h-.6936v-.6167h.6936v-1.0791Z" fill="#414042"/><path d="M64.7711,121.8036a1.43,1.43,0,0,0,1.5329,1.5546,3.0192,3.0192,0,0,0,1.2407-.229l.1426.5782a3.6083,3.6083,0,0,1-1.4944.2856,2.0883,2.0883,0,0,1-2.2041-2.2607,2.1762,2.1762,0,0,1,2.1077-2.4175,1.8891,1.8891,0,0,1,1.8435,2.1064,2.0006,2.0006,0,0,1-.0278.3824Zm2.3842-.5865a1.1558,1.1558,0,0,0-1.1235-1.3183,1.3386,1.3386,0,0,0-1.2507,1.3183Z" fill="#414042"/><path d="M13.8759,115.8383a4.5148,4.5148,0,1,1-4.5193,4.51v-.0073A4.5148,4.5148,0,0,1,13.8759,115.8383ZM13.531,119.27h-.8055a.6763.6763,0,0,0-.1733.0244.168.168,0,0,0-.1319.14.1609.1609,0,0,0,.09.186.82.82,0,0,0,.2754.074c.2511.0118.3522.1219.3143.38-.0705.4831-.1653.9625-.2465,1.4447-.0551.3251-.1012.651-.1545.9761a.8656.8656,0,0,0,.661.9029,3.8493,3.8493,0,0,0,.58.0371,1.5089,1.5089,0,0,0,1.0971-.475.4176.4176,0,0,0,.1129-.1743.214.214,0,0,0-.038-.1661.1633.1633,0,0,0-.1417-.0154c-.0741.0244-.14.075-.2122.1066a1.3056,1.3056,0,0,1-.2637.09.2574.2574,0,0,1-.3178-.2294.866.866,0,0,1-.0081-.2546c.0307-.2095.074-.4172.1119-.6248q.1545-.85.3133-1.7a1.2189,1.2189,0,0,0,.0452-.4713.2709.2709,0,0,0-.289-.2515l-.0054,0Zm.4912-2.0081a.82.82,0,1,0,.7831.855l.0006-.018a.8126.8126,0,0,0-.7837-.8352Z" fill="none" stroke="#fff" stroke-miterlimit="10" stroke-width="2"/><path d="M13.8759,115.8383a4.5148,4.5148,0,1,1-4.5193,4.51v-.0073A4.5148,4.5148,0,0,1,13.8759,115.8383ZM13.531,119.27h-.8055a.6763.6763,0,0,0-.1733.0244.168.168,0,0,0-.1319.14.1609.1609,0,0,0,.09.186.82.82,0,0,0,.2754.074c.2511.0118.3522.1219.3143.38-.0705.4831-.1653.9625-.2465,1.4447-.0551.3251-.1012.651-.1545.9761a.8656.8656,0,0,0,.661.9029,3.8493,3.8493,0,0,0,.58.0371,1.5089,1.5089,0,0,0,1.0971-.475.4176.4176,0,0,0,.1129-.1743.214.214,0,0,0-.038-.1661.1633.1633,0,0,0-.1417-.0154c-.0741.0244-.14.075-.2122.1066a1.3056,1.3056,0,0,1-.2637.09.2574.2574,0,0,1-.3178-.2294.866.866,0,0,1-.0081-.2546c.0307-.2095.074-.4172.1119-.6248q.1545-.85.3133-1.7a1.2189,1.2189,0,0,0,.0452-.4713.2709.2709,0,0,0-.289-.2515l-.0054,0Zm.4912-2.0081a.82.82,0,1,0,.7831.855l.0006-.018a.8126.8126,0,0,0-.7837-.8352Z" fill="#333132"/><path id="path4" d="M13.8422,139.8052c-1.1572,0-4.05.1446-3.7609.4339l3.4716,3.6162V146.17c0,.5786-1.7358.2893-1.7358,1.1572h4.05c0-.8679-1.7358-.5786-1.7358-1.1572v-2.3144l3.4716-3.6162C17.8923,139.95,14.9993,139.8052,13.8422,139.8052Zm0,.5785c1.4464,0,2.7483.1447,2.7483.1447l-.434.4339H11.5278l-.434-.4339S12.3957,140.3837,13.8422,140.3837Z" fill="#333132"/><path d="M17.2182,130.7464H16.1594l-.2257-1.3481a1.1571,1.1571,0,0,0-.8158-.8621,2.1782,2.1782,0,0,0-.6249-.1042H13.197a2.1782,2.1782,0,0,0-.6249.1042,1.1571,1.1571,0,0,0-.8158.8621l-.2257,1.3481H10.4718a.2892.2892,0,0,0-.291.2876.2856.2856,0,0,0,.0133.0885l1.0877,3.6451h0a.8681.8681,0,0,0,.8274.6076h3.4716a.8681.8681,0,0,0,.8216-.6076h0l1.0877-3.6451a.2892.2892,0,0,0-.2719-.3761Zm-5.0974,0,.2083-1.2555a.5263.5263,0,0,1,.4281-.405,1.6505,1.6505,0,0,1,.44-.0753h1.296a1.6438,1.6438,0,0,1,.4455.0753.5264.5264,0,0,1,.4282.405l.2025,1.2555H12.1208Z" fill="#333132"/><path d="M25.12,156.65l-.645,1.9619h-.836l2.1231-6.2427h.97l2.1318,6.2427h-.862l-.6687-1.9619Zm2.05-.63-.6181-1.7964c-.1353-.4087-.2293-.7808-.3216-1.1392h-.0217c-.0893.3653-.187.7461-.31,1.128l-.6149,1.8076Z" fill="#414042"/><path d="M29.7193,155.5916c0-.5712-.0154-1.0366-.0371-1.4589H30.41l.0451.7631h.0184a1.7492,1.7492,0,0,1,1.59-.8652,2.028,2.028,0,0,1,1.9014,2.273,2.1249,2.1249,0,0,1-2.0366,2.41,1.5633,1.5633,0,0,1-1.3806-.706h-.0186v2.4379h-.81Zm.81,1.1973a1.5152,1.5152,0,0,0,.0352.3311,1.2524,1.2524,0,0,0,1.218.9555c.8635,0,1.3621-.7085,1.3621-1.7353,0-.8936-.4683-1.6626-1.3306-1.6626a1.2941,1.2941,0,0,0-1.2324,1.0054,1.4088,1.4088,0,0,0-.0523.331Z" fill="#414042"/><path d="M39.0516,156.3289a2.1945,2.1945,0,0,1-2.2276,2.3848,2.1323,2.1323,0,0,1-2.1533-2.3076,2.188,2.188,0,0,1,2.2246-2.3755A2.1183,2.1183,0,0,1,39.0516,156.3289Zm-3.5518.0523c0,.9824.563,1.7222,1.3579,1.7222.781,0,1.365-.73,1.365-1.7466,0-.7578-.3821-1.7158-1.35-1.7158C35.9158,154.641,35.5,155.5316,35.5,156.3812Z" fill="#414042"/><path d="M41.0574,152.8431v1.29h1.17v.6167h-1.17v2.414c0,.5581.1607.8736.616.8736a1.615,1.615,0,0,0,.4722-.0591l.0371.6191a2.0871,2.0871,0,0,1-.7278.1118,1.1407,1.1407,0,0,1-.8794-.3447,1.7142,1.7142,0,0,1-.3162-1.1685v-2.4462h-.6936v-.6167h.6936v-1.0791Z" fill="#414042"/><path d="M43.1436,152.0355h.8106v2.7964h.0185a1.6054,1.6054,0,0,1,.5857-.5752,1.64,1.64,0,0,1,.8342-.2261c.6038,0,1.5611.3682,1.5611,1.9136v2.6675h-.81v-2.5786c0-.7232-.2732-1.33-1.0357-1.33a1.184,1.184,0,0,0-1.0988.8129,1.0928,1.0928,0,0,0-.0547.3877v2.7076h-.8106Z" fill="#414042"/><path d="M48.7374,156.5194a1.43,1.43,0,0,0,1.5329,1.5547,3.0217,3.0217,0,0,0,1.2408-.229l.1425.5781a3.6067,3.6067,0,0,1-1.4944.2856,2.0883,2.0883,0,0,1-2.2041-2.2607,2.1763,2.1763,0,0,1,2.1077-2.4175,1.8891,1.8891,0,0,1,1.8435,2.1065,2,2,0,0,1-.0278.3823Zm2.3842-.5864a1.1558,1.1558,0,0,0-1.1235-1.3184,1.3387,1.3387,0,0,0-1.2507,1.3184Z" fill="#414042"/><path d="M56.1136,158.45a3.0921,3.0921,0,0,1-1.2852.2592,2.1342,2.1342,0,0,1-2.2353-2.2885A2.2815,2.2815,0,0,1,55,154.0321a2.6305,2.6305,0,0,1,1.1321.2383l-.1812.6259a1.9781,1.9781,0,0,0-.9523-.2153,1.5544,1.5544,0,0,0-1.58,1.6963,1.5379,1.5379,0,0,0,1.56,1.6763,2.3681,2.3681,0,0,0,.9974-.2154Z" fill="#414042"/><path d="M59.56,158.6117l-.0717-.566h-.0245a1.666,1.666,0,0,1-1.37.668,1.278,1.278,0,0,1-1.3682-1.2856c0-1.085.9614-1.6807,2.6919-1.6685v-.0952a.9225.9225,0,0,0-1.02-1.0332,2.18,2.18,0,0,0-1.167.334l-.1848-.542a2.8167,2.8167,0,0,1,1.4783-.3926c1.3694,0,1.7031.936,1.7031,1.8335V157.54a6.9953,6.9953,0,0,0,.0677,1.0718Zm-.1267-2.2871c-.8816-.0191-1.8908.14-1.8908,1.0058a.717.717,0,0,0,.7605.78,1.122,1.122,0,0,0,1.0918-.75.8556.8556,0,0,0,.0385-.2568Z" fill="#414042"/><path d="M61.5367,155.5277c0-.5293-.0132-.98-.0371-1.395h.7141l.031.8784h.0288a1.3594,1.3594,0,0,1,1.2473-.9805.9149.9149,0,0,1,.2266.023v.7661a1.2865,1.2865,0,0,0-.2771-.0235,1.1381,1.1381,0,0,0-1.09,1.042,2.1741,2.1741,0,0,0-.0329.38v2.3931h-.81Z" fill="#414042"/><path d="M65.0909,154.1327,66.07,156.78c.1053.2959.2149.6475.2881.9141H66.38c.08-.2637.179-.6069.2859-.9321l.8863-2.6294h.8645l-1.2259,3.19a6.8309,6.8309,0,0,1-1.5342,2.81,2.258,2.258,0,0,1-.9987.5229l-.2027-.6811a2.124,2.124,0,0,0,.7139-.398,2.5793,2.5793,0,0,0,.6812-.9072.491.491,0,0,0,.0629-.1963.534.534,0,0,0-.0566-.209l-1.6519-4.1313Z" fill="#414042"/><path d="M10.1614,17.9373l-.5747,2.8262.0181.0044a1.834,1.834,0,0,1,1.5315-.8911c.9546,0,1.3188.7876,1.3188,1.56a2.8888,2.8888,0,0,1-2.7128,2.9922c-.7669,0-1.3436-.3194-1.3414-1.1236a3.8186,3.8186,0,0,1,.0757-.6762l.9378-4.6915Zm-.9443,4.709a2.4051,2.4051,0,0,0-.0535.5518c.0042.4141.241.6421.7049.6421,1.1281,0,1.8093-1.3394,1.8093-2.3062,0-.54-.2356-1.0371-.8311-1.0371-.6428,0-1.3129.6675-1.5319,1.6865Z" fill="#414042"/><path d="M13.8548,19.9754l.4312,2.3418c.0964.5015.1533.8228.1967,1.148h.0227c.1145-.2793.2425-.5845.462-1.0664l1.1149-2.4234h.793L15.24,23.285a8.2944,8.2944,0,0,1-1.5007,2.291,2.772,2.772,0,0,1-1.2666.7515l-.1826-.6416a2.737,2.737,0,0,0,.7976-.419,3.2882,3.2882,0,0,0,.842-1.0044.2676.2676,0,0,0,.022-.1982l-.8728-4.0889Z" fill="#414042"/><path d="M23.619,24.3294l.435-3.2763c.0789-.5786.2132-1.4678.3286-2.0537h-.0288c-.28.6128-.6184,1.3344-.9492,1.9555l-1.8027,3.3365h-.5708l-.4485-3.2686c-.0925-.6968-.1543-1.4014-.1953-2.0234h-.02c-.1279.56-.3176,1.477-.4626,2.0551l-.8255,3.2749h-.7026l1.5713-6.0678h.9524l.48,3.4795c.06.5161.13,1.07.1463,1.5214h.0271c.1845-.4511.4445-.9951.7065-1.5l1.8784-3.5009h.9766l-.77,6.0678Z" fill="#414042"/><path d="M29.7093,21.6873a2.6141,2.6141,0,0,1-2.419,2.7413,1.66,1.66,0,0,1-1.7-1.7881,2.6063,2.6063,0,0,1,2.415-2.7637A1.663,1.663,0,0,1,29.7093,21.6873Zm-3.3484.9239c0,.7075.3933,1.2256,1.032,1.2256.8782,0,1.5456-1.1387,1.5456-2.1509,0-.5088-.2348-1.2178-1.0149-1.2178C26.9827,20.4681,26.36,21.6131,26.3609,22.6112Z" fill="#414042"/><path d="M35.337,24.3294l.435-3.2763c.0789-.5786.2132-1.4678.3287-2.0537h-.0289c-.28.6128-.6184,1.3344-.9492,1.9555L33.32,24.2914h-.5708l-.4485-3.2686c-.0925-.6968-.1543-1.4014-.1953-2.0234h-.02c-.1282.56-.3179,1.477-.4629,2.0551l-.8255,3.2749h-.7026l1.571-6.0678h.9527l.48,3.4795c.06.5161.13,1.07.1463,1.5214h.0271c.1846-.4511.4446-.9951.7065-1.5l1.8784-3.5009h.9766l-.77,6.0678Z" fill="#414042"/><path d="M41.8821,24.1571a2.9526,2.9526,0,0,1-1.2648.2671A1.57,1.57,0,0,1,38.9427,22.74a2.7717,2.7717,0,0,1,2.6706-2.8618,2.0557,2.0557,0,0,1,.9048.1977l-.2136.5923a1.668,1.668,0,0,0-.7395-.1645,2.0318,2.0318,0,0,0-1.8457,2.1416,1.0282,1.0282,0,0,0,1.0845,1.1645,2.29,2.29,0,0,0,1.0061-.2427Z" fill="#414042"/><path d="M42.6961,24.3294l1.2188-6.3921h.7465l-1.22,6.3921Z" fill="#414042"/><path d="M47.6417,24.3294a9.7684,9.7684,0,0,1,.0971-1.125H47.72a1.8919,1.8919,0,0,1-1.6857,1.2242,1.2876,1.2876,0,0,1-1.252-1.4385,3.0372,3.0372,0,0,1,3.01-3.1133,4.3109,4.3109,0,0,1,1.1748.165l-.4443,2.2691a9.81,9.81,0,0,0-.1843,2.0185Zm.4843-3.7968a1.7187,1.7187,0,0,0-.518-.0616,2.3147,2.3147,0,0,0-2.0523,2.3843c-.0031.4863.1685.96.7434.96.625,0,1.3567-.8116,1.5738-1.9693Z" fill="#414042"/><path d="M49.5069,23.5731a1.9807,1.9807,0,0,0,.9363.27.7534.7534,0,0,0,.8286-.7109c0-.34-.1531-.5523-.6047-.8028a1.3027,1.3027,0,0,1-.7872-1.11,1.4346,1.4346,0,0,1,1.5779-1.3433,1.782,1.782,0,0,1,.9063.2158l-.2095.564a1.553,1.553,0,0,0-.7505-.1983.701.701,0,0,0-.7766.6539c0,.32.209.5141.5984.7334a1.3559,1.3559,0,0,1,.813,1.1435,1.4854,1.4854,0,0,1-1.6626,1.4351,1.9327,1.9327,0,0,1-1.0833-.2989Z" fill="#414042"/><path d="M52.8638,23.5731a1.981,1.981,0,0,0,.9363.27.7534.7534,0,0,0,.8286-.7109c0-.34-.153-.5523-.6047-.8028a1.3026,1.3026,0,0,1-.7871-1.11,1.4345,1.4345,0,0,1,1.5779-1.3433,1.7816,1.7816,0,0,1,.9062.2158l-.2095.564a1.5529,1.5529,0,0,0-.75-.1983.701.701,0,0,0-.7767.6539c0,.32.209.5141.5984.7334a1.3559,1.3559,0,0,1,.813,1.1435,1.4854,1.4854,0,0,1-1.6626,1.4351,1.9324,1.9324,0,0,1-1.0832-.2989Z" fill="#414042"/><path d="M56.1844,24.3294l.8318-4.354h.7449l-.8316,4.354Zm.97-5.5693a.496.496,0,0,1,.4912-.5059.4353.4353,0,0,1,.4446.4693.4949.4949,0,0,1-.5064.5024A.4256.4256,0,0,1,57.1539,18.76Z" fill="#414042"/><path d="M58.3582,24.3294l.7134-3.7675H58.491l.1128-.5865h.5823l.04-.2241a2.0593,2.0593,0,0,1,2.083-1.9126,2.0159,2.0159,0,0,1,.988.231l-.2334.59a1.9223,1.9223,0,0,0-.863-.1982c-.78,0-1.1238.6-1.2439,1.3076l-.0347.206H62.26l-.83,4.354h-.7451l.7136-3.7675H59.81l-.7136,3.7675Z" fill="#414042"/><path d="M65.7313,24.1571a2.9531,2.9531,0,0,1-1.2649.2671A1.57,1.57,0,0,1,62.7918,22.74a2.7717,2.7717,0,0,1,2.6707-2.8618,2.0565,2.0565,0,0,1,.9048.1977l-.2137.5923a1.668,1.668,0,0,0-.7395-.1645,2.0318,2.0318,0,0,0-1.8457,2.1416,1.0282,1.0282,0,0,0,1.0845,1.1645,2.29,2.29,0,0,0,1.0061-.2427Z" fill="#414042"/><path d="M69.295,24.3294a9.75,9.75,0,0,1,.0972-1.125h-.0193a1.892,1.892,0,0,1-1.6858,1.2242,1.2876,1.2876,0,0,1-1.252-1.4385,3.0372,3.0372,0,0,1,3.01-3.1133,4.3109,4.3109,0,0,1,1.1748.165l-.4443,2.2691a9.81,9.81,0,0,0-.1843,2.0185Zm.4844-3.7968a1.72,1.72,0,0,0-.5181-.0616,2.3147,2.3147,0,0,0-2.0523,2.3843c-.0031.4863.1685.96.7435.96.625,0,1.3566-.8116,1.5737-1.9693Z" fill="#414042"/><path d="M73.064,18.8055l-.2238,1.17h1.0405l-.1167.585H72.723l-.4009,2.1162a3.6394,3.6394,0,0,0-.0864.6948.3716.3716,0,0,0,.4118.4224,1.4345,1.4345,0,0,0,.3516-.0352l-.0359.5879a1.8249,1.8249,0,0,1-.5771.0786.809.809,0,0,1-.9166-.8442,4.0309,4.0309,0,0,1,.0955-.8174L71.99,20.56h-.6228l.1127-.585h.6253l.1836-.9809Z" fill="#414042"/><path d="M73.932,24.3294l.8317-4.354h.7449l-.8315,4.354Zm.9694-5.5693a.4961.4961,0,0,1,.4912-.5059.4353.4353,0,0,1,.4446.4693.4948.4948,0,0,1-.5063.5024A.4257.4257,0,0,1,74.9014,18.76Z" fill="#414042"/><path d="M80.1707,21.6873a2.614,2.614,0,0,1-2.4187,2.7413,1.66,1.66,0,0,1-1.7-1.7881,2.6064,2.6064,0,0,1,2.4151-2.7637A1.6628,1.6628,0,0,1,80.1707,21.6873Zm-3.3481.9239c0,.7075.3933,1.2256,1.0322,1.2256.8779,0,1.5454-1.1387,1.5454-2.1509,0-.5088-.2349-1.2178-1.0149-1.2178C77.4444,20.4681,76.8218,21.6131,76.8226,22.6112Z" fill="#414042"/><path d="M80.6907,24.3294l.5823-3.0864c.0967-.4844.156-.9067.2056-1.2676h.6706l-.1123.8555h.0181a1.9176,1.9176,0,0,1,1.6147-.9541,1.0687,1.0687,0,0,1,1.1011,1.2085,4.38,4.38,0,0,1-.0776.7026L84.21,24.3294h-.7448l.476-2.5156A3.3069,3.3069,0,0,0,84,21.2567c0-.4365-.1684-.7588-.6824-.7588a1.9138,1.9138,0,0,0-1.4892,1.7148l-.3923,2.1167Z" fill="#414042"/></g></g></svg>