<svg xmlns="http://www.w3.org/2000/svg" width="81.9963" height="57.4866" viewBox="0 0 81.9963 57.4866"><title>MoM_1</title><g id="Layer_2" data-name="Layer 2"><g id="Layer_29" data-name="Layer 29"><path d="M43.0458,50.7273c0-.4079.0017-.7574,0-1.1069-.006-1.0488-.0625-2.0963-.0817-3.145-.0268-1.4616-.0421-2.9243-.0965-4.3846-.0419-1.1269-.011-2.2549-.0757-3.3791-.0463-.803-.0092-1.6072-.0663-2.4066-.0777-1.0874-.0149-2.1766-.0805-3.2617-.07-1.1524-.02-2.3063-.0812-3.4567-.0421-.79-.0376-1.5791-.0649-2.3682a3.1028,3.1028,0,0,1,.1775-1.1391c.8328-2.4266,1.6489-4.859,2.4738-7.2884q1.1624-3.423,2.3317-6.8436.1506-.4414.3121-.8791a.48.48,0,0,0-.031-.4077c-.769-1.557-1.527-3.1194-2.3026-4.673A.7133.7133,0,0,1,45.4411,5.3Q46.5967,2.7728,47.7229.2323a.3178.3178,0,0,1,.3539-.2281c.09.0084.1813.0008.2721.0008L60.21.0072c.1037,0,.2075.0049.3111.0015a.268.268,0,0,1,.271.1791c.454.9873.9091,1.9741,1.3494,2.93-.0239.1071-.0787.1119-.1289.118a2.6082,2.6082,0,0,0-1.44.7121,4.6343,4.6343,0,0,0-1.4418,2.6076,7.5409,7.5409,0,0,0,.8831,5.2858c.714,1.293,1.4389,2.58,2.16,3.8688q.9779,1.7466,1.9586,3.4917.8636,1.5435,1.7225,3.0894,1.1472,2.0526,2.2971,4.1037,1.2148,2.1708,2.4293,4.3418,1.1022,1.9665,2.2081,3.931.9813,1.7448,1.9658,3.4877c.3.53.5866,1.0691.9158,1.5805.2725.4232.597.8132.9019,1.2153.2034.2683.411.5336.62.7978A4.3832,4.3832,0,0,0,80.4875,43.49a.7838.7838,0,0,1,.1157.0134.7424.7424,0,0,1,.1079.0481l1.2852,5.0349c-.1459.1282-.295.0841-.4309.0845q-2.5083.0072-5.0167.0065-7.6807.0035-15.3614.0049a1.2894,1.2894,0,0,1-.5177-.0433,1.3682,1.3682,0,0,1-.101-.5915q-.0081-2.1-.0065-4.2a.4374.4374,0,0,1,.0712-.3213,1.9512,1.9512,0,0,1,.63-.0289,4.0027,4.0027,0,0,0,1.5581-.2809,1.8574,1.8574,0,0,0,1.2616-1.4551,1.759,1.759,0,0,0-.2109-1.1627c-1.073-1.9386-2.1047-3.8992-3.144-5.8558-.772-1.4532-1.5507-2.9028-2.32-4.3576q-1.326-2.508-2.6407-5.0221-.733-1.3933-1.47-2.7847c-.0413-.078-.0658-.1707-.1491-.21a.2528.2528,0,0,0-.0478.0058.0651.0651,0,0,0-.0315.02.5278.5278,0,0,0-.0592.0991q-5.45,14.082-10.9,28.1643C43.1069,50.6691,43.0943,50.6766,43.0458,50.7273Zm4.1835-17.0637.0865-.013c-.084-.52-.1638-1.0409-.2528-1.56-.2188-1.2755-.4446-2.55-.6625-3.8257-.2462-1.4413-.48-2.8848-.733-4.3249-.15-.8556-.4466-1.6758-.65-2.5191-.0182-.0755-.0184-.1837-.1548-.2075.0361.3676.0816.7247.1039,1.0833a12.8687,12.8687,0,0,0,.2464,2.0387c.3127,1.3894.61,2.7823.9077,4.1751.3028,1.4177.5965,2.8373.8972,4.2554C47.0818,33.0664,47.1585,33.3644,47.2293,33.6636ZM45.637,18.85l-.0609.0151c.0576.2753.1088.5521.1743.8255a13.9987,13.9987,0,0,0,.38,1.6212q.8185,2.2214,1.6189,4.4493c.43,1.1926.8512,2.3883,1.2772,3.5823.0269.0755.0379.1661.15.2168a1.2141,1.2141,0,0,0-.0972-.5136c-.4139-1.3477-.8362-2.6928-1.253-4.04-.3976-1.2849-.7853-2.5729-1.19-3.8557a21.4232,21.4232,0,0,0-.9467-2.25C45.6807,18.88,45.655,18.8665,45.637,18.85Zm13.0471-2.8707c-.0544-.0934-.15-.1041-.2331-.1319q-1.3428-.4493-2.6866-.8951c-1.105-.3648-2.2141-.7174-3.316-1.0912a27.9751,27.9751,0,0,0-4.1023-1.1564c-.11-.0194-.2184-.0778-.35.01a2.3633,2.3633,0,0,0,.5986.2873,14.0024,14.0024,0,0,0,1.5011.629c1.1243.3453,2.2639.6405,3.397.957q2.4277.678,4.8557,1.3559C58.4556,15.9732,58.5623,16.0445,58.6841,15.9789Zm-.1252-4.6657a.8261.8261,0,0,0-.153-.046c-.7494-.0273-1.4993-.043-2.2486-.0659Q54.18,11.1406,52.2,11.11a13.7331,13.7331,0,0,0-2.4777-.0118c-.42.0695-.848.0855-1.2722.1285-.0557.0057-.1407-.0177-.1349.1172.3908.0566.7847.1192,1.18.1693a5.0466,5.0466,0,0,0,.924.0912c.7227-.0409,1.4478-.0526,2.17-.0658,1.41-.0258,2.8184-.108,4.2289-.106A11.5821,11.5821,0,0,0,58.5589,11.3132Zm-10.9053,2.14c.61.3186,1.1762.657,1.7763.918.8767.3813,1.7781.7056,2.668,1.0566,1.1907.47,2.3789.9455,3.5717,1.41a3.4945,3.4945,0,0,0,.7828.25.8041.8041,0,0,0-.3293-.215q-1.3018-.6022-2.607-1.1972c-.9521-.4359-1.9177-.8451-2.8534-1.3139a13.4926,13.4926,0,0,0-2.8114-.98C47.8018,13.3684,47.75,13.3567,47.6536,13.4531Zm.4355-2.9165a.12.12,0,0,0,.1253.0945,13.6119,13.6119,0,0,0,1.8627.0151c.8231-.0755,1.6415-.2045,2.4608-.319,1.5492-.2167,3.0968-.4441,4.651-.6238.066-.0077.1607.0044.1545-.1137a.6166.6166,0,0,0-.3458-.0242c-.7079.0631-1.4147.1391-2.123.1967-1.07.087-2.141.16-3.2112.2435a15.7953,15.7953,0,0,0-2.8074.3351A3.0065,3.0065,0,0,0,48.0891,10.5366Zm6.89-7.3321a1.0425,1.0425,0,0,0-.4068.123q-1.1971.5543-2.3921,1.113c-.9614.448-1.9125.92-2.8868,1.3375a15.5128,15.5128,0,0,0-2.511,1.3805c-.0672.0449-.1713.0637-.1744.1875a.6244.6244,0,0,0,.1132-.0112A12.6988,12.6988,0,0,0,49.274,6.3242c1.7933-.98,3.6038-1.9279,5.4061-2.8911C54.78,3.38,54.9021,3.3548,54.9791,3.2045ZM46.18,17.51l-.073.0578c.3138.6082.5532,1.2551.9253,1.832q1.9056,2.955,3.8311,5.8971c.0368.0565.05.1489.157.1328a.58.58,0,0,0-.1237-.32c-.9241-1.62-1.8537-3.2359-2.7755-4.8567a11.5735,11.5735,0,0,0-1.5165-2.2471C46.4558,17.8468,46.3207,17.6754,46.18,17.51Zm7.3756,4.64c-.2211-.2572-.3811-.4591-.5573-.6457q-1.6935-1.7929-3.3929-3.58c-.098-.1034-.2018-.2017-.295-.3091A8.0845,8.0845,0,0,0,47.7886,16.18c-.2351-.16-.455-.3425-.6847-.5109-.0549-.04-.0964-.133-.1921-.0734.006.0256.0044.0551.0182.0724a15.9633,15.9633,0,0,0,1.7737,2.0035c.2217.1986.4419.399.6575.6041q1.8995,1.8067,3.7975,3.6147A.7048.7048,0,0,0,53.5551,22.15ZM52.55,1.1082c-.1356.0083-.2011.1126-.284.1818-1.2012,1.0021-2.4073,1.9984-3.5987,3.012A14.9826,14.9826,0,0,0,46.8575,5.94c-.204.24-.4121.4776-.6259.725.05.0218.0655.0338.0712.03A10.234,10.234,0,0,0,48.0405,5.474c1.4365-1.3783,2.8873-2.7418,4.3308-4.1129C52.4413,1.2946,52.5462,1.2488,52.55,1.1082ZM53.0881,18.69a3.0787,3.0787,0,0,0-.7421-.5884c-.8843-.6092-1.7817-1.1993-2.6659-1.8087A8.9625,8.9625,0,0,0,47.2459,14.95c-.0686-.0208-.1343-.0879-.2443.0155.2668.2256.5243.4543.7935.6683a11.007,11.007,0,0,0,1.4173.877c1.0775.6178,2.1473,1.2491,3.226,1.8648A2.1146,2.1146,0,0,0,53.0881,18.69ZM47.4649,8.8263a4.4816,4.4816,0,0,0,1.448-.0223c1.6387-.4284,3.2731-.8735,4.9066-1.3212a1.9843,1.9843,0,0,0,.6535-.2219.3479.3479,0,0,0-.2737-.0094q-1.3708.2623-2.7415.5257c-.8752.17-1.7515.334-2.6238.5177A6.4971,6.4971,0,0,0,47.4649,8.8263Zm7.6194,4.6283c-.0729-.0236-.1449-.05-.2188-.07q-2.55-.6857-5.1016-1.3683a1.76,1.76,0,0,0-.382-.0592,7.0859,7.0859,0,0,1-.8517-.0554.4506.4506,0,0,0-.4237.0841c.3887.1429.7392.27,1.0879.4009a2.91,2.91,0,0,0,.4812.1472q2.4976.4782,4.9934.9671A.5173.5173,0,0,0,55.0843,13.4546ZM49.868.24c-.1028.1278-.2078.2538-.3079.3837-.7587.9834-1.52,1.9651-2.2734,2.9525A11.3512,11.3512,0,0,0,45.77,5.868c-.0284.0653-.1034.1242-.0382.225.1333-.0293.2038-.1453.2858-.2339a7.4969,7.4969,0,0,0,.9308-.9809c.9245-1.4364,1.8771-2.8546,2.8168-4.2813A.378.378,0,0,0,49.868.24ZM47.0487,8.0762a6.5959,6.5959,0,0,0,1.991-.4628c1.4957-.6808,3.0013-1.34,4.5211-1.9658.0853-.0351.1956-.0537.2269-.1694-.08-.0492-.1377-.012-.1964.0087-.2928.1029-.5849.2076-.8779.31-1.4292.5-2.8623.9888-4.2859,1.5043A5.1834,5.1834,0,0,0,47.0487,8.0762Zm8.0723.4346-.009-.0842c-.3414.0448-.6834.0855-1.024.1352-1.1761.1717-2.35.36-3.5281.5156a12.7607,12.7607,0,0,0-2.4093.5724c-.0535.0181-.1269.0281-.1254.1526a10.28,10.28,0,0,0,1.8855-.1032c1.0039-.2482,2.017-.4589,3.0257-.6875C53.665,8.8465,54.3929,8.6778,55.121,8.5108ZM51.2269,22.1186c-.0738-.1074-.1-.1507-.1314-.1905q-1.3968-1.7889-2.7933-3.578A10.2132,10.2132,0,0,0,47.04,16.9338a1.0733,1.0733,0,0,0-.4816-.3161,6.9372,6.9372,0,0,0,.7162,1.2617c.4747.5466.9713,1.074,1.4578,1.61q1.0816,1.1925,2.1635,2.3846A.6463.6463,0,0,0,51.2269,22.1186ZM52.1536,16.7c-.0284-.1075-.1079-.1349-.1693-.1721-1.1726-.71-2.3421-1.4257-3.5244-2.1194a2.97,2.97,0,0,0-1.036-.3412,2.884,2.884,0,0,0,.871.8354q1.7137.8219,3.4272,1.6445A.9264.9264,0,0,0,52.1536,16.7Zm1.22-14.4833c-.1669-.0354-.235.0595-.3146.1107-.7727.4963-1.5353,1.0085-2.3145,1.4942A7.7067,7.7067,0,0,0,48.9438,5.22c-.0429.0491-.15.0755-.0829.1786a3.7994,3.7994,0,0,0,1.3522-.649q1.3055-1.04,2.6121-2.0778C53.0021,2.53,53.1737,2.3829,53.374,2.2168Zm-.3575,17.6876c-.693-.5573-1.3893-1.1107-2.0779-1.6735a5.7589,5.7589,0,0,0-1.3366-.9119c-.0638-.0274-.1281-.1013-.216.0061a5,5,0,0,0,.8825.8505c.6045.3973,1.1942.8173,1.8017,1.21A2.8726,2.8726,0,0,0,53.0165,19.9044Z" fill="#b78509"/><path d="M38.9231,50.767l-10.98-28.3949c-.1574.01-.172.1161-.2123.1909q-.4981.9237-.99,1.8506-2.04,3.8681-4.0774,7.7371Q21.4648,34.4188,20.252,36.68c-.6545,1.2219-1.3172,2.44-1.9767,3.6588a2.8111,2.8111,0,0,0-.307.71,1.7176,1.7176,0,0,0,.8841,2.0011,3.4182,3.4182,0,0,0,1.5191.4325c.3222.0136.6455.0025.9178.0025a.2789.2789,0,0,1,.1277.2829q-.0023,2.3331-.0087,4.6663a1.0177,1.0177,0,0,1-.0232.1643.4617.4617,0,0,1-.0459.0485.0879.0879,0,0,1-.0351.0151,1.0023,1.0023,0,0,1-.1531.02Q10.6518,48.6777.1525,48.6705A1.036,1.036,0,0,1,0,48.6408L1.3016,43.51a5.7978,5.7978,0,0,0,1.1567-.1717,4.2486,4.2486,0,0,0,1.7828-.9875,14.6038,14.6038,0,0,0,1.371-1.6358,21.72,21.72,0,0,0,1.9162-3.0576Q9.33,34.457,11.1259,31.2535q1.676-2.9812,3.3535-5.9617c.8232-1.4692,1.6349-2.9448,2.4567-4.4148,1.0114-1.8093,2.03-3.6145,3.0419-5.4235.7906-1.4134,1.5906-2.8219,2.3552-4.2493a6.0786,6.0786,0,0,0,.5432-1.7784,6.6934,6.6934,0,0,0-.2915-3.8167,4.2441,4.2441,0,0,0-1.347-1.8215,2.5616,2.5616,0,0,0-1.4071-.5719c.0818-.1952.15-.3728.23-.5454.3624-.7887.7341-1.5733,1.0884-2.3656a.4441.4441,0,0,1,.4694-.3025Q27.7234.0117,33.8284,0a.4583.4583,0,0,1,.4943.3219c.53,1.21,1.0827,2.4107,1.6261,3.6152.2238.4959.4388.9959.6695,1.4886a.4538.4538,0,0,1-.0153.4367c-.7644,1.5446-1.5163,3.0953-2.287,4.6366a.8614.8614,0,0,0-.0493.7335q1.3344,3.8564,2.6446,7.7211c.46,1.3487.9111,2.7,1.3677,4.05.3652,1.08.7277,2.1608,1.1023,3.2374a2.1194,2.1194,0,0,1,.1.9492c-.0521.5006-.0252,1.0095-.03,1.5149-.0055.5962.02,1.1943-.0192,1.7881-.0838,1.2551-.0111,2.5132-.0851,3.7659-.0581.9838-.06,1.9679-.07,2.95-.01.9579-.0592,1.9141-.0761,2.8714-.0259,1.463-.0258,2.9274-.0825,4.3889-.0466,1.2044-.0128,2.4094-.0746,3.6117C38.9982,48.9736,38.9968,49.866,38.9231,50.767Zm-4.3588-17.51a.5122.5122,0,0,0,.1643-.3369c.2707-1.2767.5386-2.554.8132-3.83.3127-1.4531.6342-2.9044.9463-4.3576.1194-.5561.249-1.1118.3276-1.6742.082-.5875.11-1.1827.1578-1.7749a1.0213,1.0213,0,0,0-.03-.4627,1.955,1.955,0,0,0-.2129.6857c-.1877.6857-.4113,1.3638-.534,2.065-.3007,1.7185-.5832,3.44-.878,5.16-.2184,1.2738-.4461,2.546-.6659,3.82C34.6156,32.7648,34.5982,32.9813,34.5643,33.2575Zm-1.8461-3.6354a.5474.5474,0,0,0,.2359-.3506c.1021-.307.2014-.6152.3112-.9195q.6466-1.7905,1.2991-3.579c.3052-.84.6213-1.6756.9125-2.52a13.717,13.717,0,0,0,.5509-1.6568c.0712-.3422.15-.683.2135-1.0267a3.9893,3.9893,0,0,0,.1334-.7895.0869.0869,0,0,0-.109.056c-.2848.6668-.6067,1.3209-.8423,2.0048-.3753,1.0891-.6946,2.1976-1.0344,3.2988q-.6759,2.19-1.3463,4.3816C32.9307,28.8868,32.8262,29.255,32.7182,29.6221ZM34.1754,12.18a1.8029,1.8029,0,0,0-.6529.0916,16.2735,16.2735,0,0,0-1.59.3608c-1.4068.4442-2.802.9251-4.2032,1.3873-1.1429.377-2.2884.746-3.4314,1.1228-.3159.1041-.6268.2234-.9949.3555a.5718.5718,0,0,0,.4261-.0326C25.587,14.95,27.4468,14.4409,29.3,13.91a22.2118,22.2118,0,0,0,4.056-1.3116A3.8546,3.8546,0,0,0,34.1754,12.18Zm-10.48-1.3381c.6.0656,1.2066.0647,1.8109.105.9024.06,1.8081.02,2.7131.0776.9655.0616,1.9369.0118,2.904.0867a10.2082,10.2082,0,0,0,2.2737-.1948c.1391-.0205.3065.0209.43-.1086-.1033-.1219-.2278-.0894-.337-.0964-.1936-.0123-.3857-.0315-.5785-.052-.4362-.0466-.8751-.07-1.3133-.0958-.3236-.0191-.6459.05-.966.0483-1.5007-.0073-2.9987.0945-4.4988.0961A20.7482,20.7482,0,0,0,23.6954,10.8421ZM25.84,16.5184c.0472.0459.0974.0249.1448.0066q.7607-.2944,1.5208-.5908c1.1459-.4478,2.2929-.893,3.4368-1.3457a19.4536,19.4536,0,0,0,3.0116-1.3437,2.6888,2.6888,0,0,0,.5454-.358,1.0925,1.0925,0,0,0-.4691.08,11.434,11.434,0,0,0-1.8164.56q-3.103,1.4376-6.2129,2.86C25.9353,16.4163,25.8483,16.42,25.84,16.5184Zm.39-11.6353c.2132.0867.4248.1779.64.26,1.85.7022,3.6984,1.4069,5.5513,2.1a7.3053,7.3053,0,0,0,1.2862.43c.4073.0713.8122.1561,1.2191.23.0647.0117.15.06.1919-.0449-.0178-.0229-.0289-.052-.0491-.0611a17.3341,17.3341,0,0,0-1.772-.7813c-1.86-.5937-3.7239-1.1759-5.587-1.76A6.013,6.013,0,0,0,26.23,4.8831ZM24.7807,9.1a1.4894,1.4894,0,0,0,.707.1631c1.3192.1786,2.6377.363,3.9569.5418.8326.1128,1.669.2015,2.4984.3342a12.6423,12.6423,0,0,0,2.1471-.0366,1,1,0,0,0-.6011-.2,11.5639,11.5639,0,0,0-1.8343-.3055c-.3468-.0135-.6968-.04-1.0446-.07-.8242-.0695-1.6483-.1409-2.4726-.2086-.863-.0709-1.7282-.1126-2.5889-.2147A7.1355,7.1355,0,0,0,24.7807,9.1Zm2.3121-5.8549c.0759.047.15.0979.2282.14q1.1775.6349,2.3568,1.267c.9012.4805,1.8014.9634,2.7085,1.4327a12.1722,12.1722,0,0,0,1.7.8418c.2328.0777.4629.165.6989.2312a4.3512,4.3512,0,0,0,.8065.2038c-.1133-.0893-.1509-.1228-.1921-.1509a21.0465,21.0465,0,0,0-3.1725-1.7083c-1.3885-.6319-2.7716-1.2757-4.1609-1.9058A2.9732,2.9732,0,0,0,27.0928,3.2452Zm8.7826,14.3334-.07-.0461c-.1318.1567-.2684.31-.3946.4708a10.5071,10.5071,0,0,0-.8827,1.1312c-.476.8161-.9362,1.6415-1.4056,2.4616q-1.0128,1.7692-2.0286,3.5366c-.0841.1467-.1615.2973-.2787.5142a.5494.5494,0,0,0,.2584-.2436q.9009-1.3827,1.8018-2.7656c.72-1.1069,1.455-2.205,2.1536-3.3255A12.6408,12.6408,0,0,0,35.8754,17.5786ZM28.6792,21.814c.1611-.0055.2148-.1048.2859-.172.4791-.4534.948-.9168,1.4342-1.3633.781-.7173,1.5261-1.4735,2.3073-2.19a20.0073,20.0073,0,0,0,2.4364-2.6c.0405-.0533.1345-.0965.0556-.2106q-.5274.3951-1.0508.7874a4.0709,4.0709,0,0,0-.49.3782c-.3965.4071-.7734.8332-1.1634,1.2467q-1.7035,1.8061-3.4112,3.6084A1.9677,1.9677,0,0,0,28.6792,21.814Zm7.363-15.5629a11.3222,11.3222,0,0,0-1.9906-2.0487C33.32,3.6065,32.6,2.9956,31.8775,2.3891Q30.823,1.5044,29.7713.6165C29.7392.59,29.6984.5327,29.6455.6a1.0251,1.0251,0,0,0,.2521.2907q.6056.5715,1.2112,1.143c1.0029.9526,2.0171,1.8938,3.0022,2.8645A10.237,10.237,0,0,0,36.0422,6.2511ZM29.7851,2.557a.3241.3241,0,0,0,.1458.2047c1.1376.8572,2.2791,1.7094,3.4119,2.5731A8.3072,8.3072,0,0,0,35.659,6.73c.06.02.1294.1071.1894.0048a11.4164,11.4164,0,0,0-2.4539-1.8893c-.75-.4865-1.4958-.9791-2.253-1.4539A14.4668,14.4668,0,0,0,29.7851,2.557Zm4.38,6.6583a11.41,11.41,0,0,0-1.5177-.45q-2.5463-.3963-5.0968-.7641a1.1832,1.1832,0,0,0-.4747-.0368.1763.1763,0,0,0,.14.1054c1.5516.3474,3.1076.6762,4.6525,1.0509a7.3893,7.3893,0,0,0,1.9978.1969A.3187.3187,0,0,0,34.1648,9.2153ZM27.8189,6.98c.59.1678,1.12.3258,1.6536.4688,1.1479.3075,2.3026.591,3.4451.9172a6.1919,6.1919,0,0,0,1.6871.1869c.0638.0005.1549.0378.1917-.0628a.3945.3945,0,0,0-.1992-.1152,9.9809,9.9809,0,0,0-2.0806-.5938c-1.4619-.26-2.9165-.5608-4.3743-.8443A.356.356,0,0,0,27.8189,6.98ZM33.66,11.5a5.9622,5.9622,0,0,0-1.6319.1184c-1.706.433-3.4009.91-5.0995,1.3717a.3512.3512,0,0,0-.2246.116.5818.5818,0,0,0,.3622,0c.52-.1031,1.04-.2081,1.5606-.3083,1.1688-.2248,2.34-.4387,3.5063-.6743a7.3225,7.3225,0,0,0,1.4581-.5241C33.61,11.5907,33.619,11.56,33.66,11.5ZM34.69,14.7868a5.2792,5.2792,0,0,0-1.5049.579q-.7545.5133-1.5087,1.0267-1.4288.9713-2.8572,1.9426c-.0759.0517-.1777.088-.1887.24.2228-.1215.4171-.2227.6068-.3318,1.29-.7416,2.575-1.4914,3.8694-2.2249A7.71,7.71,0,0,0,34.69,14.7868Zm.6788,1.5852a.3066.3066,0,0,0-.0975.0351,9.2513,9.2513,0,0,0-1.4039,1.4412c-.926,1.1958-1.8675,2.38-2.798,3.5718a1.6771,1.6771,0,0,0-.3091.4629.7136.7136,0,0,0,.3027-.2417c1.0291-1.126,2.0484-2.2611,3.0869-3.3782a7.5344,7.5344,0,0,0,1.1975-1.707C35.3747,16.5036,35.427,16.4481,35.3692,16.372ZM36.3,5.64a8.6652,8.6652,0,0,0-.5419-1.209c-.75-1.0876-1.5116-2.1679-2.2689-3.2508-.0548-.0784-.0935-.1767-.2241-.2071a.5.5,0,0,0,.0252.13q1.0186,1.8129,2.0417,3.6231A3.7862,3.7862,0,0,0,36.3,5.64Zm-1.8616,8.2545a5.0061,5.0061,0,0,0-1.2492.4448c-1.0832.6619-2.1755,1.3089-3.2635,1.9631-.1.06-.21.1126-.2537.2407a2.8508,2.8508,0,0,0,.5055-.2014c1.0377-.5022,2.0633-1.032,3.1178-1.496A4.2374,4.2374,0,0,0,34.4379,13.8944Zm.3961,6.6233a4.8484,4.8484,0,0,0-.6635,1.0841c-.4813,1.1563-.9482,2.3187-1.4187,3.4795-.0258.0636-.0893.1338-.0068.2037.062-.0079.086-.0574.1081-.1023.5819-1.1813,1.1726-2.3585,1.7373-3.548A2.7227,2.7227,0,0,0,34.834,20.5177Zm-5.7087-8.7908a3.2432,3.2432,0,0,0-1.4189-.1386c-.7669.11-1.5331.2242-2.303.3144a1.4773,1.4773,0,0,0-.7588.18c.2622.0985.4746-.0163.69-.0112.854.02,1.7032-.0852,2.5562-.0938A5.4888,5.4888,0,0,0,29.1253,11.7269Z" fill="#b78509"/><path d="M40.9648,56.07c-.1956-.4734-.3654-.8778-.53-1.2842-.2042-.5042-.4019-1.011-.6069-1.5149a1.5631,1.5631,0,0,1-.1222-.6426c.0322-1.1521.0583-2.3043.0865-3.4565.0012-.0518.0044-.1037.0033-.1555-.0321-1.6324.0611-3.2629.0986-4.8938.0247-1.0749-.0129-2.1521.0589-3.2244.0989-1.476.0062-2.9543.0823-4.4283.0715-1.386.0231-2.7729.0813-4.1568.0408-.9711.0044-1.9442.0779-2.9115.0759-.9976.0062-1.9948.06-2.9906.1-1.8512.046-3.7051.1021-5.5564.0227-.75.017-1.5025.0641-2.2509.0816-1.2947.0054-2.5917.0813-3.8844.041-.6992.03-1.3977.0583-2.096a2.15,2.15,0,0,1,.4164-1.2238.5923.5923,0,0,1,.2766.3572,2.6015,2.6015,0,0,1,.23.9379c.0282.8022.0458,1.6047.07,2.4071.0552,1.8391.0507,3.68.1067,5.5181.0336,1.1009.0019,2.2027.0627,3.3009.0544.9841.0132,1.97.0812,2.9508.087,1.2561.0029,2.513.0728,3.7677.0879,1.5792.0124,3.1621.0889,4.74.0671,1.3862.01,2.7722.0766,4.156.0336.6988.0143,1.4.0669,2.0953.0978,1.2945.0192,2.59.0716,3.8842.0628,1.5517.05,3.1054.0923,4.6573.02.75.0464,1.5005.0565,2.2512a1.2493,1.2493,0,0,1-.0779.4947q-.5874,1.46-1.1691,2.9223C41.0591,55.8978,41.0252,55.9523,40.9648,56.07Z" fill="#b78509"/><path d="M7.4172,51.6266H5.56a.0952.0952,0,0,0-.09.063L4.27,55.0094,3.0752,51.69a.0954.0954,0,0,0-.09-.0632H1.1248a.0953.0953,0,0,0-.0953.0954v.4507a.0953.0953,0,0,0,.0953.0954h.4779v4.469H1.1248a.0953.0953,0,0,0-.0953.0954v.4507a.0953.0953,0,0,0,.0953.0954H2.6937a.0954.0954,0,0,0,.0954-.0954v-.4507a.0954.0954,0,0,0-.0954-.0954H2.2158V53.138L3.4219,56.5a.0955.0955,0,0,0,.09.0631H4.276a.0955.0955,0,0,0,.09-.0629l1.2128-3.3643v3.6015H5.1007a.0953.0953,0,0,0-.0953.0954v.4507a.0953.0953,0,0,0,.0953.0954H7.4172a.0954.0954,0,0,0,.0954-.0954v-.4507a.0954.0954,0,0,0-.0954-.0954H6.936v-4.469h.4812a.0954.0954,0,0,0,.0954-.0954V51.722A.0954.0954,0,0,0,7.4172,51.6266Z" fill="#b78509"/><path d="M10.3137,51.6266h-2.32a.0953.0953,0,0,0-.0953.0954v.4507a.0953.0953,0,0,0,.0953.0954h.4813v4.469H7.9938a.0953.0953,0,0,0-.0953.0954v.4507a.0953.0953,0,0,0,.0953.0954h2.32a.0953.0953,0,0,0,.0953-.0954v-.4507a.0953.0953,0,0,0-.0953-.0954H9.8291v-4.469h.4846a.0953.0953,0,0,0,.0953-.0954V51.722A.0953.0953,0,0,0,10.3137,51.6266Z" fill="#b78509"/><path d="M15.9959,51.6266H14.42a.0953.0953,0,0,0-.0953.0954v.4507a.0953.0953,0,0,0,.0953.0954h.4779v3.0851l-2.545-3.6854a.0954.0954,0,0,0-.0784-.0412h-1.408a.0954.0954,0,0,0-.0954.0954v.4507a.0954.0954,0,0,0,.0954.0954h.4813v4.469h-.4813a.0954.0954,0,0,0-.0954.0954v.4507a.0954.0954,0,0,0,.0954.0954h1.5756a.0954.0954,0,0,0,.0954-.0954v-.4507a.0954.0954,0,0,0-.0954-.0954h-.4779V53.5716L14.55,57.3372a.0951.0951,0,0,0,.0786.0414h.7911a.0954.0954,0,0,0,.0954-.0954V52.2681h.4812a.0954.0954,0,0,0,.0954-.0954V51.722A.0954.0954,0,0,0,15.9959,51.6266Z" fill="#b78509"/><path d="M18.8488,51.6266h-2.32a.0953.0953,0,0,0-.0954.0954v.4507a.0953.0953,0,0,0,.0954.0954H17.01v4.469H16.529a.0953.0953,0,0,0-.0954.0954v.4507a.0953.0953,0,0,0,.0954.0954h2.32a.0953.0953,0,0,0,.0953-.0954v-.4507a.0953.0953,0,0,0-.0953-.0954h-.4846v-4.469h.4846a.0953.0953,0,0,0,.0953-.0954V51.722A.0953.0953,0,0,0,18.8488,51.6266Z" fill="#b78509"/><path d="M22.0578,53.8508l-.6759-.2045a1.7147,1.7147,0,0,1-.7247-.3461.6937.6937,0,0,1-.1341-.4645.61.61,0,0,1,.1941-.4987.9383.9383,0,0,1,.6123-.17,1.1289,1.1289,0,0,1,.7776.2417,1.3009,1.3009,0,0,1,.3552.7841.0954.0954,0,0,0,.0942.0805h.3822a.0953.0953,0,0,0,.0953-.0954V51.9492a.0954.0954,0,0,0-.0633-.09,6.1341,6.1341,0,0,0-.9008-.25,4.4909,4.4909,0,0,0-.8409-.0836,1.7489,1.7489,0,0,0-1.314.489,1.7986,1.7986,0,0,0,.7934,3.08l.6735.2046a1.5071,1.5071,0,0,1,.6425.3189.67.67,0,0,1,.1417.458.7255.7255,0,0,1-.213.5734.9454.9454,0,0,1-.647.1954,1.17,1.17,0,0,1-.8361-.2829,1.4717,1.4717,0,0,1-.387-.88.0955.0955,0,0,0-.0944-.0817h-.3822a.0952.0952,0,0,0-.0953.0953V57.015a.0955.0955,0,0,0,.0583.0879,5.0112,5.0112,0,0,0,.9021.2885,4.3013,4.3013,0,0,0,.8949.0952,2.0593,2.0593,0,0,0,1.45-.4634,1.7622,1.7622,0,0,0,.5-1.3491,2.07,2.07,0,0,0-.2983-1.1827A1.74,1.74,0,0,0,22.0578,53.8508Z" fill="#b78509"/><path d="M28.1281,51.6266H23.6628a.0954.0954,0,0,0-.0954.0954v1.3894a.0953.0953,0,0,0,.0954.0953h.4123a.0953.0953,0,0,0,.0954-.0953v-.7837h1.0429v4.4094h-.5013a.0954.0954,0,0,0-.0954.0954v.4507a.0954.0954,0,0,0,.0954.0954h2.3668a.0953.0953,0,0,0,.0953-.0954v-.4507a.0953.0953,0,0,0-.0953-.0954h-.5081V52.3277h1.053v.7837a.0952.0952,0,0,0,.0954.0953h.4089a.0953.0953,0,0,0,.0954-.0953V51.722A.0954.0954,0,0,0,28.1281,51.6266Z" fill="#b78509"/><path d="M33.3612,56.7371h-.3995l-.6325-1.4914a1.5258,1.5258,0,0,0-.3447-.528.9212.9212,0,0,0-.1777-.13,1.2971,1.2971,0,0,0,.9759-1.3722,1.5151,1.5151,0,0,0-.4585-1.175,1.836,1.836,0,0,0-1.2761-.4141H28.4768a.0954.0954,0,0,0-.0954.0954v.4507a.0954.0954,0,0,0,.0954.0954h.4812v4.469h-.4812a.0954.0954,0,0,0-.0954.0954v.4507a.0954.0954,0,0,0,.0954.0954h2.32a.0954.0954,0,0,0,.0954-.0954v-.4507a.0954.0954,0,0,0-.0954-.0954H30.312V54.89h.089a.4572.4572,0,0,1,.3371.116,2.0316,2.0316,0,0,1,.3329.6345l.7207,1.68a.0957.0957,0,0,0,.0877.0578h1.4818a.0953.0953,0,0,0,.0953-.0954v-.4507A.0953.0953,0,0,0,33.3612,56.7371Zm-3.0492-4.469h.3a.695.695,0,0,1,.5765.2443,1.16,1.16,0,0,1,.2065.7442,1.1756,1.1756,0,0,1-.2069.7485.6906.6906,0,0,1-.5761.2476h-.3Z" fill="#b78509"/><path d="M37.5818,51.6266H36.2912a.0954.0954,0,0,0-.0954.0954v.4507a.0954.0954,0,0,0,.0954.0954h.2981l-.8582,1.8026-.861-1.8026h.3483a.0954.0954,0,0,0,.0954-.0954V51.722a.0954.0954,0,0,0-.0954-.0954H33.06a.0954.0954,0,0,0-.0954.0954v.4507a.0954.0954,0,0,0,.0954.0954h.322l1.3057,2.7348v1.7342h-.5114a.0953.0953,0,0,0-.0953.0954v.4507a.0953.0953,0,0,0,.0953.0954h2.38a.0954.0954,0,0,0,.0954-.0954v-.4507a.0954.0954,0,0,0-.0954-.0954h-.5114V54.8092L37.26,52.2681h.322a.0954.0954,0,0,0,.0954-.0954V51.722A.0954.0954,0,0,0,37.5818,51.6266Z" fill="#b78509"/><path d="M46.6533,51.5261a2.3088,2.3088,0,0,0-1.855.8031,3.8749,3.8749,0,0,0-.0014,4.3562,2.5474,2.5474,0,0,0,3.7095,0,3.8859,3.8859,0,0,0,.0019-4.3581A2.3047,2.3047,0,0,0,46.6533,51.5261Zm.77,4.7743a.8143.8143,0,0,1-1.5387-.0054,6.0023,6.0023,0,0,1,0-3.5773.8144.8144,0,0,1,1.5387-.0056,6.0788,6.0788,0,0,1,0,3.5883Z" fill="#b78509"/><path d="M53.65,51.6266H49.6336a.0955.0955,0,0,0-.0954.0954v.4507a.0955.0955,0,0,0,.0954.0954h.4812v4.469h-.4812a.0955.0955,0,0,0-.0954.0954v.4507a.0955.0955,0,0,0,.0954.0954h2.4539a.0955.0955,0,0,0,.0954-.0954v-.4507a.0955.0955,0,0,0-.0954-.0954h-.612V54.6184h.9525v.6124a.0954.0954,0,0,0,.0953.0954h.4124a.0954.0954,0,0,0,.0953-.0954v-1.922a.0954.0954,0,0,0-.0953-.0954h-.4124a.0954.0954,0,0,0-.0953.0954v.6124h-.9525V52.3277H53.142v.7054a.0954.0954,0,0,0,.0954.0954H53.65a.0954.0954,0,0,0,.0954-.0954V51.722A.0955.0955,0,0,0,53.65,51.6266Z" fill="#b78509"/><path d="M62.43,51.6266H60.5724a.0955.0955,0,0,0-.09.063l-1.2,3.32-1.1946-3.32a.0954.0954,0,0,0-.09-.0632H56.1372a.0955.0955,0,0,0-.0954.0954v.4507a.0955.0955,0,0,0,.0954.0954h.4779v4.469h-.4779a.0955.0955,0,0,0-.0954.0954v.4507a.0955.0955,0,0,0,.0954.0954h1.5689a.0954.0954,0,0,0,.0953-.0954v-.4507a.0954.0954,0,0,0-.0953-.0954h-.4779V53.138L58.4343,56.5a.0956.0956,0,0,0,.09.0631h.7643a.0955.0955,0,0,0,.09-.0629l1.2128-3.3643v3.6015h-.4779a.0955.0955,0,0,0-.0954.0954v.4507a.0955.0955,0,0,0,.0954.0954H62.43a.0954.0954,0,0,0,.0953-.0954v-.4507a.0954.0954,0,0,0-.0953-.0954h-.4813v-4.469H62.43a.0954.0954,0,0,0,.0953-.0954V51.722A.0954.0954,0,0,0,62.43,51.6266Z" fill="#b78509"/><path d="M67.5855,56.7371h-.36l-1.678-5.0453a.0957.0957,0,0,0-.0905-.0652H64.736a.0954.0954,0,0,0-.0905.0654l-1.6747,5.0451h-.2965a.0955.0955,0,0,0-.0954.0954v.4507a.0955.0955,0,0,0,.0954.0954h1.3376a.0954.0954,0,0,0,.0953-.0954v-.4507a.0954.0954,0,0,0-.0953-.0954h-.4042l.3152-.9453h1.5517l.31.9453h-.3076a.0954.0954,0,0,0-.0954.0954v.4507a.0954.0954,0,0,0,.0954.0954h2.1086a.0955.0955,0,0,0,.0954-.0954v-.4507A.0955.0955,0,0,0,67.5855,56.7371ZM65.2649,55.15H64.1337l.5684-1.7256Z" fill="#b78509"/><path d="M72.2989,54.5879H70.6764a.0955.0955,0,0,0-.0954.0954V55.13a.0955.0955,0,0,0,.0954.0954h.4477V56.61a1.1577,1.1577,0,0,1-.33.1687,1.42,1.42,0,0,1-.44.0662.9392.9392,0,0,1-.8933-.54,4.0415,4.0415,0,0,1-.302-1.7972,3.8988,3.8988,0,0,1,.3147-1.8028.9976.9976,0,0,1,.9443-.5379,1.0822,1.0822,0,0,1,.8246.3,1.98,1.98,0,0,1,.4258,1.0184.0954.0954,0,0,0,.0939.0782h.3821a.0954.0954,0,0,0,.0954-.0953V52.1019a.0958.0958,0,0,0-.0518-.0849,4.6325,4.6325,0,0,0-.96-.3688,3.95,3.95,0,0,0-.974-.1221A2.3756,2.3756,0,0,0,68.36,52.33a3.7988,3.7988,0,0,0,0,4.3521,2.3756,2.3756,0,0,0,1.8945.8042,3.92,3.92,0,0,0,1.06-.1451A4.56,4.56,0,0,0,72.3462,56.9a.0952.0952,0,0,0,.0481-.0827V54.6833A.0954.0954,0,0,0,72.2989,54.5879Z" fill="#b78509"/><path d="M75.3965,51.6266h-2.32a.0955.0955,0,0,0-.0954.0954v.4507a.0955.0955,0,0,0,.0954.0954h.4812v4.469h-.4812a.0955.0955,0,0,0-.0954.0954v.4507a.0955.0955,0,0,0,.0954.0954h2.32a.0955.0955,0,0,0,.0954-.0954v-.4507a.0955.0955,0,0,0-.0954-.0954h-.4846v-4.469h.4846a.0955.0955,0,0,0,.0954-.0954V51.722A.0955.0955,0,0,0,75.3965,51.6266Z" fill="#b78509"/><path d="M80.3547,55.6363a.0943.0943,0,0,0-.0738-.0352h-.6a.0951.0951,0,0,0-.0935.0763,1.8517,1.8517,0,0,1-.3889.8893.8589.8589,0,0,1-.6675.2785.948.948,0,0,1-.8981-.5455,5.3809,5.3809,0,0,1,0-3.5848,1.0208,1.0208,0,0,1,1.6431-.2312,1.9957,1.9957,0,0,1,.4049,1.0011.095.095,0,0,0,.0938.08h.3822a.0953.0953,0,0,0,.0953-.0953V52.1019a.0956.0956,0,0,0-.0525-.0853,5.15,5.15,0,0,0-.936-.368,3.27,3.27,0,0,0-.86-.1225,2.3492,2.3492,0,0,0-1.8781.81,3.7818,3.7818,0,0,0,0,4.34,2.3493,2.3493,0,0,0,1.8781.81,1.8762,1.8762,0,0,0,1.3026-.4418,2.4,2.4,0,0,0,.6682-1.329A.0957.0957,0,0,0,80.3547,55.6363Z" fill="#b78509"/></g></g></svg>