<svg xmlns="http://www.w3.org/2000/svg" width="1542.964" height="719.9664" viewBox="0 0 1542.964 719.9664"><title>MPS2</title><g id="Layer_2" data-name="Layer 2"><g id="Layer_2-2" data-name="Layer 2"><polygon points="64.632 390.195 257.764 320.98 300.329 402.516 176.269 454.945 85.843 453.829 63.516 409.174 64.632 390.195" fill="#fff"/><path id="path6716" d="M493.03,420.1239l.1645-.4937.1646-.3291.1645-.4936v-.4938l.1646-.4937.1645-.4936.1646-.3291.1645-.4938.1646-.4936.1646-.4937.3291-.4937.1646-.3291.1645-.4937.1646-.1645v-.1646l.1645-.1646.1646-.3291v-.1646l.1645-.1645c2.7976-3.95,5.4306-8.5572,9.051-10.6965,3.2912-2.3039,3.9494-6.4179,5.595-13.1649.4937-11.8484,2.1394-12.5067,2.633-13.8232a47.45,47.45,0,0,1,4.114-10.2028c1.9748-3.62,4.4432-10.8611,3.62-13a66.6086,66.6086,0,0,1-5.1013-13c-2.4684-14.8106-.4937-19.7474,2.633-24.3551,4.4431-6.747,7.2406-10.861,11.8484-13.165,2.1392-.9873,1.81-5.1013,1.481-7.8988-1.1519-7.2408.9875-6.5825,2.1393-10.3675a48.8657,48.8657,0,0,0,2.3039-10.0382,51.0216,51.0216,0,0,0-.9874-6.4179c-.4936-2.962-.9873-7.2407-.1645-8.8863,1.3165-2.3038,2.633-4.9368,2.4684-7.2407,0-.9873,1.1519-2.4684,1.6457-4.114a29.3506,29.3506,0,0,0,1.4809-7.899c0-.8228.9874-6.5824,1.6457-10.6964,1.481-8.0636.4937-12.0131-.1646-14.3169-.6582-3.2912-2.6329-4.9368-2.4684-6.0888,0-1.4811-.3291-6.0887-.6582-8.8863-.1647-1.6456,6.5824-11.0256,7.8989-12.8358.4937-.9873-.4937-7.4052-.4937-8.8863,0-1.3165-1.6456-8.0635-1.6456-9.8737,0-1.9747.3291-3.1266.3291-4.9368q-.2469-2.9621-.4937-8.3926a121.0074,121.0074,0,0,1,.3291-15.14c0-1.481-2.4683-1.481-6.9115-3.7849s-13.9878-11.8484-15.6334-12.5066c-1.6456-.8229-9.38-2.1394-13.6585-2.1394-3.95,0-12.6713,1.9747-16.6207,2.633-3.7849.4937-8.5572-1.1519-10.8612-1.81s-6.4178-1.81-8.228-1.4811c-5.266.4936-13.8231.6582-17.4435,0-4.2786-.8229-7.8989-1.9747-10.0382-3.2912-1.81-1.3166-2.4684-.8229-4.7723-2.9622-1.81-1.6456-1.9747-2.633-3.4558-2.7976-1.3165-.3291-13.8232-1.3164-16.127-3.62s-5.43-6.2533-7.2407-14.975c-1.81-8.3927,1.1519-14.3169,4.2786-15.9625,4.9368-2.4684,11.6838-6.5825,15.3041-6.9116,1.6457-.1646-1.9747-6.5824-3.7848-12.6712-.8228-2.3039-4.2787-1.81-12.1775-10.5319-3.4558-3.95-9.7092-11.6839-11.19-14.3169-1.6457-2.633.1645-4.114-1.4811-4.2786a123.9171,123.9171,0,0,1-20.4055-1.81c-11.19-2.1394-18.431-5.266-21.8868-6.2534-3.2912-.9874-11.19-3.7849-13.6586-4.6077s-7.4052-2.7976-11.8484-4.4432C332.7472,8.72,330.7725,5.2646,328.6332,5.1c-2.3039,0-10.532,5.76-20.4057,7.0762s-13.3294-.9874-18.5954-1.81c-5.595-.8228-10.6964-1.81-17.2789-2.3039-6.4179-.4936-25.507,2.9622-28.7983,3.4558-3.2912.3291-7.8989,2.633-12.0129,2.633-2.6331,0-17.279,4.2786-19.7474,4.7723-2.633.4937-6.2534-.8228-8.0635-.1645-2.9622.8227-7.2408,1.81-8.7218,2.1392-1.1519.3291-20.4056,6.747-23.8614,7.4053a115.92,115.92,0,0,0-13.6586,4.2786c-2.9621,1.3165-4.7723,3.2912-7.2407,4.9368-8.2281,5.76-10.5319,5.9243-14.4813,7.2407-2.6331.8228-3.95,1.81-9.5446,2.1394-5.76.3291-7.4054,1.481-7.4054,2.3038,0,3.95-1.3165,11.8484.1646,12.5067,3.1267,1.6456,10.8611,14.3168,11.19,22.38a80.7878,80.7878,0,0,1-.9874,17.279c-.3291,2.3038-.6582,3.62-1.81,4.9368-.9873,1.3165-7.8988,3.4558-12.0129,3.9494-4.2787.1646-6.4179.3291-21.393-3.62-11.6839-2.9621-12.6713-4.1141-14.1523-5.76-1.1519-1.81-4.114-3.2912-6.0887-4.2785-2.1394-.9874-4.2787-1.4811-6.4179-3.4558-1.9748-1.81-11.0257,2.6329-23.5323,3.62-2.3039.1646-6.5824,7.7345-14.3169,11.6839-6.0888,2.9621-8.8863,4.1141-10.8611,5.595-5.595,3.785-12.1775,4.4432-11.3547,6.0888,1.3165,3.1267-1.1519,4.7723-.3291,12.5067,1.152,13-1.81,19.5829-1.81,25.8362-.1645,3.1266,3.4558,6.9116,5.1014,8.2281a23.4685,23.4685,0,0,1,5.266,9.0508c.6583,3.2912-.4937,13.9877-2.1393,22.8741-1.6456,9.0508-2.6329,18.2663-2.3038,21.5575.1645,2.1393,2.7974,6.5824,3.9494,9.0508,1.6456,2.9622,4.7723,13.6587,4.9369,19.0892.1645,4.9368-1.152,11.19-1.152,12.1775s1.6456,5.1015,3.2912,7.2407c1.81,2.6331,5.9243,11.3548,6.9117,13.4941a24.7192,24.7192,0,0,1,1.9747,6.747s-.4938,4.2786-.6583,6.9115S29.1314,306.5765,28.144,318.26c-.8227,11.3547-.8227,20.8993.1646,21.8867a44.8307,44.8307,0,0,1,4.7723,4.9368c.8228,1.6456,8.0635,14.1522,8.8863,15.9625a64.734,64.734,0,0,1,3.2913,10.3674c.6582,3.62,1.6455,10.6964,1.9747,12.5066.4936,2.4684,3.4558,17.608,3.9494,20.0765.6582,3.1267,1.81,11.6839,2.3039,15.14.3291,3.9494.6582,10.3673.9873,11.6838.3292,1.1519,1.3166,3.4558,2.4685,6.0888,1.3164,2.9621,3.62,11.6838,4.114,13.6586s-.3291,4.6077.1646,6.2533c.6583,1.81,2.633,3.2913,3.2912,4.7723s5.9242,12.0129,8.2281,15.6333c2.1393,3.1267,9.7091,17.6081,11.8484,22.38a2.1924,2.1924,0,0,1,.4937,1.4811c0,1.81.3291,3.2912,1.3165,3.9494s2.6329,4.1141,3.95,4.2786a8.1754,8.1754,0,0,1,4.4431,2.3039c.8228,1.3164,7.4053,7.7344,9.8737,10.3673s4.114,4.2786,3.7849,6.5824c-.3291,1.81-.1645,4.7723.8228,5.76,1.81,1.81,4.6077,3.2912,9.8737,10.2027,4.4431,5.9243,6.0888,10.8611,8.3926,14.9751,1.3165,2.4685,3.2912,9.38,3.2912,11.19a5.9336,5.9336,0,0,0,2.1394,4.1141,21.3234,21.3234,0,0,0,6.2533,4.9369c1.1519.4936,4.4431,3.4557,7.4052,6.9115,2.9622,3.2912,5.43,6.0887,6.7471,13.8231.4936,2.3038.4936,4.2787,1.3165,4.4432s2.7975.6582,3.2912,1.6456c.6582.8228.6582,2.1393,1.9747,2.9621A10.645,10.645,0,0,1,164.73,616.61c.1645,1.6456.9874,6.4179,1.4811,8.3926.1645,1.481,7.8989,9.7091,9.8736,12.6712,1.6457,2.6329,4.1141,3.1267,9.7092,6.2533,5.43,2.9621,5.76,4.9369,6.0888,6.4179.3291,1.6456.1645,9.38.6582,10.2029,1.3165,1.81,2.1393.9873,4.2786,3.62s4.9369,6.4179,6.2533,8.2281,12.5067,8.7217,18.5955,14.3169a82.2275,82.2275,0,0,0,7.57,7.0761c1.81,1.1518,4.2787,2.3038,6.2534,3.2912a52.108,52.108,0,0,1,11.5193,6.4179c1.4811.8227,5.1014,2.6329,7.2407,3.9494,2.633,1.6456,10.0383,5.76,12.8358,5.76,5.76,0,8.7218,2.3037,12.013,1.4809,13.8231-2.6329,16.95-4.6077,20.0765-7.57,2.7976-2.9621,7.57-9.5446,9.0508-10.6965,1.6456-1.4811,6.4179-7.0762,10.3675-9.709,10.861-10.532,9.709-8.3928,16.4561-12.8358,3.62-2.4686,6.9116-3.2913,9.0508-6.418,3.2913-5.43,8.3927-13,9.2155-16.2916.6582-1.9747,1.81-2.4684,2.6329-4.6077.6583-1.81.3291-3.2912,2.6331-4.2786,1.81-.8228,6.0887-5.76,8.3926-6.9116,1.4811-.8227.3291-5.2659,2.1393-7.2407,1.1519-1.481,6.5824-5.1013,11.3547-8.5571,9.0509-6.418,15.4688-15.14,18.9246-18.4309,3.62-3.785,1.81-9.2154.6582-10.8611l2.633-3.9494s4.7723-5.266,7.57-8.2281c2.7976-2.633,10.3674-12.1776,12.3422-14.1523,1.6456-1.4811.6581-9.7091.9873-12.013.1645-2.4685,5.5951-6.5824,7.4053-8.3927s2.6329-3.4558,2.7976-6.9116c.3291-3.2912,2.6329-17.9372,3.4557-20.57a15.3512,15.3512,0,0,1,1.6456-3.2913,41.8171,41.8171,0,0,1,4.6077-5.5951c1.81-2.1393,10.8611-13,15.14-16.7853l.8228-.4936c2.1393-1.4811.8228-3.1267.8228-5.1014,0-.9875.8228-2.9622,2.1393-5.1014a28.8344,28.8344,0,0,1,4.114-6.418c3.785-4.2786,3.1267-6.747,9.38-11.3547,2.3039-1.6456,1.4811-6.5824,1.4811-6.5824a10.6567,10.6567,0,0,1,1.1519-4.7723c1.3165-2.9622,5.9242-8.5572,8.7218-11.5193,1.1519-1.152,2.1392-4.7723,2.1392-6.5825a16.2236,16.2236,0,0,1,1.4811-8.3926,12.2714,12.2714,0,0,1,1.152-1.9747A22.0733,22.0733,0,0,0,493.03,420.1239Z" fill="none" stroke="#3e5189" stroke-miterlimit="10" stroke-width="10.2"/><path id="path6644" d="M492.2072,421.9341V421.77h0v-.1646h.1646v-.3291l.1645-.1645h0v-.3291l.1646-.1646v-.3291l.1646-.1646.1646-.1646v-.1645c.8227-2.3039,1.481-5.266,2.7974-7.0761,2.9622-3.95,5.4306-8.3927,9.051-10.6966,3.2912-2.3038,3.9494-6.4178,5.595-13.1648.4937-11.8485,2.1394-12.5067,2.7976-13.8232a53.4408,53.4408,0,0,1,3.9494-10.2028c1.9748-3.62,4.4432-11.0257,3.62-13a66.6086,66.6086,0,0,1-5.1013-13c-2.4684-14.8106-.4937-19.7474,2.633-24.3551,4.4431-6.7471,7.2406-11.0256,11.8484-13.165,2.1392-.9873,1.81-5.1013,1.481-7.8988-1.1519-7.2408.9875-6.5825,2.3039-10.3675a53.69,53.69,0,0,0,2.1393-10.2027,53.676,53.676,0,0,0-.9874-6.2534c-.4936-2.9621-.8227-7.4052-.1645-8.8863,1.481-2.3039,2.633-5.1014,2.633-7.2407,0-.9873.9873-2.4684,1.4811-3.95a32.1408,32.1408,0,0,0,1.4809-8.0635c0-.8228,1.152-6.5824,1.81-10.6964,1.3164-8.0636.4936-12.0131-.1646-14.3169-.8228-3.4558-2.633-4.9369-2.633-6.0888,0-1.4811-.3291-6.0888-.6582-8.8863-.1647-1.6456,6.747-11.0256,7.8989-13,.6583-.8228-.4937-7.2406-.4937-8.7217,0-1.3165-1.6456-8.2281-1.6456-10.0382s.3291-2.9621.3291-4.7723c0-1.9748-.3291-4.7723-.3291-8.3927-.3291-6.5824.1645-13.3295.1645-15.14,0-1.4811-2.4683-1.4811-6.9115-3.7849s-13.9878-11.6839-15.6334-12.5067a59.2335,59.2335,0,0,0-13.494-2.1393c-4.114,0-12.8358,1.9747-16.6207,2.633-3.9494.4937-8.7217-1.152-10.861-1.81-2.4685-.6583-6.5825-1.81-8.3927-1.6456-5.266.6582-13.8231.8228-17.2789.1646-4.4432-.8229-8.0635-1.9748-10.2028-3.2912-1.81-1.3166-2.4684-.8229-4.6077-2.7976-1.9748-1.81-2.1393-2.7976-3.62-2.9622-1.3165-.329-13.8232-1.3165-16.127-3.62s-5.43-6.2533-7.2407-14.9751c-1.81-8.228,1.1519-14.3168,4.2786-15.9624,4.9368-2.4684,11.6838-6.5825,15.3041-6.9116,1.6457-.1645-1.9747-6.4179-3.7848-12.6712-.8228-2.3039-4.2787-1.81-12.1775-10.532a177.5263,177.5263,0,0,1-11.19-14.3168c-1.6457-2.633.1645-4.114-1.4811-4.2786A113.8345,113.8345,0,0,1,384.42,25.0119a130.8709,130.8709,0,0,1-21.8868-6.0887c-3.2912-.9874-11.19-3.62-13.6586-4.6077-2.4684-.8229-7.4052-2.9621-11.8484-4.4432-4.2786-1.6456-6.2533-4.9368-8.3926-5.1014-2.3039,0-10.532,5.76-20.4057,7.0761s-13.1649-.9873-18.5954-1.81c-5.595-.6582-10.6964-1.81-17.1143-2.3038-6.5825-.4936-25.5071,2.9622-28.7983,3.4558-3.2913.3291-8.0635,2.633-12.1775,2.633-2.6331,0-17.279,4.2786-19.7474,4.7722-2.633.4938-6.2534-.8227-8.0635-.1645-2.7976.8228-7.2408,1.81-8.5572,2.1393-1.3165.1646-20.57,6.747-23.8614,7.4052a109.0338,109.0338,0,0,0-13.8232,4.2787c-2.9621,1.1519-4.7723,3.2912-7.2407,4.9368-8.2281,5.76-10.5319,6.0887-14.4813,7.2407-2.4685.6583-3.95,1.81-9.5446,1.9747-5.76.3292-7.4054,1.4811-7.2408,2.633-.1646,3.7849-1.3165,11.5193,0,12.3422,3.1267,1.6455,10.8611,14.3168,11.3547,22.38a77.2322,77.2322,0,0,1-1.1519,17.279,10.3016,10.3016,0,0,1-1.6456,4.9368c-1.1519,1.3164-8.0634,3.62-12.1775,3.7849-4.2787.3291-6.4179.4936-21.393-3.2912-11.5193-3.1267-12.6713-4.2787-13.9877-6.0888-1.3165-1.6456-4.2786-3.1267-6.2533-4.114-2.1394-.9874-4.2787-1.4811-6.2534-3.62C65.5,91.001,56.284,95.4442,43.7774,96.4316c-2.3039.1646-6.5824,7.7343-14.1523,11.6839-6.0888,2.9621-9.0509,4.114-11.0257,5.595-5.595,3.785-12.0129,4.4432-11.3547,6.0888,1.3165,3.1267-1.1519,4.7723-.3291,12.5067,1.152,12.8358-1.81,19.5829-1.81,25.8361,0,3.1267,3.4558,6.9116,5.1014,8.2281s4.4432,5.9242,5.266,9.0509c.8228,3.2912-.4937,13.9877-2.1393,22.7095-1.6456,9.38-2.6329,18.4309-2.3038,21.7221.1645,2.3038,2.7974,6.5824,4.114,9.0508,1.481,2.9622,4.6077,13.4941,4.7723,19.0892.3291,5.1014-1.152,11.19-1.152,12.1775,0,1.1519,1.81,5.1014,3.2912,7.2407,1.81,2.4684,5.9243,11.3548,7.0762,13.4941a21.2494,21.2494,0,0,1,1.81,6.5824s-.3291,4.4432-.6583,7.0761c-.1646,2.6331-1.1519,11.8485-1.9747,23.3677-.9873,11.3548-.9873,20.8994.1645,21.8868,1.152,1.3165,3.62,3.4558,4.6078,5.1014.8228,1.481,8.0635,13.9876,8.8863,15.9625a53.1806,53.1806,0,0,1,3.2913,10.2027c.6582,3.62,1.6455,10.6965,2.1392,12.5066.3291,2.304,3.2913,17.6081,3.7849,20.0765a152.5253,152.5253,0,0,1,2.3039,15.14c.3291,3.9494.6582,10.3673.9873,11.5192h-.1645c4.2786-2.4684,2.9621-2.1393,8.2281-3.95,9.38-3.4558,7.7344-3.62,9.38-3.7849,2.7975-.4936,6.2533-4.9368,7.57-5.1014,1.6456,0,3.62-1.81,5.1014-1.81,1.6456.1645,3.1266-.9874,3.95-.9874a26.4412,26.4412,0,0,1,7.2407-1.4811l7.57-1.4811c3.1267-.4936,78.9895-27.4817,93.1417-33.0768,13.9878-5.595,1.152,4.1141,19.5828-2.6329a262.7077,262.7077,0,0,0,29.95-13c4.6077-1.481,27.3172-13.1649,27.3172-13.1649s5.1014-2.633,9.38-2.3039a59.2123,59.2123,0,0,0,10.6965-.3291,20.09,20.09,0,0,1,7.0762-.6582c4.6077.1645,6.4179.8228,10.2028.1645,3.4558-.4936,3.9494-3.1267,5.595-3.62a9.2038,9.2038,0,0,0,4.2787-2.4685c2.1392-2.7975,4.4431-1.9747,5.43-3.7849,1.81-2.9621,4.1141-1.9747,9.0509-5.9242.9873-.8228,5.9241.3291,7.57-.6582,1.81-.8229,8.8864-6.4179,10.3673-7.2408,1.6457-1.1518,2.633-3.2912,4.6078-2.962,4.2786.9873,4.9368-.3292,7.0761,1.6456,3.1267,2.9621,10.2028,7.8989,10.5319,8.5572,1.3166,3.4558,6.5825,3.62,6.7471,8.2281.1645,2.4683,2.4685,2.1392,2.1392,5.9242-.1645.9873,6.9117-.3292,9.8737,2.3038,1.9748,1.6456,9.5446,8.8863,10.6965,9.38,1.9748,1.1518,5.4306,4.1139,6.9116,4.7723,3.1267,1.3164,15.3042,8.228,18.9246,13,1.6456,2.1394,4.6077,1.6456,6.4179,2.9621,4.7722,3.2913,17.2789,11.0257,18.9245,13.9878,1.4811,2.6329,12.8359,10.5319,13.33,12.3421.3291,2.1392,5.5951,4.6077,5.9243,6.4179.1645,1.81,7.2406,6.5824,9.8736,8.5572,3.4558,2.4684,2.4684,1.6456,6.0887,5.43Z" fill="#6f81b2"/><path id="path6646" d="M462.4216,479.5306l.1645-.3292.1646-.4936.3291-.4937.1645-.3291.3293-.4937.1645-.4937.3291-.3291.3291-.4936.1646-.4938.3292-.3291.3291-.3291.1645-.4938.3291-.3291v-.1645l.1646-.1646.1645-.1646.1646-.1645v-.1646l.1645-.1645c3.95-4.1141,3.2913-6.5825,9.5446-11.19,2.3039-1.6456,1.3165-6.747,1.3165-6.747a12.8,12.8,0,0,1,1.3165-4.6077c1.152-2.9622,5.9242-8.5572,8.7218-11.5193.9874-1.152,1.9747-4.9369,1.9747-6.747a17.3226,17.3226,0,0,1,1.6456-8.3927v-.4936c-3.62-3.785-2.4684-2.633-5.9242-5.1015-2.4684-1.9747-9.7091-6.9116-9.8736-8.5572-.1646-1.81-5.4306-4.2785-5.9243-6.5824-.4936-1.6457-11.8484-9.5446-13.33-12.1776-1.481-3.1266-14.1523-10.6965-18.9245-14.1523-1.81-1.3165-4.7723-.6582-6.4179-2.7975-3.62-4.7722-15.7979-11.6839-18.9246-13.1648-1.3165-.4938-4.7723-3.4559-6.9116-4.6078-1.1519-.6583-8.7217-7.7344-10.6965-9.5446-2.962-2.4684-9.8737-1.1519-9.8737-2.3038.3293-3.62-1.9747-3.2912-1.9747-5.76-.1645-4.6077-5.595-4.7723-6.9116-8.228-.3291-.6583-7.4052-5.76-10.3673-8.5572-2.3039-1.9747-2.9621-.6583-7.2407-1.6456-1.9748-.3291-2.9621,1.81-4.4431,2.7974-1.6456.9874-8.7219,6.5825-10.3675,7.4054-1.81.8227-6.747-.1646-7.7343.4936-4.9368,4.1141-7.2407,3.1267-8.8864,5.9242-1.1519,1.9748-3.4558,1.152-5.595,3.95a10.1908,10.1908,0,0,1-4.1141,2.4685c-1.6456.4936-2.3038,2.9621-5.595,3.4557-3.95.6583-5.76.1646-10.2028,0a20.6437,20.6437,0,0,0-7.2408.6583,62.89,62.89,0,0,1-10.5319.1645c-4.4432-.1645-9.5446,2.3039-9.5446,2.3039s-22.5449,11.6839-27.3172,13.3295l-2.1393.9874c-.1645,1.4809-1.6456,4.7722-3.1267,5.595-1.3164.8228-2.9621.3291-3.7848,1.4811-.6582,1.3165.9874,2.1393,1.481,2.7975.3291.6583,1.152,2.9621-.1645,3.95-1.6456,1.152-2.304,2.9621-3.1267,3.9494-.8229,1.152-4.1141,2.7976-3.2912,4.4432a13.7957,13.7957,0,0,1,1.481,4.1141c.4937,2.962-.9874,4.4431-1.1519,5.5951-.1646,1.3165,1.3165,1.1519.1645,2.9621-1.481,2.1392-2.7976,2.7975-1.9747,4.2785.6582,1.4811-2.4685.8229-3.1267.9874a3.3412,3.3412,0,0,0-1.81,2.6329c-.1646,1.3165.3291,3.62-2.3039,3.62s-6.4179,0-7.2407.8227c-.9873.8229.6583,2.3039-.4937,2.9622-1.3165.9873-1.9747,0-2.9621,0a4.5727,4.5727,0,0,0-2.4684,1.3165,18.1933,18.1933,0,0,0-1.1519,2.1392c-.4937.8229-1.9747,1.3166-2.1393,2.3039-.1645.8228.8228,1.3165-.1645,2.633-.4938.9874-1.6457,1.481-2.7976,2.1392s-1.6456-.4936-2.3039,1.152c-.4937,1.3165-.1646,1.81-.8228,2.633-.9874,1.1519-2.9621,1.4811-4.1141,2.1393a48.1654,48.1654,0,0,1-10.861,2.4684c-.9874,0-7.0762-.1646-7.0762-2.1393-.3291-3.62-3.2911-3.9494-3.62-5.1014-.9873-2.6329-4.4431-3.7849-4.4431-5.595-.1646-2.4685-9.0509-1.6456-9.38,0-.1646,1.481,0,9.5445,0,11.5192-.1646,3.1267,0,6.9116.6582,23.0387.3291,10.6964-.1646,12.8358,1.1519,23.6968.8229,6.4179,2.1393,9.5445,3.1267,11.19l2.4684-.6583c-.3291,0,3.62-.8228,1.9748-2.4684,2.3038-.1646,2.4684-2.3038-1.4811-2.4684,2.7975-.6583,2.633-2.1394.9873-2.4685,2.304-.6582,3.2913-1.481,2.304-2.7975,1.9747.3292,1.3165-1.4811.8227-2.1393,1.4811.3291,2.4685-.3291,2.1394-1.3165,2.3038,1.6456,4.114-.1646,1.3164-1.3165,1.9747-.1646,1.3165-.9874-1.6456-1.481,1.1519.3291,3.2912-.6583,2.633-1.6456,1.4811,1.1519,3.4558-.6583.9873-2.633,1.6457-.4937,2.3039-3.1267,2.3039-3.62.1646,1.6456-.4936,4.7723,1.3165,4.2786-.9874.9874-.8228,1.9748,2.4684,1.9748-2.9621.4936-3.7849,2.6329,0,2.962-1.481,1.152,2.3039.8229,3.95,1.4811-2.4684.3291-2.7975.9874-1.81,1.4811-2.4684.8228.3292,1.81,4.1141,2.3039-3.62.1645-4.4432,2.4683-2.7976,3.4557.8228.6582,2.1394.3292,3.2912.1646.9874-.4938,1.4811-.8229,2.633-1.3165.9874-.3291,1.6457-1.3165-1.481-2.3038,1.481.3291,3.9494.1645,3.1267-.4938,3.62-.4936,3.4557-2.3038-1.6457-3.9494,1.4811.4936,7.0762-.3291,4.2787-1.81,1.3164-.3291.1645-2.633-1.6456-2.4684,1.1518-.4937,1.4809-2.4684-.6583-3.1267,2.1392,0,4.2786-.3291,2.3039-1.4811,1.3164.1645,2.3038-.4937,1.81-1.3164,2.7975.4936,2.1393-1.152.8228-1.81.6583-.3292,2.7976-.9874.4937-2.4684,1.81.1645,3.7849-.1646,3.4558-.9874,2.1393-.1646,3.62-2.4684-.1646-2.1393a1.2068,1.2068,0,0,0-.3291-2.1393c2.7976,0,3.95-3.62,2.9621-4.6077,1.4811.1645,1.152-4.1141.9874-5.43.9873,2.4683,1.4811,3.9494,2.633,3.9494-1.4811.9874.1645,2.633,1.81,3.1267-1.481.6582,1.152,2.4684,2.4685,2.1393-2.3039,1.1519-2.4685,3.7849,2.9621,5.43-2.3039-.3291-.9874,1.9748,0,2.633-.8229-.6582-3.785-.6582-2.9621.6583-1.152.3291-1.81,2.4683,1.6456,1.481-.3291.8228,1.4811,1.6455,3.9494,1.9747-1.481,1.4811-.8227,2.1393,1.152,2.4684-.8229.4937-1.81,1.152-.3291,2.1394-1.3165.9873-2.9622,3.1266,2.962,3.2911-2.6329.9874-.3291,1.6458,1.152,2.4685-4.9369-.1646-3.4558,3.7849.1645,3.9494-1.9747.6583-.8227,2.4685,1.4811,3.2913-1.3165,1.1519,3.2912,1.6456,1.9747-.6583,2.7976-.329,4.1141-2.1392,2.1394-2.633,3.62-.9873,1.3164-5.2659.1645-5.1014,1.6456-.3291,3.7849-1.6456,2.1393-2.7975,2.4685.4937,5.2659-1.81-1.152-2.3038,5.1014-.6583,3.785-2.7975,1.4811-3.62.6583-.1645,6.747.4937,4.2786-1.9747,1.6456-.4937-.1645-1.4811-2.1392-1.4811,1.4809-.3291,3.62-1.9747,1.6456-2.9621.8227.1646,1.81-.1645.9873-1.9747.8228.6582,4.6077.8228,3.62-1.152,1.3165-.4936.1647-1.481-.6582-2.3038,2.1393-.8228.8229-3.7849,0-4.4432,11.19-.4936.9874-4.2786.1646-4.6077,2.4684,0,5.1013-.6582,3.7848-1.9747,5.5952,1.1519,2.4685-3.4558.8229-4.2786.6582,0,2.7976-1.3165,1.4811-2.633,2.6329,1.3165,4.4431.8228,1.81-1.9747,1.152-.3292.4937-1.81-.4936-1.9748,2.4683.3292,2.4683-5.1014,2.4683-5.1014s1.6457,4.9368,4.1141,5.266c-2.3039.8228-1.81,4.6077-.1645,4.7722-.4938,1.6457,2.3038,1.4811,3.7849,1.81-4.2787,0-3.4558,2.4683.1645,3.1267-1.81.9873,0,2.3038,2.4684,1.81-2.3038.8228-2.1393,2.4684.6583,4.114-1.152.6582-2.1394,1.9747-.9874,3.2912-1.81,0,0,2.4685,3.4558,3.1267-4.4431.1646-5.43,1.4811,0,3.4558-.8228.1645-.4937,1.4811,1.481,2.1393-2.9621,1.3165-2.7975,3.7849,2.4685,3.95-1.9747.6582-.1646,1.3165,1.4811,2.4684-9.38.6583-4.2787,4.6077-.6583,3.95-3.2913,1.481,1.81,1.1519,3.7848,2.1392-3.2911.3292-7.0761.8228-5.595,1.81-1.81.3291-1.9747,2.7976,5.595,2.7976-1.3164.6582,1.152,3.1267,2.3039,3.7849-8.7217,1.152-4.6077,2.4685-.1645,3.4558-1.3165.3291-2.4685,2.633,2.3038,2.3039-2.7975.6582-5.43,1.9747-3.1267,3.4558,2.304,1.3165,1.9748,1.6456,29.1275,4.114,21.3929,1.9747,25.0133,2.4684,29.95,3.1266,5.76.8229,1.4811-2.7975-.3291-4.2786,8.7217,1.4811,4.2786-2.7975,3.1267-3.7849,1.1519,0,3.7848-.6582,1.81-1.9747,4.6078.6582,3.1267-2.4685,2.3038-3.4558,6.0889-1.4811,2.9622-3.1267.8229-4.2786,1.152-.3291,2.1393-.8228,1.3165-1.9747,3.95,1.481,2.7975-.4937,1.3164-1.4811,1.6457.1646,3.95-2.4684,1.4811-3.62,2.633-.6582,1.81-1.6456,1.152-1.9747,6.5824-.3291-.9874-3.4557.9874-2.633,2.7974-.8227,4.9368-4.114,2.4684-4.9368,2.3039-.3291,3.95-2.3038,1.6456-3.4558,1.481-.6582,1.481-2.633.8228-3.7849,4.2786.6582,2.962-2.9621,1.81-3.2912,3.1267.4937,3.4558-6.747,3.4558-6.747s.3291,4.7723,3.2912,5.1014c-1.81.9873,1.6456,3.1267,3.1266,3.62-2.7975,0-3.1266,1.81-1.81,2.4684-2.4685.1646.1645,3.1267,2.1392,3.785-4.1139.6582-.6582,2.3038.3292,3.1266-1.9748.3291-1.81,1.81.3291,2.3039-2.1393.9874-.3291,3.2912.6583,3.62a3.9531,3.9531,0,0,0,3.4558-.8228c1.6456-1.81-.4937-3.1266-1.4811-3.62,3.9494-.6583,3.7849-3.785,2.3038-4.4432,3.1267-.1645,2.3039-3.62,1.152-4.4432,2.3039.1646,2.4684-2.9621,2.633-4.7723.6582,2.4685.4936,4.4432,2.1393,5.1014-1.9748,2.6331.3291,4.6078,1.81,4.4432-1.1519.6583.1646,2.633,1.6456,3.1267-3.9494.9874.8229,3.9494,1.81,3.9494-2.1393,2.1394,1.4811,3.785,1.4811,3.785s-1.9748,2.1393-1.4811,4.2786,3.785,1.6456,4.7723.8228c1.9747-1.6456-.3291-3.95-1.1519-4.4432,3.4558-.1646,2.633-3.9494.9874-4.4432,3.2912,0,7.57-1.1518,2.7975-2.3038-.6583,0,3.7849-1.81.8228-2.4684,4.1141.1646,1.3165-3.7849,1.3165-3.7849s4.4432-.4937,2.1393-2.3039a2.1965,2.1965,0,0,0,2.7975-1.81s-.4936,2.9621,3.1267,3.9494c-2.3038,1.152.6582,1.3165,1.152,1.6456-3.785,1.152-.8229,2.633.9873,3.1267-2.1393.4936-1.81,2.1393-.1646,2.9621-1.81.4937.1646,1.81,1.81,2.1393-2.6329,2.1393-1.4811,4.2786.6583,4.6077-2.4685,3.7849,1.481,3.2913,2.4684,2.4684.9874-.4936,1.481-1.4809,1.1519-2.1393s-.9874-.6582-1.81-.9874c3.62-.9873,1.81-3.1266.6583-3.7848,4.7723-.4937,3.4558-3.4558,2.4684-4.1141,1.3165-.1645,2.633-.6583,1.81-1.6456,1.1519-.1645.6582-1.3165,1.1519-2.9621.1645,2.1393.6583,3.7849,1.6456,4.114-.8228.8229.3292,1.4811.8228,1.81-3.1266-.6583-.6582,1.9747.3291,2.1392-1.3165,1.3165-.1645,1.81.8229,1.81-.9874.9874-.3292,1.3165.8228,1.6456-1.3166.9873.3291,3.1267,2.633,2.3038,3.4558-1.1518,0-3.2912,0-3.2912,1.9747,0,3.4558-.8228,2.4683-1.6456,3.62.9874,5.76-2.1393,2.7976-3.62,1.152-.3291,2.4684-2.9622-.4936-3.7849,3.4558.6582,5.76-.3291,3.7849-2.9621,1.9747.1645,1.81-1.6457,1.9747-2.7976.4936,2.3039,1.3165,2.4685,2.1392,2.4685-1.3164,1.481-.1645,2.1392.6583,2.6329-.3291.8228.4937,1.9748,1.9748,1.81-.8229.6582.1645,1.481,1.1519,1.6455-4.1141.3292-2.9621,2.4685-1.1519,2.4685-.3291,1.3165,0,1.81,2.3038,1.4811-1.4811,1.81,1.1519,2.1393,2.1393,2.1393-3.4557,0-2.9621,3.95-.6583,3.1266-.1645,2.1393,3.2913.6584,4.4432,1.152-2.4683,2.3038-1.81,4.114,3.2912,3.1267-2.4684,3.4558,1.9748,2.4683,2.3039,1.3165,3.1267,2.1393,4.1141-.9874,2.1393-1.9748,1.4811-.1646.9874-1.3165-1.1519-1.9747,2.7976,0,2.1393-.8228,1.6456-1.6457,2.1393.6584,2.9621-.4936,2.1393-1.81,2.3039.3292,2.3039-2.3038,2.3039-2.3038a1.6436,1.6436,0,0,0,1.9747,1.3165c-.8229,1.81.6582,2.3039,2.7976,1.81-.8229,1.81.1645,2.4685,1.6456,2.6331a2.0625,2.0625,0,0,0,.9873,2.3039Z" fill="#3e5189"/><path id="path6662" d="M298.0247,354.464l-.4936-.1647-.3291.1647h-1.3165l-.6583.1645-.6583.1646-.6581.1645-.6584.1646-.6582.1645-.8228.3291-.6582.3292-.3291.1646-.3291.1645-.3292.1646-.4937.1645-.3291.1646-.4936.1645-.3292.1646-.4937.3291-.3291.1646-.4936.1646-.4938.3291-.3291.1645c-2.3038,1.152-16.95,11.6839-23.8614,14.4815a12.0592,12.0592,0,0,0-6.9116,8.7217c.1645,1.9747,5.5951.3291,10.5319-.8228,6.0888-1.81,6.418-2.633,6.7471-4.1141.1645-.9874,3.7848-2.9621,6.9115-6.2533,2.4685-2.6329-.4936-3.2913,1.81-4.6078,2.4685-1.6456,7.4053-6.9115,9.5446-7.57C293.2524,357.2614,298.8476,354.464,298.0247,354.464Zm136.2569,35.0515v.1645h.1646v.1646h.1645v.1646l.1646.1645.1645.1646v.1646l.1646.1645.1645.1646.1647.1645.1645.1646.1646.1645.1645.1646.3291.3291.3291.3292.3292.3291.1646.1646.1645.1645.1646.1646.1645.1645.1646.1646v.1645l.1645.1646.1646.1646.1645.1646h.1646v.1646l.1645.1645c1.152.8227,2.304,2.1393,3.1267.8227.6583-1.3164-1.9747-1.81-3.9494-3.7849s-.9874-2.7975-3.1267-3.62C432.4714,386.7179,433.788,388.8573,434.2816,389.5155ZM395.61,367.4642h.1647v.1647h0l.1645.3291.1646.1645v.1646l.1645.1645.1646.3291.3291.1646.1645.3292.1646.1645.1645.3291.3292.3291.1646.3291.1645.3291.4937.4938.4936.6582.4938.6583.3291.1646.1646.3291.3291.3291.1645.1645.3292.3291.1646.3292.1645.1646.1646.1645.1645.3291.3291.1646v.1645h.1646a39.2386,39.2386,0,0,1,4.4432,4.7723c.8227,1.4811,1.9747.6583,2.1392-.1645.1646-.9874-3.4558-4.2787-2.1392-4.2787,1.1519,0,2.3038,2.9622,3.9494,4.4432a22.0465,22.0465,0,0,1,3.62,4.9368,22.3562,22.3562,0,0,0,4.4431,4.9369c2.1394,1.9747,2.3039,3.62,2.3039,3.62a26.4169,26.4169,0,0,0,0-3.9494c-.1645-2.1393-3.62-3.7849-5.9242-5.76-1.6456-1.481-.8228-3.2912-2.3038-5.1014-1.4811-1.6456-6.2534-9.8737-7.57-10.861s-1.9747,1.1519-2.9621,2.3038c-.8228,1.152-2.9622-3.9494-4.114-5.595-.9874-1.4811-2.7976-5.76-4.2786-4.6078C392.6476,360.5526,395.116,366.1478,395.61,367.4642ZM361.3809,357.426v.3292h.1646v.1645h0v.3291h0v.1646h.1645v.1645h0v.1646l.1646.1645h0v.1646l.1645.1645v.1647h0v.1645h0v.1646h0v.1645h0c0,.9875-1.1519.4937-1.1519,1.3166,0,.9873-.3291,2.9621,1.6456,3.2912s2.1393.4936,3.4558.1645c1.481-.3291,4.2786.6582,4.9368-.3291.8229-.9874-.6582-2.3039-1.6456-2.7975-1.1519-.6582-1.3164-2.4685-1.9747-3.95-.6582-1.3165-2.7976-1.9748-4.9368-1.9748C361.0517,355.6158,361.2164,356.2741,361.3809,357.426Zm29.2919,17.9372.1646.4937.3291.3291.1646.4937.3291.3291.3291.3292.1645.3291.3291.3291.3293.3291.3291.3291.3291.1646.3291.3292.3292.3291.3291.1645.3291.3291.4936.1646.3291.3291.4938.1646.3291.1646.4936.3291.4938.1645.4936.3291.4937.1646.4936.1645.4938.3292.4937.1646.4936.3291.6583.1645.4937.3291.6582.1646.6583.3291.6582.3292.6583.3291c1.81.8228-10.8611-9.38-14.1523-13.1649-2.9621-3.1267-6.4179-8.3926-9.0509-8.5572C378.0016,362.3628,389.3564,372.73,390.6728,375.3632ZM321.0633,359.73l-.3291.1645-.1645.1646h-.3291l-.3292.1645-.3291.1646-.3291.1645-.3291.3293-.3291.1645-.4938.3291-.3291.1646-.3291.3291-.4937.3291-.3292.1645-.4936.3292-.8228.6582-.8228.6582-.8228.6583-.8228.8228-.3291.3292-.3291.3291-.4938.3291-.3291.3291-.3291.3291-.1645.3291-.3292.3292-.3291.3291-.1646.3291-.1646.1646c-1.3164,1.81-.6582,3.62-.1645,3.95a1.1158,1.1158,0,0,0,1.6456-.1646c.4938-.4937,1.3165-2.7975,2.633-3.62,1.4811-.8227,3.4558-4.114,4.6078-5.1014S323.6963,359.0716,321.0633,359.73Zm-20.4055,9.5446h-.6584v.1645H299.67l-.1645.1646h-.1646l-.1645.1645h-.3291v.1646h-.1646l-.1646.1645h0l-.1646.1646h-.3291v.1645H297.86l-.1646.1646h-.1645c-1.3165,1.152-2.1393,1.4811-1.4811,2.1394.4937.6582,1.152,1.1518,1.9747.3291s2.1393-2.6331,2.7976-2.9622C301.6451,369.7681,301.4805,369.2745,300.6578,369.2745Zm16.2915-14.3169h-.1646l-.3291.1646h-.1646l-.3291.1645-.3291.1646-.3291.1645-.3292.1646-.3291.1646-.4936.1646-.3291.1645-.3292.3291-.4937.1646-.3291.1645-.4936.3291-.8229.4938-.9873.4936-.8229.3291-.3291.3291-.4936.1646-.3292.3292-.4937.1645-.3291.1646-.3291.1645-.3291.3291-.3292.1646-.3291.1645h-.3291l-.3291.1646-.1646.1647c-2.4684,1.1518-4.2786,2.6329-4.114,3.1265,0,.6583.6583.8229,2.7976.9874s2.1392,0,4.1139-1.481c1.81-1.4811,4.7723-4.114,6.0888-5.266C315.7974,356.7678,317.6076,354.7931,316.9493,354.9576Zm173.4477,69.774h-.4936l-.3291-.1646h-.3292l-.3291-.1645h-.4937l-.1645-.1646h-.4938l-.1645-.1645h-.4937l-.1646-.1646h-.4936l-.1646-.1645c-3.95-1.152-5.5951-2.9621-15.4688-3.95-1.9747-.1646-7.899-7.0761-16.7852-10.5319-2.4685-.8229-17.9372-10.2028-19.9119-10.532-6.747-.8228-8.5572-3.1266-7.7344-.9873.4936,1.1519,2.9621,2.6329,3.1266,6.747a54.91,54.91,0,0,0,1.81,5.9242c-.1646,1.6457-21.7221-5.4306-26.8235-13.3294-7.0761-10.6966-8.3926-13.33-12.1776-15.798-3.9494-2.3039-7.2407-4.7723-8.5572-7.8989-.4936-.6582-.1645-2.1393-1.3165-2.3039-2.3038-.1645-4.114.3292-5.43-2.3039-.8227-1.6456-2.3038.8229-3.4558,1.81-.9874.6583-2.9621.3292-2.4683,1.6456.3291,1.152-1.4811,1.81-.6583,2.4685,3.62,3.4558,1.81,6.5824,3.4557,7.2406.6583.1646,1.4811,2.4685,1.3165,3.95-.3291,3.2912,1.81,3.9494,1.9748,5.595,0,1.3165.9874,4.4432,0,4.2787-1.4811-.3291-3.95-1.9748-5.9242-3.785-1.81-1.6456-3.2912-1.6456-3.62-3.1266-.1646-.6583-1.81-1.6457-3.95-5.4306-.3291-.9873,3.1267,5.1014,4.2787,9.2155a26.373,26.373,0,0,0,3.9494,8.3926c1.4811,1.9747-.1645,5.43-.1645,5.43-.4937,0-4.7723-2.3038-5.43-3.7849-1.81-3.2912-7.0762-3.7849-11.3548-11.5193-1.481-2.9621.1646-8.8863.1646-10.5319,0-2.4684-2.7976-3.785-5.1014-7.7344-2.3039-3.2912.4936-11.6838,0-14.3169-.4938-2.3038.6582-5.9241-.4938-5.9241-1.81.1645-7.2406,5.43-13.8231,8.8863-1.152.4936-3.62,2.633-4.4432,2.7975-5.43,1.6456-7.57,3.95-10.0382,9.2154-2.9621,6.2534-5.1014,9.38-6.2534,11.6839-1.3164,2.3039.4938,2.7975-1.3164,4.4431-1.3165.9874-11.8485,11.3548-13.3294,12.8359-5.4306,5.43-5.9243,3.4557-5.76,2.7974.6583-2.7974,7.0762-10.0382,10.8611-16.2915,2.4684-3.7849-2.4684.1646-4.2786-.8228-3.1267-1.81.1646-5.5951.8229-6.0888,1.3164-1.481.3291-2.6329,1.1518-3.62,2.3039-2.4684.8229-2.7975,1.6456-3.4558,1.4811-1.152.8229-1.152,0-.8228-1.9747.9873-7.57,4.2786-8.7217,5.43-1.6456,1.6456-15.14,9.8737-12.1775,5.76a18.5533,18.5533,0,0,1,3.1266-3.1266,10.15,10.15,0,0,0,2.633-5.1015c0-.9873-.1645-2.1392.4937-2.7974,6.9116-5.9243-.9873-1.3165-1.81-.4938-2.3038,2.4685-9.38,6.5825-12.3421,8.3927-1.9748.9873-7.57,3.62-8.0635,5.1014-.6583,1.4811-1.3165,2.7975-2.4684,2.3038-2.633-1.1519-3.95-.4936-6.0888,1.3165-2.1393,1.6457-3.2912-.3291-4.2786-.1645-3.2912.6582-5.1014-.6583-6.4179-.3291-2.3038.6582-11.8484,7.4052-14.646,6.5825l-1.3165.1645-.4936-.6583-.1646-.4936a9.8232,9.8232,0,0,0,1.3165-5.5951,10.3922,10.3922,0,0,0-1.481-4.1141c-.6582-1.6456,2.633-3.2912,3.4558-4.4432.8227-.9873,1.481-2.7974,2.9621-4.1139,1.3165-.8229.6582-2.7976.1645-3.4558-.3291-.8229-1.9747-1.9748-1.3165-3.1267.6582-1.3165,2.4685-.6583,3.95-1.4811,1.481-.9874,2.7975-4.2786,2.7975-5.9242l2.1393-.8228c4.6077-1.481,27.3172-13.3294,27.3172-13.3294s5.1014-2.4685,9.38-2.3039a50.163,50.163,0,0,0,10.6965-.1646,20.09,20.09,0,0,1,7.0762-.6582c4.6077.1645,6.4179.8228,10.2028.1645,3.4558-.6583,3.9494-3.1267,5.595-3.62a10.8674,10.8674,0,0,0,4.2787-2.4685c2.1392-2.7975,4.4431-1.9747,5.595-3.7849,1.6457-2.9621,3.95-1.9747,8.8864-5.9242.9873-.8228,5.9241.3291,7.57-.6582,1.81-.8229,8.8864-6.4179,10.3673-7.2408,1.6457-1.1518,2.633-3.2912,4.6078-2.962,4.2786.9873,4.9368-.3292,7.0761,1.6456,3.1267,2.9621,10.2028,7.7343,10.5319,8.5572,1.3166,3.4558,6.5825,3.62,6.7471,8.2281.1645,2.4683,2.4685,2.1392,2.1392,5.9242-.1645.9873,6.9117-.3292,9.8737,2.1393,1.9748,1.81,9.5446,9.0508,10.6965,9.5446,1.9748,1.1518,5.4306,4.1139,6.9116,4.7723,3.1267,1.3164,15.3042,8.228,18.9246,13,1.6456,2.1394,4.6077,1.4811,6.4179,2.7976,4.7722,3.4558,17.2789,11.19,18.9245,14.1523,1.4811,2.6329,12.8359,10.5319,13.33,12.3421.3291,2.1392,5.5951,4.6077,5.9243,6.4179.1645,1.81,7.2406,6.5824,9.8736,8.5572a31.1463,31.1463,0,0,1,6.0887,5.266Z" fill="#fff"/><path id="path6714" d="M438.56,513.43h-.6582l-.3291-.1645H436.75l-.3291-.1646h-.4937l-.3291-.1646h-.4937l-.4937-.1645-.4936-.1646h-.4938l-.6582-.1645-.4937-.1647h-.6583l-1.1518-.329-1.152-.1646-1.1519-.3291-1.1519-.1646-1.1519-.1645-.4937-.1646h-.6583l-.4937-.1645h-.4936l-.4938-.1646h-.4937c-10.6965-1.3165-12.342-2.3039-15.4687-2.633-3.1267-.1645-4.2786-.8228-16.6207-2.4685-40.9758-5.1013-49.8622-5.76-19.7473-9.8736,0,0,6.747-.8228,21.5575-2.3038,13.3294-1.4811,46.4063-4.4433,66.3182-2.9622l-.4936.3291c-4.2787,3.62-12.8359,14.1523-14.8106,16.2916-1.3165,1.81-3.1266,3.4558-4.4432,5.76C438.8893,512.9365,438.8893,513.2657,438.56,513.43Z" fill="#fff"/><path d="M305.17,173.9788c-.1817-4.22-.3633-9.3247-.3633-14.43h-.1816c-1.2725,4.48-2.9678,9.481-4.543,13.5967l-4.9658,13.7h-7.2071l-4.36-13.5962c-1.332-4.1152-2.7256-9.1162-3.6943-13.7007h-.1211c-.2422,4.7408-.4239,10.1582-.7266,14.5342l-.7266,13.336h-8.539l2.6035-35.1109h12.2939l3.9971,11.7207c1.2725,4.0635,2.544,8.4395,3.4522,12.5547h.1816c1.1514-4.0635,2.5439-8.7,3.876-12.6064l4.36-11.669h12.0528l2.24,35.1109h-9.0234Z" fill="#fff"/><path d="M331.217,178.4065l-2.9073,9.0123h-9.5683l12.4756-35.1109h12.1123l12.6582,35.1109h-9.9326l-3.1495-9.0123Zm10.3564-5.9384-2.5439-7.45c-.7266-2.0835-1.4532-4.688-2.0586-6.772H336.85c-.6055,2.084-1.2119,4.7407-1.878,6.772l-2.4218,7.45Z" fill="#fff"/><path d="M394.0246,185.804a52.4208,52.4208,0,0,1-13.627,1.98c-7.4492,0-12.8388-1.6152-16.5937-4.7407A15.8088,15.8088,0,0,1,358.05,170.28c.06-11.669,9.9326-18.3369,23.3164-18.3369a32.1377,32.1377,0,0,1,11.3252,1.7192l-1.9375,6.355a25.845,25.845,0,0,0-9.5088-1.5108c-7.6914,0-13.5049,3.751-13.5049,11.3565,0,7.2412,5.2686,11.5127,12.8389,11.5127a14.2168,14.2168,0,0,0,4.542-.521V173.51h-6.2979v-6.1988h15.2012Z" fill="#fff"/><path d="M410.5011,152.3079v35.1109h-9.2666V152.3079Z" fill="#fff"/><path d="M448.4748,186.429a30.1159,30.1159,0,0,1-10.4776,1.5107c-14.11,0-21.3779-7.5537-21.3779-17.5556,0-11.9815,9.9316-18.6494,22.2871-18.6494a27.4856,27.4856,0,0,1,10.0527,1.563l-1.8769,6.3032a22.76,22.76,0,0,0-7.752-1.3023c-7.3281,0-13.0214,3.8028-13.0214,11.6167,0,7.0327,4.8457,11.46,13.082,11.46a26.4551,26.4551,0,0,0,7.6914-1.146Z" fill="#fff"/><path d="M464.6476,178.4065l-2.9072,9.0123H452.172l12.4756-35.1109H476.76l12.6573,35.1109h-9.9317l-3.1494-9.0123Zm10.3555-5.9384-2.543-7.45c-.7265-2.0835-1.4541-4.688-2.06-6.772H470.28c-.6055,2.084-1.211,4.7407-1.877,6.772l-2.4228,7.45Z" fill="#fff"/><path d="M494.8713,152.3079h9.2666v28.4429h16.23v6.668h-25.497Z" fill="#fff"/><path d="M270.65,206.4231a87.6016,87.6016,0,0,1,12.4756-.7294c5.6923,0,9.7509.9379,12.4756,2.8129a9.7715,9.7715,0,0,1,4.36,8.127,10.4406,10.4406,0,0,1-3.7549,8.335c-3.1484,2.5522-7.8125,3.6982-13.2627,3.6982a26.9113,26.9113,0,0,1-3.1494-.1563v12.5547H270.65Zm9.1445,15.94a16.3532,16.3532,0,0,0,3.0889.2085c4.9053,0,7.9336-2.1358,7.9336-5.7305,0-3.23-2.6045-5.1572-7.2071-5.1572a18.1882,18.1882,0,0,0-3.8154.3125Z" fill="#fff"/><path d="M311.714,232.053l-2.9072,9.0122h-9.5684l12.4756-35.1108h12.1123l12.6573,35.1108h-9.9317l-3.1494-9.0122Zm10.3555-5.9384-2.543-7.45c-.7265-2.0835-1.4541-4.6879-2.06-6.7719h-.1211c-.6055,2.084-1.211,4.7407-1.877,6.7719l-2.4228,7.45Z" fill="#fff"/><path d="M341.9377,206.4231a94.04,94.04,0,0,1,12.2939-.7294c6.0567,0,10.2959.7812,13.2031,2.7612A8.4425,8.4425,0,0,1,371.19,215.8c0,4.48-3.6943,7.5532-7.207,8.6475v.1562c2.8467.99,4.4209,3.334,5.45,6.5635,1.2724,3.9595,2.5439,8.5434,3.331,9.8979h-9.4472c-.666-.99-1.6358-3.8549-2.8467-8.1787-1.09-4.376-2.8467-5.5737-6.6016-5.626h-2.7851v13.8047h-9.1455Zm9.1455,15.107h3.6338c4.6025,0,7.3271-1.98,7.3271-5.0532,0-3.23-2.543-4.8443-6.7822-4.8965a26.7354,26.7354,0,0,0-4.1787.26Z" fill="#fff"/><path d="M377.8547,205.9544h9.1445v15.5234h.1816c.9082-1.354,1.878-2.6045,2.7862-3.8545l9.2656-11.6689h11.3252l-13.5049,14.9507,14.2314,20.16H400.505l-9.9931-15.1591-3.5127,3.6987v11.46h-9.1445Z" fill="#fff"/><path d="M270.9523,286.533a26.6442,26.6442,0,0,0,10.2354,2.188c4.2392,0,6.4795-1.5107,6.4795-3.8027,0-2.188-1.9375-3.4385-6.8438-4.9493-6.7822-2.0312-11.2031-5.2612-11.2031-10.3662,0-5.9907,5.8135-10.5752,15.4433-10.5752a28.525,28.525,0,0,1,10.4161,1.771l-2.0586,6.4077a22.0148,22.0148,0,0,0-8.54-1.6669c-3.997,0-5.9345,1.5629-5.9345,3.3862,0,2.24,2.3017,3.23,7.57,4.9487,7.207,2.292,10.5986,5.522,10.5986,10.4707,0,5.8867-5.27,10.8877-16.4736,10.8877a30.3912,30.3912,0,0,1-11.5674-2.1357Z" fill="#fff"/><path d="M327.6418,279.865h-15.02V288.2h16.7754v6.5117h-26.042V259.6009H328.55v6.5117H312.6222v7.293h15.02Z" fill="#fff"/><path d="M335.6994,260.07a94.0217,94.0217,0,0,1,12.2939-.7295c6.0567,0,10.2959.7813,13.2032,2.7613a8.4426,8.4426,0,0,1,3.7548,7.3452c0,4.48-3.6943,7.5532-7.207,8.6474v.1563c2.8467.99,4.4209,3.334,5.45,6.5635,1.2725,3.9594,2.5439,8.5434,3.3311,9.8979h-9.4473c-.666-.99-1.6358-3.855-2.8467-8.1787-1.09-4.376-2.8467-5.5737-6.6016-5.626h-2.7851v13.8047h-9.1455Zm9.1455,15.107h3.6338c4.6025,0,7.3271-1.98,7.3271-5.0533,0-3.2295-2.5429-4.8442-6.7822-4.8964a26.7354,26.7354,0,0,0-4.1787.26Z" fill="#fff"/><path d="M380.882,294.7117l-13.0811-35.1108h10.1143l4.9658,14.8467a122.772,122.772,0,0,1,3.6338,12.5542h.1817c1.0293-4.2193,2.3007-8.3868,3.6943-12.398l5.208-15.0029H405.41l-13.748,35.1108Z" fill="#fff"/><path d="M419.04,259.6009v35.1108h-9.2666V259.6009Z" fill="#fff"/><path d="M457.0138,293.722a30.1243,30.1243,0,0,1-10.4775,1.5107c-14.1113,0-21.3789-7.5537-21.3789-17.5556,0-11.9815,9.9326-18.6495,22.2871-18.6495a27.4965,27.4965,0,0,1,10.0537,1.563l-1.8779,6.3032a22.7593,22.7593,0,0,0-7.752-1.3022c-7.3281,0-13.02,3.8027-13.02,11.6167,0,7.0327,4.8447,11.46,13.0811,11.46a26.4442,26.4442,0,0,0,7.6914-1.146Z" fill="#fff"/><path d="M487.3586,279.865h-15.02V288.2h16.7754v6.5117h-26.042V259.6009h25.1944v6.5117H472.339v7.293h15.02Z" fill="#fff"/><path d="M52.87,342.6612a33.5128,33.5128,0,0,1,3.8315-1.6242,14.7036,14.7036,0,0,0,3.6979-1.0732l-7.5048-2.11c1.59-2.1522,3.4319-.4565,5.4674-1.9364-4.4087-1.9371-6.333-8.728-11.0737-8.9662,2.9759-1.2534,4.7211-7.5368,8.8248-3.0689-.1706-8.5145-8.0738-12.9917-3.725-22.2626,1.096,2.6658,1.7429,6.0362,4.0679,7.5591,1.0731.703,1.8211,2.602,3.1764,1.1953a3.289,3.289,0,0,0,.92-3.4669c-.5149-1.6518-1.092-3.7371-2.5594-3.2813-1.8081.5617-3.1455-.47-2.4543-2.6954.4616-1.4864,1.0644-6.0382,3.98-3.2766a3.9291,3.9291,0,0,0,4.9056.6431c-5.4271.5672-8.1075-12.22-14.87-5.7331,1.7938-4.0391,4.4368-5.2809,6.785-4.9914,3.3274.41,4.9111-2.3448,6.6767-5.365,1.0956-1.8741-.1042-3.345-.4572-4.8485-2.5011-10.65-4.7333-21.378-5.2122-32.7728,4.9541,11.3362,2.5774,28.4589,12.5159,35.68a118.3643,118.3643,0,0,1-.3358-22.2643c.537-6.1517-1.5584-11.7764-2.8427-17.5717,3.7264,3.8475,3.8453,10.0518,4.9679,15.6543.39,1.9472-1.5308,6.8221,2.44,5.31l.6224,7.3755.9826-3.1893c1.7354,3.0724-.6743,6.7084,1.5573,11.3338.5407-7.6991,1.8614-14.1392,1.1628-20.0566-.69-5.8455,1.1218-9.1958,2.9211-13.2619-.74,4.3114,1.5623,8.3481-.079,12.9474-1.2942,3.6269,1.4388,5.3292,3.11,6.2256,2.1014,1.1275,1.5818-2.4264,2.18-3.9655a3.3054,3.3054,0,0,0,.2449-1.3034c-.3573-5.8189,1.3374-8.1618,5.2282-6.31.0237-2.7667-2.7-3.1694-1.8508-5.42.8967-2.377,2.0856-.0779,3.1026.6091.6.4054,1.2248.6121,1.5713-.432a1.9739,1.9739,0,0,0-.5969-2.2888c-1.4688-.9266-2.8935-1.1189-1.4731-4.6806a9.2034,9.2034,0,0,0-1.4132-8.9133c2.804-.2246,3.5824,2.9281,5.4341,4.1816,1.12-4.8995,1.628-9.2884-1.42-12.98,2.0088-2.308,2.51,3.9426,5.4517.6806,2.7459-3.0453-.3635-5.2031,1.5261-7.3255.8331-.3861.1708,2.4711,1.4124,2.5021l1.6525-7.43c1.81,7.5772.5491,15.83,4.9007,21.9733,1.1894-2.7745.6887-5.3274.9339-7.6583.1733-1.6469-.4192-4.4556,1.262-4.3462,1.2292.08,2.78-1.5741,4.0829,1.7725,1.8807,4.8314,2.4868,4.4139,4.7352-1.23.1173,3.8149.2191,7.1291.3292,10.71,1.985-1.36.56-3.9565,1.6252-5.8574,2.0775,2.8787.01,7.5139,2.6468,11.6954.8169-12.99,3.13-24.4624-1.7065-35.9,2.3543.0459,2.1963,2.9233,3.7509,3.5636l2.3387-10.6909c1.024,5.2526-.1163,8.8526-.2338,12.45,1.5508.3515.8608-2.9481,2.6062-2.6245-.8314,7.2687-5.1894,13.3255-3.2513,21.7929l3.9526-8.5467c.39.7328.568,1.0537.7363,1.3852.87,1.7143-1.6772,5.1318.8643,5.5136,1.7693.2657,1.9444-3.1957,2.3142-5.2482.8658-4.8057,1.6955-9.6758.53-16.6841,2.53,4.8382,4.1636,5.4929,4.7246-.1795,1.5047,3.0783-.5411,4.6121.0428,6.8337l2.9937-2.8851a10.57,10.57,0,0,1-.3927,2.3688c-2.2883,4.1235-5.7546,6.8161-6.4172,12.9038-.3709,3.4086-.0119,5.3034,2.4492,5.6812.3708.057,1.025.9645,1.046.05.1335-5.7868,5.0007-8.48,4.3625-14.9219.59,8.6485-2.3119,17.1177.3469,26.4768,1.96-10.0884,6.1384-18.08,7.1565-28.3889,1.965,3.658,2.0149,3.6749.5455,13.2152-.7053,4.5794-1.64,9.0812-2.6164,14.4094,4.3108-2.9848,4.8846-8.9924,6.522-13.9136,1.022,1.3457.5988,2.5.5419,3.5647-.09,1.6861-1.0483,3.6244.5981,4.7782.8.56,1.4489-.082,2.0593-.8643a5.0232,5.0232,0,0,0,.8526-4.8393c-.9628-3.3144-1.8805-6.6573-3.1179-11.0576A38.9356,38.9356,0,0,1,168.3,227.2a38.6362,38.6362,0,0,0-4.2268-15.3187c3.0861,2.2446,3.0861,2.2446,6.5456,11.8336-.9962-8.97,3.5043-17.676-.4977-27.3708,3.0314,2.69,3.0314,2.69,4.4677,9.0517,2.0364-4.09,4.0321-5.1659,5.62.26.5253,1.795,1.4378,2.6522,2.4621,1.0486,1.1742-1.8382,3.2157-3.2181,2.1832-6.7322-.5958-2.0279-1.8056-3.6944-1.7238-6.26,1.775-.3928,1.6765,3.02,3.3829,3.26.6764-2.0029,1.4073-4.1675,2.1542-6.3793,1.5623,1.29.0668,3.0644.5519,5.0765l6.1434-7.1032.661,1.0421-4.5518,7.7491c.8755,1.6267,1.7814-1.2542,2.4869.566a6.1466,6.1466,0,0,1-3.2055,3.6425c-2.5912,1.5689-1.7853,3.7418-.9872,6.5146,1.3408,4.658,2.9857,6.9177,5.245,1.5441,2.1578-5.1321,4.5535-7.6224,8.5271-4.3706-.3683,2.6362-2.72,2.4222-3.7776,5.6032,5.0184-3.3813,6.212-.1942,5.7589,6.129a11.838,11.838,0,0,0,.8024,4.5419c.7869,2.1819,1.4706,3.8976,3.87,2.4513,2.472-1.49,2.4407-3.659,1.3631-5.6264-2.76-5.038-1.2424-10.487-1.66-16.5361,6.68,9.8881,2.7381,23.1023,6.69,34.4285.0426-5.6219-.1924-10.3641,2.1231-14.6141,1.61,4.5778,3.6555,1.6586,5.9341-.4481-.6768,4.3673-4.6612,7.1658-2.9132,9.9325,1.8415,2.9146,4.77-1.2589,6.8791-2.8465,3.8936-2.9307,7.3853-7.0325,11.3142-10.1776-5.4315,9.0939-12.9561,14.9868-17.9582,25.0077,2.5432,2.2581,4.1016-1.2671,6.2715-.8622-.1823,3.2218-2.93,3.0954-3.5634,6.9692,8.55-4.154,15.3581-10.8212,21.0119-20.4449-.8263,6.0077-3.8989,9.0252-6.6335,12.4168a28.5548,28.5548,0,0,1-3.4185,3.4616c-1.4723,1.3-3.22,2.5354-2.618,5.57.665,3.353,2.7537-.9367,3.9969,1.63-3.3176,4.9138-9.1532,5.3317-11.1995,12.9687,5.856,3.6006,8.1046-4.2035,11.6914-8.9495-1.1649,7.4213,5.0555,10.1173,3.4644,17.2165,1.5449-1.9361.9932-4.6607,2.32-6.083,2.8062,6.4784,1.5744,12.2262-1.1936,18.0023-.8148,1.7-1.5018,4.8279-.979,6.3392.7933,2.2932,2.3587.0414,3.5531-.64.44-.2514,1.1541-.4749,1.0883.2331-.6849,7.3731,3.7633,1.495,5.0237,4.7111-2.1087,1.7965-4.8343,2.2334-6.3055,5.8329-1.2578,3.0771-3.6759,4.5357-5.6722,6.7805,2.3306-.1064,4.5577-.6923,7.9073.5246l-9.7674,3.2219c3.6216-.1241,6.7781,1.6252,10.0687,3.3895-.9253,1.7194-2.1119,1.3108-3.0783,1.3921-7.6576.6438-12.4291,8.3622-17.7131,15.1637-7.4918,9.6434-13.4951,21.9178-22.7681,28.4565a8.5458,8.5458,0,0,0-3.8412,6.335,7.5216,7.5216,0,0,1-1.6069,3.9913c-5.7676,5.1876-7.4227,16.2859-13.7324,20.7117-1.224.8585-1.901,3.1655-1.8065,5.2781.505,11.2843-4.23,15.9028-10.6108,18.019-3.6335,1.2052-5.3239,4.3234-6.3574,9.3488a14.6293,14.6293,0,0,0,.9082,9.0173c2.212,5.4534,1.7456,10.7889.9188,16.9439-1.0225,7.6113-3.2177,15.6727-.3243,23.6475a13.0148,13.0148,0,0,1,.5772,4.6416c-.2477,6.2169,1.71,8.9207,5.8008,8.2845,2.218-.3449,3.5969,2.1011,5.3684,3.0579a29.9437,29.9437,0,0,0,11.1434,3.8553c10.5107.9556,19.4422,8.35,29.1655,13.9571-1.7918,2.4643-3.5571,1.6292-5.1167,1.5392-15.8764-.9157-31.5054,3.2806-47.2592,4.8482q-18.3606,1.827-36.7412,3.2006c-3.8617.2892-7.614-1.11-11.2515-3.0987a12.2785,12.2785,0,0,0-3.9538-1.6183c-1.6066-.2229-4.51,4.7256-4.2537-2.6116.0072-.2075-2.5185-.7531-3.8749-.8952-4.7441-.4971-9.5414-.5644-13.9658-3.627-1.6555-1.1459-3.5831-2.37-3.41-5.6975a5.1744,5.1744,0,0,1,3.518-4.8,110.3149,110.3149,0,0,1,15.1317-5.3622c5.0195-1.289,9.9315-3.5828,14.8409-5.69,2.406-1.0327,3.2558-3.5474,2.703-7.419a66.9139,66.9139,0,0,1,2.8748-31.7757c1.726-5,3.7612-9.0406,7.19-11.9174,5.8565-4.9139,5.7375-9.79.0883-14.9786-4.4242-4.0633-9.1045-7.5511-12.81-13.2107a12.0388,12.0388,0,0,0-6.09-4.6419c-3.9853-1.52-7.8045-2.8737-7.8491-10.88-.0131-2.3517-2.0839-3.11-3.4365-4.0994A220.8866,220.8866,0,0,1,70.54,353.2086c-4.9576-5.5648-10.8947-9.8963-17.9141-8.7814Zm98.6088-17.49c-.5071,3.2151-1.0947,4.9864-1.0021,6.676.5276,9.623-2.7651,21.1049,5.8584,26.9808a5.87,5.87,0,0,1,1.6563,3.8552c.1834,9.0757,2.9993,18.3728-.893,27.1761a3.94,3.94,0,0,0-.0412,3.8244c3.911-5.1167,10.1875-8.3268,6.6654-19.1662a6.2771,6.2771,0,0,1,.2476-2.6482c1.6979-8.1249.1808-14.596-4.3161-19.853a13.4009,13.4009,0,0,1-3.3725-9.9624C156.9647,335.3113,154.4049,331.0616,151.4787,325.1709Zm48.3083,28.8165c1.0618,1.253-1.0086,7.1868,2.02,4.6155a77.693,77.693,0,0,0,17.3882-21.9523c1.1021-2.0058,1.7537-5.2421-.3921-7.169-3.0757-2.7622-7.2156-3.918-9.5263-.5748C204.6539,335.5955,200.11,343.067,199.787,353.9874Zm-96.9808,25.2139c-.1521-1.9371-.1461-3.0087-.3285-4.0047-1.6122-8.8058-6.3223-14.2111-10.1957-20.5987-2.8519-4.7031-6.1924-4.3435-9.699-3.0772a4.5288,4.5288,0,0,0-3.2451,4.2364,6.0293,6.0293,0,0,0,1.96,5.03C87.7854,367.6673,94.4521,374.0948,102.8062,379.2013Zm14.5159-4.573c-.4328-3.3818-1.494-6.4519-.3892-8.93,3.6242-8.1284-.3811-14.5538-1.983-21.4672-.6144-2.6511-2.4435-3.67-4.162-3.103-2.078.6853-1.4282,3.66-1.3759,5.7064C109.6776,357.2266,111.7929,366.5674,117.3221,374.6283Zm72.0137-48.4224c0-1.3549.0744-2.7183-.0178-4.0565-.1327-1.9267.3074-4.6509-1.314-5.236-1.5554-.5614-2.1088,2.1381-2.9539,3.6238-3.2189,5.6582-3.8285,12.6281-4.3634,19.5994-.1277,1.6647-.7255,4.1153.9285,4.55,1.5506.4071,3.831.7477,4.46-1.9547C187.3372,337.3077,190.3309,332.5865,189.3358,326.2059Zm-55.9124,34.9448c1.7905,8.0474,3.55,14.4379,6.4094,20.1419,1.48,2.9525,3.0911,2.6907,4.6959.988,1.8538-1.9671,1.74-4.636.2526-6.9875C141.5846,370.24,138.4943,364.9709,133.4234,361.1507Z" fill="#407035"/><path d="M163.2492,277.12a11.1422,11.1422,0,0,0-2.6329.9873,7.3389,7.3389,0,0,0-2.4684,1.6456v.8228h.1645v.1646l.1646.1646.1645.1645.1646.1646h.1646v.1645H159.3v.1645h.1645c.9874.1646,1.9748-.6581,2.633-1.1518.4937-.4937,1.1519-.9874,1.9747-1.6456S164.072,277.12,163.2492,277.12Z" fill="none"/><path d="M170.8191,220.84h.4937v-.1646h.1645v-.1645h.1646v-.1646h.1645v-.1645l.1646-.1646.1646-.1645v-.1646H172.3v-.1645a5.1293,5.1293,0,0,0,.9873-3.2912c-.1645-.6583,1.152-1.9749.4938-2.6331-.6583-.8228-2.633,1.9748-3.1266,2.6331-.3293.8227-1.6457,2.7975-1.4811,3.62A1.52,1.52,0,0,0,170.8191,220.84Z" fill="none"/><path d="M160.2871,302.9561a1.1958,1.1958,0,0,0-1.1519,1.81c1.9748,1.81.1646,2.7976-.3291,3.4558-.6582.6583-.3291,1.1519.4937,1.9748.9873.8228,2.3038.8228,3.1267,1.1519.9873.3291,1.6455.9873,2.9621,1.1519s4.6076.9874,5.43,1.152c.9873,0,1.81.1645,2.1392-.4937a6.1153,6.1153,0,0,1,2.7976-1.9748c1.152-.3291.9874-2.4684,2.3039-3.1267h.1645l.1646-.1645h.1645l.1646-.1646.1646-.1645h.1645v-.3291h.1646v-.3291h.1645v-.9874l-.1645-.1646v-.1645l-.1646-.1646V305.26h-.1645v-.1646h-.1646l-.1646-.1646h-.1645a17.683,17.683,0,0,0-3.7849-.6582c-1.152,0-1.6457-.9875-4.6078-1.152A64.45,64.45,0,0,0,160.2871,302.9561Z" fill="none"/><path d="M168.1861,273.006l.1645.1646h2.6331a11.1131,11.1131,0,0,0,4.4431-.3291c1.6457-.3291,1.6457-.8229,1.9748-1.81.1645-.9875-.9875-1.3166-2.1393-1.81-1.3165-.4937-3.2913,0-4.7723.3291-1.4811.1645-3.2912,1.9747-3.2912,1.9747S167.3633,272.8415,168.1861,273.006Z" fill="none"/><path d="M173.452,230.22v.4936h.1647v.1646l.1645.1646.1646.1645h.1645l.1646.1646h1.81l.1646-.1646h.1645c1.4811-.3291,2.4685-1.81,3.4558-2.633a2.9228,2.9228,0,0,0,1.152-2.9621c-.2711-1.0842-2.6576-.1617-3.1256-.0772-.4325.4141-2.2451,1.7926-2.634,2.0519a3.6244,3.6244,0,0,0-1.81,2.4685Z" fill="none"/><path d="M175.9205,237.6253a3.6776,3.6776,0,0,0-1.9747,2.4684v.4937h.1645v.1645h.1646v.1647h.3291v.1645h.4936l.1647.1646h.4031c-.0325-.0211-.0134-.026.09,0h-.09c.1734.1125,2.0046.7448,2.5589.3291,1.3165-1.4811,2.3039-1.3165,2.9621-2.9622a10.4911,10.4911,0,0,1,1.3166-2.3037c.4936-.6584-.3291-1.6457-.9875-1.81s-1.1518.1645-2.4684.8227A17.1348,17.1348,0,0,0,175.9205,237.6253Z" fill="none"/><path d="M168.8444,396.427c1.4809.1646-.3292,1.4811.6582,2.1393h.1645v.1646h.4937v.1646h.4938l.1645-.1646h.8228l.1645-.1646h.3292l.3291-.1645h1.3165c2.9621.6583,2.9621,0,5.2659-.1646,2.9622-.3291,2.9622-1.6456,3.95-1.81a9.5882,9.5882,0,0,0,5.4306-1.3164,1.9328,1.9328,0,0,0,.6582-2.1393c0-1.3166-.8229-1.152-1.81-1.152s-.1645-.6582.8228-.9873a4.1348,4.1348,0,0,0,2.3039-.9874c.4937-.4937.4937-.9873-.6583-1.9747-1.3164-.6583-1.9747,0-12.342,2.9621S168.0215,396.0979,168.8444,396.427Z" fill="none"/><path d="M159.6289,347.8815c.8228,1.3164,2.1393.9873,3.9494,1.3164,2.1394.1647.4937.9874,1.81,2.4684.8227.9875,1.9747,1.152,3.9494,1.6457,1.81.4936.9873,1.9747,3.2912,1.81,1.4811-.1646,5.266-.6582,6.0888-1.9748s0-1.9747-1.3164-3.2912c-.4937-.3291.6582-1.9747-.3291-3.62-.9875-1.81-4.1142-2.4685-4.9369-3.1267-.9874-.8229-2.1394-2.4685-4.2786-3.1267-1.6457-.4937-.1646-1.152-2.9621-1.3165-1.3166,0-3.4558,1.152-5.4306,1.4811-.9873.1645,0,1.9747-.9873,3.4558v.3291h-.1646v.3291h.1646v.3291h.1645v.1646h.3292v.1645h.1645v.1646h.3291v.1645h.1646v.1646h.1645v.1646h.1646v.1645C160.4517,346.2359,158.8061,346.565,159.6289,347.8815Z" fill="none"/><path d="M157.6542,323.3618l.1646.1646v.1645l.1645.1646v.1645l.1646.1646.1645.1645.1646.1646v.1646l.1645.3291.1646.1646.1646.3291.1645.1645.1646.3291.1645.3291.1646.1647.1645.3291.1646.4936.1646.3291c.4937.9875,1.9747.3291,4.2786,1.4811,1.81.8229,2.7976.4937,4.2786,1.152,1.6455.6582,1.81,1.81,2.7975,2.4684.9874.8228,1.3165.3291,2.3039.8228.8228.3291,1.1519,1.4811,2.4684,2.3038,1.152.8229.8229,1.4811,2.3038,1.81.9874.1646.8228-.6582,1.6457-.3291,1.1519.3291,1.81.3291,2.4684-.1645.6582-.6582,0-1.4811,0-2.6331,0-.6582,1.152-.1645,1.152-.9873.3291-1.1519-1.152-2.1393-1.4811-2.7975s0-1.3166-.9874-2.9622c-.8228-1.81-.8228-.6582-1.9748-2.4683-.8228-1.4811-.4936-2.6331-1.9746-4.4433-2.4685-2.3037-4.7724-2.6328-9.38-3.62-3.95-.8227-8.2281-1.9747-9.5445-.8227-1.4811,1.1518-.3291,2.6329-1.1519,5.2659h-.1646v.8228h.1646v.3291l.1645.1645v.1647Z" fill="none"/><path d="M155.68,220.6754V222.65l.1645.3292v.6582l.1646.1645v.4937l.1645.1646v.3291l.1646.4937v.3291l.1645.1645v1.3165a7.5685,7.5685,0,0,0,.6583,4.6078c.3291.9874-.8228,7.57.1646,8.2281,1.1519.4936,1.81-1.3166,2.6329-2.3039s1.9747-7.57,2.3039-8.7218a61.4408,61.4408,0,0,0,1.81-8.5572,30.5964,30.5964,0,0,0-1.1519-9.38,6.6673,6.6673,0,0,0-2.4684-3.4558c-.9874-.6582-1.6456-.4936-1.9747.1646-.1646.6583-.4937-.4937-.4937-.4937-1.3165-.6582-1.6456-.1645-1.81.6582-.3291.4938-.4936,3.62-.9874,4.7724-.9873,1.81.9874,3.2912.4938,7.7343Z" fill="none"/><path d="M166.7754,485.7268l-2.5385-.2588a18.2524,18.2524,0,0,0,1.81,4.43Z" fill="none"/><path d="M161.11,379.4773c.6582.4936,1.481.4936,2.3038-1.152.6582-1.81-.1646-3.9494,1.3165-3.7849,3.4558.4937,1.9747-2.7976,2.633-4.2786a32.151,32.151,0,0,0,.4937-7.57c-.1646-.4937-2.1393.3291-2.1393-.6583-.1646-1.81.9873-4.114-.9874-4.114-1.4811,0-.8228,1.3164-1.6456,1.4811-.8228,0-.8228.1645-1.6456-.1647-.3291-.9873-.8228-.9873-1.4811-1.3164-.6582-.1645-1.3165-.3291-1.6456,0v.3291h-.1645v3.4558l-.1646.6582v8.0636l-.1645.8228v3.4558l-.1646.3291v.8228c-.1646,1.4811.3291,2.962,1.1519,2.962s1.481-.9873,1.481-.9873.6583-.8228.6583.3291C161.11,379.3127,160.7808,379.1482,161.11,379.4773Z" fill="none"/><path d="M168.5152,489.0751c-.3291.1646,3.62-.6582,1.81-2.3038a2.3956,2.3956,0,0,0,1.4961-.53l-5.046-.5143-.7286,4.1712Z" fill="none"/><path d="M170.3253,486.7713c1.81,1.6456-2.1392,2.4684-1.81,2.3038l-2.4684.8229-2.1851.1322-8.3083.4887-17.1054-4.1541-6.5978-2.81-.19-1.4314c-5.3959-1.1959-3.941-5.061-2.4751-5.061-4.4431.1645-4.114-1.81-1.3164-3.2913-2.9621.4937-2.9621-1.152-.9874-2.6329-2.7976.4936-4.4432-1.152-1.81-2.1394-2.4685.3291-3.4558-.8227-.8227-2.6329-3.1268-.1646-2.3039-1.1519-1.4811-2.3039-2.3039-.3291-3.1267-.9873-1.81-2.9622a1.4576,1.4576,0,0,1-.9873-2.4683,6.359,6.359,0,0,1-2.3039-4.7723s-.6582,4.114-2.1393,5.9242c.9874.4937,1.152,2.4684-.6582,3.2913.8227.3291,1.9747,1.481.1645,2.6329.6582.6583.4937,1.481-1.1519,2.1394,2.633,1.81.6583,2.4684-2.6329,2.1392,1.9747,1.152,1.81,2.9621.4936,3.1267,1.3166.9873,1.152,4.4431-2.1392,2.9622.4936.9873,1.3164,2.3037-2.633,1.4809.9873.6583,4.7722,1.481,1.6455,3.2912.6583.3292.3292,1.3165-5.595,2.6331,1.6456.3291,3.4558.9873,2.1393,1.9746,1.6456,1.4811-3.2913,2.9622-5.2659,3.62,2.1392.9874,3.1266,1.6456.4936,3.4559-2.5442,1.7491-7.3788,2.2674-7.7032,2.3006l-.0312.0032.0312-.0032c.1124-.0144.5332-.1146.9562-.82-.9874.3293-2.1393.1646-1.4811-.3291-.9874-.3291-1.3165-.8227-.3291-1.1518-.6583-.6583-1.6456-.9875-.9874-1.3166-.4937-.4937-1.81-1.1519-.6582-1.1519a6.1406,6.1406,0,0,1-1.481-2.7976s-.4937,2.7976-1.3166,3.4558c1.152.3292,0,1.81-1.3165,2.4685,1.152.4936-.1645,1.4811-1.3164,1.81,1.481.1645,1.6456.6582.4937,1.1519-.4937.1646-1.152.4937-1.6457.6582l.3291.4937a18.4831,18.4831,0,0,1,.8229,2.1393,4.1512,4.1512,0,0,1,.6582,1.4811c0,1.9747.1646,3.2912,1.152,3.9494s2.6329,4.114,4.1139,4.4432a8.1155,8.1155,0,0,1,4.2787,2.1393c.9873,1.3165,7.57,7.899,10.0382,10.3673,2.3039,2.7976,3.95,4.4432,3.62,6.747-.329,1.6457-.1645,4.6078.9875,5.76,1.6456,1.6456,4.6076,3.1266,9.8737,10.0382,4.2785,5.9242,6.0887,11.0257,8.228,14.8105,1.481,2.633,3.4558,9.5446,3.4558,11.3547s1.1519,3.1268,2.1393,4.2787a21.8571,21.8571,0,0,0,6.2534,4.9369c.9873.4936,4.2785,3.4557,7.2406,6.747,2.9621,3.4557,5.4306,6.0887,6.747,13.8231.4937,2.4683.4937,4.2786,1.481,4.4432.8229.3291,2.6331.8227,3.1268,1.6455.6582.8229.6582,2.1393,1.9747,3.1267a9.8411,9.8411,0,0,1,4.7723,6.9116c.3291,1.6456.9873,6.5825,1.481,8.3926.3291,1.6456,7.899,9.7092,9.8737,12.8359,1.81,2.6328,4.2786,2.9621,9.7091,6.0886s5.76,4.9369,6.0888,6.5825c.4937,1.4811.1646,9.2155.8228,10.0383,1.1519,1.9748,2.1394,1.1519,4.114,3.62a99.7383,99.7383,0,0,1,6.2534,8.3927c1.481,1.81,12.5066,8.7217,18.5955,14.3169,1.481,1.3164,5.1013,5.2659,7.57,6.9115a39.8169,39.8169,0,0,0,6.4179,3.4558,57.1249,57.1249,0,0,1,11.3548,6.0887c1.481,1.1519,5.1013,2.7976,7.2407,4.1141,2.6329,1.6456,10.2028,5.9243,13,5.9243,5.595,0,8.7217,2.1392,11.8484,1.3164,13.9877-2.633,16.95-4.4432,20.0765-7.4053,2.9621-2.9621,7.57-9.5446,9.0508-11.0256,1.6456-1.152,6.5824-6.747,10.3674-9.5446,11.0256-10.3673,9.8737-8.2281,16.4562-12.6711,3.62-2.6331,6.9115-3.2913,9.0508-6.5825,3.2912-5.2659,8.3926-12.8358,9.38-16.127.4937-2.1393,1.81-2.6331,2.4684-4.6078s.4938-3.2912,2.7975-4.4432c1.81-.6582,5.9243-5.595,8.3927-6.9115,1.3165-.8228.3291-5.1014,1.9747-7.2407,1.152-1.4811,6.5825-4.9368,11.3548-8.3926,9.0509-6.418,15.6333-15.3043,18.9246-18.5956,3.7848-3.7848,1.9747-9.2153.6582-10.8609l2.633-3.7849s4.7723-5.266,7.57-8.2281c2.9622-2.9621,10.3675-12.1776,12.3422-14.1523,1.6456-1.481.8228-9.7091.9873-12.013.3292-2.4684,5.5952-6.5824,7.4053-8.5572,1.81-1.81,2.633-3.2913,2.9621-6.747a191.3431,191.3431,0,0,1,3.4558-20.57v-.3291l.1646-.1647v-.4937l.1645-.1645v-.1646l.1646-.1645v-.1646h.1645v-.3291l.1646-.1646v-.1646l.1646-.1645V513.43L171.8214,486.2411A2.3956,2.3956,0,0,1,170.3253,486.7713Z" fill="#407035"/><path d="M348.2163,468.9986l.0016,0C347.8915,468.8329,347.7787,468.8,348.2163,468.9986Z" fill="#407035"/><path d="M462.751,479.3661a2.5842,2.5842,0,0,1-1.1519-2.4685c-1.3165-.1645-2.3038-.6582-1.481-2.4685-2.1394.4938-3.6205,0-2.7976-1.81a1.6435,1.6435,0,0,1-1.9747-1.3164s0,2.633-2.3039,2.1393c.8228,1.4811,0,2.6331-2.1393,1.9747.4937.8229,1.1519,1.6457-1.6456,1.6457,2.1393.4936,2.4684,1.81,1.152,1.9746,1.9747.9875.9873,4.1142-2.1394,1.9749-.3291,1.1518-4.7723,2.1393-2.3038-1.3165-5.1015.9873-5.76-.8229-3.2913-3.1267-1.152-.4936-4.6077.9873-4.4432-1.152-2.3038.6584-2.7974-3.1267.6584-3.1267-.9875,0-3.62-.3291-2.1394-2.1392-2.3039.3291-2.633-.1646-2.3039-1.6456-1.81.1645-2.9621-2.1393.9875-2.4685-.8229,0-1.81-.8227-.9875-1.481-1.481.1646-2.3037-.9874-1.9746-1.81-.8229-.4937-1.9748-1.1519-.6584-2.633-.8227-.1645-1.6456-.1645-2.1392-2.4684-.1646.9874,0,2.9621-2.1393,2.633,2.1393,2.633-.1646,3.7849-3.62,3.1267,2.962.8227,1.6456,3.4557.4936,3.7848,2.9621,1.4811.8228,4.6078-2.7975,3.4559.9873.9873-.4937,1.6455-2.4684,1.6455,0,0,3.4557,2.304,0,3.4558-2.304.8229-3.95-1.3165-2.6331-2.3038-1.1519-.3291-1.81-.8229-.8227-1.81-1.1519,0-2.3039-.4936-.8228-1.6456-.9874-.1645-3.4558-2.7976-.3291-2.1392-.4937-.3293-1.6457-.9875-.8229-1.81-1.1519-.3291-1.4811-1.9747-1.6456-4.114-.4937,1.4811-.1646,2.7976-1.1519,2.9621.8228.9874-.4938,1.4811-1.81,1.6456.9873.6582,2.3039,3.62-2.4684,4.1141,1.152.6582,2.9621,2.7975-.6582,3.7848.8227.3292,1.481.3292,1.81.9874s-.1646,1.6457-1.152,2.1393c-.9873.6583-5.1014,1.1519-2.4684-2.4684-2.1393-.3291-3.2912-2.633-.6583-4.6077-1.6456-.3291-3.62-1.81-1.81-2.1393-1.81-.8229-1.9748-2.4684.1645-2.9621-1.81-.4937-4.7723-1.9747-.9873-3.1267-.4938-.4936-3.4558-.4936-1.152-1.6456-3.62-1.1519-3.1267-3.9494-3.1267-3.9494a2.3076,2.3076,0,0,1-2.7975,1.81c2.3039,1.81-2.1393,2.3037-2.1393,2.3037s2.7975,3.95-1.3165,3.785c2.9621.6583-1.4811,2.4684-.8228,2.3038,4.7723,1.3166.4937,2.4684-2.7975,2.4684,1.6456.4938,2.4684,4.2786-.9875,4.4432.8229.4937,3.1267,2.7976,1.152,4.4432-.9873.6582-4.2786,1.3165-4.7723-.9874-.4936-1.9747,1.4811-4.114,1.4811-4.114s-3.62-1.81-1.4811-3.785c-.9873,0-5.76-2.962-1.9747-3.9494-1.3165-.4937-2.6331-2.4684-1.4811-3.1267-1.481.1646-3.7848-1.81-1.9746-4.4432-1.4811-.6582-1.3166-2.7974-1.9748-5.1013-.1645,1.81-.3291,4.7722-2.7976,4.7722,1.3165.8228,2.1393,4.2787-.9874,4.4432,1.3165.6582,1.6456,3.7849-2.4683,4.4432,1.1519.3291,3.2912,1.81,1.6456,3.4558a3.1772,3.1772,0,0,1-3.4558.8228c-.9874-.1646-2.7976-2.4684-.6583-3.4559-2.1393-.4936-2.3038-1.9746-.3291-2.3038-1.152-.8228-4.4431-2.4684-.3291-3.2912-1.9747-.6583-4.6078-3.4558-2.1393-3.62-1.3165-.6582-.9874-2.4684,1.81-2.4684-1.4811-.4936-4.9369-2.633-3.1267-3.62-2.9622-.3292-3.2913-5.1014-3.2913-5.1014s-.3291,7.2406-3.4557,6.747c1.1518.3291,2.4684,3.9494-1.81,3.2912.6582.9873.4937,3.1267-.8229,3.7849,2.304,1.152.6584,3.1267-1.6455,3.4558,2.468.8227.33,4.1127-2.6314,4.9363,1.0236.5179,4.1665,2.3442-.8244,2.469.6582.4936,1.481,1.481-1.152,2.1392,2.4685,1.152.1647,3.785-1.481,3.62,1.481.9874,2.633,2.9621-1.3164,1.481.8227,1.152-.1646,1.6457-1.3166,1.9748,2.1393,1.1519,5.266,2.7976-.8228,4.2786.8228.8227,2.3039,4.114-2.3039,3.4558,1.9748,1.3165-.6582,1.9747-1.81,1.9747,1.1519.9874,5.595,5.1014-3.1267,3.7849,1.81,1.4811,6.0888,5.1015.3291,4.2786-4.9368-.6582-8.5571-1.1519-29.95-3.2912-27.1528-2.3038-26.8235-2.6329-29.1274-3.95-2.3039-1.481.3291-2.7975,3.1266-3.62-4.7723.4937-3.62-1.81-2.3038-2.1394-4.4432-.9873-8.5572-2.3037.1645-3.4557-1.1519-.6582-3.62-3.1267-2.3039-3.95-7.57.1646-7.4052-2.3039-5.595-2.7975-1.6456-.8229,2.3039-1.3165,5.595-1.6457-1.9747-.9874-7.2406-.6582-3.7849-2.1392-3.62.6582-8.7217-3.2912.6584-3.95-1.6457-1.1518-3.4558-1.81-1.4811-2.4683-5.2659-.1646-5.4306-2.633-2.4685-3.95-1.9747-.6582-2.3038-1.9746-1.481-2.3038-5.43-1.81-4.4432-3.2912,0-3.4557-3.4558-.6584-5.266-2.9621-3.4558-3.1267-1.152-1.152-.1645-2.4685.9874-3.1267-2.9621-1.6456-2.9621-3.2912-.6583-4.114-2.4684.4937-4.2786-.8228-2.4684-1.9748-3.62-.4937-4.4432-2.962-.1645-3.1266-1.4811-.1646-4.2787,0-3.7849-1.6457-1.6457-.3291-2.1394-3.95.1645-4.7722-2.4684-.3292-4.1141-5.2661-4.1141-5.2661s0,5.4306-2.4683,5.1015c.9873.1646,1.6456,1.6456.4936,1.9748,2.6329,2.7975.8228,3.1267-1.81,1.9747,1.1519,1.3165-.8228,2.4684-1.481,2.633,1.6456.6582,4.7723,5.43-.8229,4.2786,1.3166,1.1519-1.3164,1.9747-3.9494,1.9747.9874.3291,11.19,3.95,0,4.6077.8228.6584,2.1393,3.62,0,4.4432.6582.6582,1.9747,1.81.4937,2.3038,1.1519,1.81-2.6329,1.81-3.4558.9875.6583,1.9746-.1646,2.3037-.9873,2.1392,1.9747.9874-.1647,2.4685-1.6457,2.9621,1.9748-.1645,3.785.9874,2.1393,1.4811,2.4684,2.4683-3.62,1.6456-4.2786,1.9747,2.3039.8229,3.62,2.9621-1.4811,3.62,6.4179.4937,3.62,2.7975,1.152,2.1393,1.6456,1.3164-.4937,2.4684-2.1393,2.962,1.1519-.1645,3.4558,4.1141-.1645,5.1014,1.9747.4938.6582,2.304-2.1394,2.6331,1.3165,2.3037-3.2912,1.81-1.9747.6582-2.3038-.8228-3.4558-2.633-1.4811-3.2913-3.62-.1645-5.1014-4.1139-.1645-3.9494-1.4811-.8227-3.7849-1.4811-1.152-2.633-5.9242-.1646-4.2785-2.1393-2.962-3.1266-1.4811-.9874-.4938-1.6457.3291-2.1394-1.9747-.3291-2.6331-.9873-1.152-2.4684-2.4684-.4937-4.4431-1.1519-3.9494-1.9747-3.4558.9873-2.7976-1.1519-1.6456-1.481-.8229-1.3165,2.1392-1.3165,2.9621-.8229-.9874-.4936-2.3039-2.7975,0-2.6329-5.4306-1.4811-5.2661-4.1141-2.9621-5.2661-1.3165.3291-3.95-1.481-2.4685-2.3037-1.6456-.3291-3.2912-2.1393-1.9747-2.9622-1.152,0-1.4811-1.4811-2.4684-3.9494.1645,1.1518.4937,5.595-1.1519,5.43,1.1519.9873,0,4.6077-2.7976,4.6077,1.3165.6582.8228,1.4811.3291,2.1393,3.7849-.3291,2.3039,1.9747.1646,2.1393.3291.8228-1.6456.9873-3.4558.8228,2.3038,1.6456.1646,2.1393-.4937,2.633,1.3165.4937,1.9747,2.3039-.9873,1.81.6582.8227-.3292,1.3164-1.6456,1.3164,1.81,1.1519-.1646,1.481-2.3039,1.481,2.1393.6584,1.81,2.6331.6582,3.1268,1.81-.1646,2.9621,2.1393,1.6457,2.4684,2.7975,1.3164-2.9621,2.3038-4.2787,1.81,5.1014,1.4811,5.266,3.4557,1.6457,3.9494.8227.6583-1.6457.8229-3.1267.4938,3.1267.9873,2.4685,1.9747,1.481,2.3038-1.1519.3291-1.6456.8227-2.633,1.152a4.52,4.52,0,0,1-3.2912,0c-1.6456-.9875-.8228-3.2913,2.7976-3.4558-3.7849-.6584-6.5825-1.4811-4.1141-2.4685-.9873-.3291-.6582-1.152,1.81-1.3165-1.6457-.6582-5.4306-.3291-4.1141-1.4811-3.62-.3291-2.7976-2.6329.1645-2.962-3.2912,0-3.4558-.9874-2.4683-2.1394-1.81.4937-1.152-2.4684-1.3166-4.114,0,.4937-.8229,2.9622-2.3039,3.4558,2.4685,2.1393.4937,3.9494-.9873,2.7976.6582.9873-1.4811,1.81-2.633,1.6456,2.9621.3291,3.62,1.3164,1.6456,1.481,2.7975,1.1519.9874,2.7976-1.4811,1.3165.4938.9874-.4936,1.6456-1.9747,1.152.4938.8227,1.152,2.633-.8228,2.3037.9873,1.3166,0,2.1394-2.3039,2.7976,1.6457.1646,1.81,1.81-.9873,2.4685,2.8277.1178,3.5383,1.2454,2.8125,1.9382L438.5605,513.43c-1.9748-.1645-10.5319-2.3038-15.6334-2.9621-10.6965-1.3165-12.342-2.3038-15.4687-2.4684s-4.2786-.9874-16.6207-2.4685c-40.9757-5.1014-49.8621-5.76-19.7473-10.0382,0,0,6.747-.6582,21.5575-2.1393,13.494-1.481,46.4063-4.4432,66.3183-3.1266l.6582-.4937c2.1393-1.4811.9873-3.1267.9873-5.1014a11.1576,11.1576,0,0,1,1.81-4.6077Z" fill="#407035"/><path d="M138.448,486.3648l17.1054,4.1541,8.3083-.4887,2.1851-.1322a18.2524,18.2524,0,0,1-1.81-4.43l-32.4189-3.3045c-.057-.0117-.1023-.028-.1579-.04l.19,1.4314Z" fill="#407035"/><path d="M177.8952,225.4477c-.1162.0872-.0992.1054.0011.0874C178.0127,225.4235,178.0348,225.3779,177.8952,225.4477Z" fill="#407035"/><path d="M175.6654,241.2457h.09C175.652,241.22,175.6329,241.2246,175.6654,241.2457Z" fill="#407035"/><path d="M277.3728,647.436l-8.45-8.9255a18.5157,18.5157,0,0,0,.1688,1.8605,9.6591,9.6591,0,0,1-2.7439,8.9964c-2.7325,2.86-5.4913,5.6957-8.167,8.6079a42.8021,42.8021,0,0,0-3.1547,4.0139,8.24,8.24,0,0,0-1.5141,6.5512c.6173,3.5467.0581,4.1135-3.53,4.0907a62.4821,62.4821,0,0,1-6.31-.4243c-1.3751-.1489-1.8049-1.0307-.9541-2.1481,2.3819-3.128,4.721-6.2376,5.3191-10.3068.1069-.727.847-1.3742,1.333-2.03,1.9084-2.5742,3.646-5.3059,5.79-7.6679,4.0881-4.5039,4.4237-9.4993,2.8356-15.0467-1.6107-5.6267-3.1352-11.2879-4.4074-16.9986a42.1151,42.1151,0,0,1-.1069-16.4716,3.1874,3.1874,0,0,0-1.0008-3.2338,82.4307,82.4307,0,0,1-19.0948-28.0312c-.1937-.4732-.5261-1.1727-.8964-1.2456-2.9662-.5837-4.1363-3.1921-5.8642-5.1213-2.8187-3.1469-5.4318-6.4787-8.27-9.6066a32.8569,32.8569,0,0,0-4.1977-3.2771c-.6738,3.34-1.3734,6.0869-1.6783,8.877-.0679.6212,1.19,1.4779,1.9595,2.0659a5.1224,5.1224,0,0,0,1.7388.5546c1.4249.39,2.0865,1.1877,1.5463,2.7135-.7029,1.985-1.3163,4.0035-2.0731,5.9671-.4867,1.2629-1.38,1.5758-2.2438.3441-2.1094-3.0071-4.2153-6.0227-6.1478-9.1431a4.3442,4.3442,0,0,1-.1507-2.7625c.7-3.8817,1.5875-7.73,2.2557-11.6166a5.2665,5.2665,0,0,1,7.1528-4.0356c1.8111.76,3.5018,1.8064,5.2466,2.724l.4233-.3547c-1.9113-1.9792-3.7872-3.9953-5.7717-5.898-.3-.2879-1.154-.1948-1.6695-.0263-1.8773.6138-3.6846,1.4633-5.5847,1.98-2.0263.55-2.2061,1.9414-2.0038,3.5955.09.7381.5468,1.4792.4672,2.1767-.0771.6757-.4984,1.7161-.9943,1.87a58.75,58.75,0,0,1-6.7411,1.5987c-1.3079.2424-2.061-.4028-1.4667-1.7658,1.4678-3.3663,2.9515-6.7311,4.6126-10.0033a4.3461,4.3461,0,0,1,2.2795-1.5286c3.487-1.3546,7.0505-2.5166,10.5139-3.9261,3.1405-1.2782,4.8605-.87,7.0814,1.7957,2.9627,3.556,6.03,7.025,9.2282,10.7354a33.541,33.541,0,0,1,2.34-3.4888,69.0857,69.0857,0,0,1,5.32-5.6383,38.1949,38.1949,0,0,0,9.6987-14.7228,10.0816,10.0816,0,0,0,.2619-1.3784c-4.21,3.1251-8.72,2.9139-13.2291,2.7229-1.6489-.07-3.2152-.2554-3.69,2.09-.2824,1.3948-1.565,1.9926-3.0836,1.52a3.2479,3.2479,0,0,0-.9639-.2515c-3.3554.0676-4.7377-1.5011-3.3991-4.5858a111.5886,111.5886,0,0,1,5.4471-10.0025,19.5319,19.5319,0,0,1,1.4418-1.9042l-3.2582.72-.1319-.3943,1.6581-.8617c-2.0915.1438-4.1567.8287-6.0945-.8391l3.615.2379c-4.5124-2.4349-5.5578-4.0572-4.7258-6.6511,1.15.4893,2.4313,1.5513,3.4371,1.3344,1.309-.2823,2.4493-1.52,3.5694-2.4575,1.1381-.9525,2.1635-2.04,3.3638-3.1883L219.63,479.5831l.6526-.5492c6.1736,6.4567,12.3473,12.9133,18.6874,19.544v-4.909l.5465-.3734,5.1421,5.9351,3.3676-5.4955.6367.119,1.0273,4.9082c.1822-.0644.4069-.075.5171-.1927,4-4.2762,8.717-4.6344,13.8462-2.4806a30.7206,30.7206,0,0,1,3.9805,2.0851c3.7857,2.2926,7.4955,4.7425,12.2335,4.7061l.059.6749a14.665,14.665,0,0,1-2.6133.8257c-3.1839.3977-6.04-.73-8.8106-2.1191-2.1319-1.0688-4.23-2.2058-6.3792-3.2383a13.8616,13.8616,0,0,0-2.14-.7107c3.2854,1.995,6.98,4.137,10.5689,6.4436,4.4,2.8278,8.9534,4.9669,14.5969,4.0432-2.0214,1.3933-4.0821,1.3525-10.0767-.1535,4.5641,3.56,9.1157,5.8053,14.7873,5.2079-1.3092,2.0959-2.0077,2.2006-9.48,1.5711,2.2073,2.8244,5.285,4.04,8.2,5.7315l-3.3436-.3279c2.2043,1.9638,4.3756,1.8249,6.6932.7928-.786,3.1264-4.0135,3.55-9.3852,1.543a83.9344,83.9344,0,0,0,4.3057,7.91c1.42,2.0846,3.2861,1.9875,5.1505.2617-.2984,2.1091-1.3218,2.598-4.4016,2.1024a5.9571,5.9571,0,0,0,5.3121,2.7424c2.5183-.2537,3.17-1.5641,1.9189-3.86,2.2464.2117,3.1445,2.3054,1.7145,4.2133-1.4628,1.9516-3.5753,2.3684-5.8627,2.06a29.8409,29.8409,0,0,1-2.9077-.7151c1.1513,3.0274,2.5312,5.465,5.4055,6.73a2.7762,2.7762,0,0,0,1.5686.3061,3.4873,3.4873,0,0,0,1.6409-.95c.17-.1742-.1013-1.1622-.22-1.1716a7.6979,7.6979,0,0,0-1.7315.2072l-.1457-.5175c.7391-.1883,1.597-.709,2.1929-.4962,1.2705.4538,1.3173,1.63.7981,2.7388-.6286,1.3422-2.4679,1.8486-4.3316,1.1754a10.3629,10.3629,0,0,1-2.1422-1.1612c-.6117-.4051-1.1483-.9237-1.7914-1.4526.55,4.7821,3.8575,7.9312,9.4239,9.0911l.0667.5661a14.883,14.883,0,0,1-3.57.3735,9.4265,9.4265,0,0,1-6.8978-4.645c-1.1691-1.89-2.0871-3.9352-3.2955-6.2539.597,3.9958,1.8357,7.3009,4.4988,9.9947l-.3712.4254-2.9985-2.1844c.8278,2.7091,1.1141,2.9072,8.2276,5.6344-2.7576,2.3759-8.3844,1.477-13.52-2.3654a10.0329,10.0329,0,0,0,4.3334,5.3051c1.8691,1.0591,3.9105,1.814,5.8641,2.6971-3.3281,1.486-7.3192-.3736-11.052-5.1668a7.2089,7.2089,0,0,0,5.4943,5.9458c2.6959.6228,5.5672.4869,8.3972.6889-2.8659,2.4846-6.3715,2.781-10.0754,2.1009-3.7882-.6956-6.6852-2.87-9.2242-6.2268a33.9985,33.9985,0,0,0,9.6548,20.5473c1.7516,1.8161,3.5087,3.6321,5.1662,5.5329,4.4335,5.084,5.6927,8.1967,7.01,17.076a15.3056,15.3056,0,0,0,1.182-1.0759,20.5644,20.5644,0,0,1,34.8492,5.9041c.8266,2.0127,1.2983,4.1753,2.1746,6.1625a35.2257,35.2257,0,0,0,3.2913,6.0515,6.1014,6.1014,0,0,0,3.1385,2.1065,3.6318,3.6318,0,0,0,2.82-.7681c.3079-.2465-.2853-1.6188-.5223-2.7294.43.18,1.4256.2843,1.7372.8012a3.5448,3.5448,0,0,1,.4218,2.61,5.6221,5.6221,0,0,1-8.5456,2.8278,28.1149,28.1149,0,0,1-2.348-1.9746,33.1166,33.1166,0,0,1-.9391,3.4508c-1.1828,3.0467-2.5644,6.02-3.6489,9.1a19.1668,19.1668,0,0,0-.7728,4.7422,2.0176,2.0176,0,0,0,.6935,1.6162,12.2416,12.2416,0,0,0,2.6567.9057l.6482-2.8273c.4117.5041,1.3182,1.1177,1.2889,1.6827a5.6427,5.6427,0,0,1-1.0483,3.3046c-1.5989,1.7846-4.7154,1.448-6.2859-.6468a22.6405,22.6405,0,0,1-1.9486-4.066c-3.2941,4.4633-8.4454,6.1412-13.5093,7.9753-1.0236.3707-2.052.7442-3.0354,1.2073-3.3191,1.563-3.5415,2.9185-.7736,5.3411-1.9581.2314-2.9462-.9086-3.7508-2.2488-1.6387-2.73-.9427-5.637,2.4188-10.4317-4.1106.56-8.63,6.5486-7.9258,10.56a3.9633,3.9633,0,0,0,3.6469,3.5709c.5883.0755,1.1814.114,1.8652.1782-2.0635,1.9305-5.1983,1.8069-7.6151-.1988-3.6379-3.0191-3.4057-7.3351.7358-13.6795-2.2088.9925-4.8715,3.3412-5.3828,5.8949-.5067,2.53-.1108,5.2409-.1108,7.7946-1.9379-1.2813-2.8718-3.5484-3.0776-6.1275-.5172-6.4812,2.66-11.1308,7.76-14.5738a87.5465,87.5465,0,0,1,7.92-4.301c-3.379-1.22-4.431-2.884-3.1325-5.1879,2.3884,3.3575,5.2549,3.1387,7.2612-.6534,1.8977-3.5869,1.0976-7.0245-.9815-10.2463-2.6629-4.1265-6.8289-6.1185-11.44-7.8068-.2206.8082-.429,1.5663-.6345,2.3251a23.8206,23.8206,0,0,1-12.8376,15.6109,3.3678,3.3678,0,0,0-2.0722,3.1171,21.5211,21.5211,0,0,0,2.2088,10.6986c.9009,1.984,1.887,3.9343,2.9336,5.8456a4.3382,4.3382,0,0,1-.0373,4.663c-1.3493,2.1187-2.8111,4.1757-4.3529,6.16-2.5077,3.2267-5.1334,6.3614-7.6815,9.5571-1.7851,2.2387-1.909,4.8186-1.6575,7.56.2821,3.0739.0262,3.3191-3.03,3.3418-2.2391.0166-4.484-.1761-6.7187-.3658-1.3744-.1166-1.92-1.0634-1.0614-2.11,2.6479-3.23,4.1057-6.9746,5.7242-10.7754,1.4546-3.4158,4.4148-6.18,6.639-9.2827C275.0264,651.1449,276.2282,649.1777,277.3728,647.436Zm30.81-49.486c5.3285-.6964,10.2664.1424,14.5074,3.5571,4.267,3.4356,6.2091,8.0907,6.5725,13.4777.6178-6.1055-1.37-11.2111-6.2673-14.888A15.1339,15.1339,0,0,0,308.1825,597.95Zm-1.3738,5.4054c5.0708.476,9.5528,2.26,12.91,6.1465,3.3477,3.8756,4.5521,8.5173,4.143,13.9311A15.7675,15.7675,0,0,0,306.8087,603.3554Zm7.25,8.9712c4.3187,9.2011,1.7753,19.0809-8.6344,24.04C316.2481,633.9578,321.033,620.6683,314.059,612.3266Zm-4.43,31.4142a21.5989,21.5989,0,0,0,12.714-13.4194A51.0989,51.0989,0,0,1,309.6292,643.7408ZM259.36,501.9658l13.5469,9.6322.4036-.6005C268.0363,508.6721,265.1044,502.5663,259.36,501.9658Zm67.2729,130.29a12.73,12.73,0,0,0,3.19-10.7479Q328.228,626.8817,326.6332,632.2557ZM277.9238,532.1375a57.7536,57.7536,0,0,1,5.2791,4.459,52.1314,52.1314,0,0,1,3.9692,5.366C286.056,536.8581,282.2824,534.2132,277.9238,532.1375Zm6.696,21.5871a20.31,20.31,0,0,1-6.5944-11.1559C277.8045,547.26,280.6618,552.04,284.62,553.7246ZM274.044,516.1774l7.9653,10.2651C279.966,522.1428,278.17,517.8227,274.044,516.1774Zm1.91,20.9733,6.9977,8.3818A17.0336,17.0336,0,0,0,275.954,537.1507Zm3.3047-10.6425a11.5223,11.5223,0,0,0,5.5257,6.9785Z" fill="#fff"/><path d="M755.1056,196.9686c-.665-15.4473-1.331-34.1363-1.331-52.8252H753.11c-4.6562,16.4-10.8652,34.708-16.63,49.7739l-18.1836,50.1553H691.9093l-15.9658-49.774c-4.8779-15.0654-9.9775-33.373-13.5254-50.1552h-.4443c-.8867,17.354-1.5518,37.1875-2.66,53.2065l-2.6611,48.82H625.3869l9.5351-128.5347h45.0137l14.6348,42.9083c4.6562,14.875,9.3125,30.8945,12.6386,45.96h.6651c4.2139-14.875,9.3135-31.8476,14.1914-46.15l15.9658-42.7178h44.126L790.3625,246.17h-33.04Z" fill="#407035"/><path d="M850.46,213.1785,839.8166,246.17H804.7814L850.46,117.6355h44.3477L941.1515,246.17H904.7863l-11.53-32.9917Zm37.918-21.74-9.3135-27.271c-2.6611-7.6279-5.3213-17.1631-7.539-24.7915h-.4434c-2.2178,7.6284-4.4346,17.354-6.874,24.7915l-8.87,27.271Z" fill="#407035"/><path d="M1080.4084,240.2586a191.9242,191.9242,0,0,1-49.8916,7.2466c-27.2735,0-47.0088-5.9121-60.7569-17.354-13.748-11.0611-21.2871-27.8428-21.0654-46.7227.2217-42.7178,36.3652-67.1279,85.37-67.1279,19.292,0,34.1485,3.2417,41.4658,6.2934l-7.0957,23.2657c-8.2041-3.0513-18.4043-5.53-34.8134-5.53-28.1612,0-49.4483,13.7305-49.4483,41.5732,0,26.5083,19.292,42.146,47.0088,42.146,7.7617,0,13.97-.7631,16.6309-1.9072V195.2522h-23.0606V172.5584h55.6563Z" fill="#407035"/><path d="M1140.7258,117.6355V246.17H1106.799V117.6355Z" fill="#407035"/><path d="M1279.756,242.5467c-6.209,2.67-20.1787,5.5307-38.3613,5.5307-51.665,0-78.2744-27.6523-78.2744-64.2675,0-43.8619,36.3652-68.272,81.6006-68.272,17.5175,0,30.8222,3.0513,36.81,5.7212l-6.874,23.0752a83.3413,83.3413,0,0,0-28.3828-4.7676c-26.8311,0-47.6748,13.9214-47.6748,42.5269,0,25.7451,17.7393,41.955,47.8965,41.955,10.2,0,21.5088-1.9072,28.1611-4.1958Z" fill="#407035"/><path d="M1338.9611,213.1785,1328.3175,246.17h-35.0351l45.6787-128.5347h44.3477L1429.6535,246.17h-36.3662l-11.53-32.9917Zm37.918-21.74-9.3135-27.271c-2.6611-7.6279-5.3223-17.1631-7.5391-24.7915h-.4433c-2.2178,7.6284-4.4356,17.354-6.8741,24.7915l-8.87,27.271Z" fill="#407035"/><path d="M1449.6115,117.6355h33.9268V221.76h59.4257v24.41h-93.3525Z" fill="#407035"/><path d="M628.7131,315.7571c10.4218-1.5258,25.0566-2.67,45.6787-2.67,20.8437,0,35.7,3.4326,45.6787,10.2979a35.7714,35.7714,0,0,1,15.9648,29.75c0,12.587-4.8779,23.2657-13.747,30.5127-11.5313,9.3448-28.6055,13.54-48.5616,13.54a98.657,98.657,0,0,1-11.53-.5723v45.96H628.7131Zm33.4834,58.356a59.8275,59.8275,0,0,0,11.3085.7627c17.961,0,29.0479-7.8184,29.0479-20.9776,0-11.8232-9.5352-18.88-26.3877-18.88a66.5665,66.5665,0,0,0-13.9687,1.1445Z" fill="#407035"/><path d="M779.0558,409.5838,768.4123,442.576H733.3771l45.6787-128.5352h44.3477L869.7472,442.576H833.382l-11.53-32.9922Zm37.918-21.74L807.66,360.573c-2.6611-7.6279-5.3213-17.163-7.539-24.7915h-.4434c-2.2178,7.6285-4.4346,17.354-6.874,24.7915l-8.87,27.2706Z" fill="#407035"/><path d="M889.7072,315.7571a344.4449,344.4449,0,0,1,45.0137-2.67c22.1738,0,37.6953,2.86,48.3388,10.1074,8.87,6.1026,13.7481,15.0655,13.7481,26.89,0,16.4-13.5254,27.6513-26.3867,31.6562v.5723c10.4218,3.623,16.1865,12.2051,19.957,24.0293,4.6562,14.4931,9.3125,31.2754,12.1953,36.2334H967.9816c-2.4394-3.6231-5.9863-14.1123-10.4219-29.9405-3.9912-16.0195-10.4218-20.4052-24.17-20.5966H923.1906V442.576H889.7072Zm33.4834,55.3052h13.3037c16.8525,0,26.8311-7.2471,26.8311-18.499,0-11.8233-9.3135-17.7359-24.835-17.9263a97.8864,97.8864,0,0,0-15.3.9531Z" fill="#407035"/><path d="M1021.2,314.0408h33.4834v56.83h.665c3.3262-4.958,6.874-9.5352,10.2-14.1123l33.9258-42.7178h41.4658l-49.4482,54.7324,52.1093,73.8028h-39.47l-36.5879-55.4951-12.86,13.54V442.576H1021.2Z" fill="#407035"/><path d="M629.8215,609.04a97.5873,97.5873,0,0,0,37.4746,8.01c15.5214,0,23.7265-5.5312,23.7265-13.9219,0-8.01-7.0957-12.5859-25.0566-18.1172-24.835-7.4375-41.0225-19.2607-41.0225-37.95,0-21.9307,21.2871-38.7129,56.544-38.7129,16.8525,0,29.2695,3.0517,38.14,6.4843l-7.539,23.4561a80.6035,80.6035,0,0,0-31.2657-6.1016c-14.6347,0-21.73,5.7207-21.73,12.3955,0,8.2,8.4257,11.8233,27.7177,18.1162,26.3868,8.3917,38.8037,20.2149,38.8037,38.3321,0,21.55-19.291,39.8574-60.3134,39.8574-17.0733,0-33.9258-3.8145-42.3516-7.8193Z" fill="#407035"/><path d="M837.3732,584.63H782.382v30.5127h61.4219V638.98H748.4552V510.4451h92.2442V534.284H782.382v26.6982h54.9912Z" fill="#407035"/><path d="M866.8674,512.1619a344.515,344.515,0,0,1,45.0136-2.67c22.1739,0,37.6953,2.86,48.3389,10.1074,8.87,6.1026,13.748,15.0654,13.748,26.89,0,16.4-13.5254,27.6513-26.3867,31.6562v.5723c10.4219,3.623,16.1865,12.2051,19.9571,24.0293,4.6562,14.4931,9.3125,31.2754,12.1953,36.2334H945.1418c-2.4395-3.6231-5.9864-14.1123-10.4219-29.9405-3.9912-16.0195-10.4219-20.4052-24.17-20.5966H900.3508V638.98H866.8674Zm33.4834,55.3047h13.3037c16.8525,0,26.831-7.2471,26.831-18.499,0-11.8233-9.3135-17.7354-24.8349-17.9258a97.8853,97.8853,0,0,0-15.3.9531Z" fill="#407035"/><path d="M1032.2883,638.98,984.3927,510.4451h37.03l18.1826,54.3516c5.1006,15.2558,9.7569,29.94,13.3047,45.959h.6651c3.77-15.4463,8.4257-30.7032,13.5263-45.3877l19.0694-54.9229h35.9218L1071.758,638.98Z" fill="#407035"/><path d="M1171.9865,510.4451V638.98H1138.06V510.4451Z" fill="#407035"/><path d="M1311.0168,635.3572c-6.209,2.67-20.1787,5.53-38.3614,5.53-51.665,0-78.2744-27.6523-78.2744-64.2676,0-43.8623,36.3653-68.2724,81.6006-68.2724,17.5176,0,30.8223,3.0517,36.81,5.7216l-6.874,23.0752a83.3422,83.3422,0,0,0-28.3829-4.7675c-26.831,0-47.6748,13.9209-47.6748,42.5263,0,25.7451,17.7393,41.9551,47.8965,41.9551,10.2,0,21.5088-1.9062,28.1612-4.1953Z" fill="#407035"/><path d="M1422.1105,584.63h-54.9912v30.5127h61.4219V638.98h-95.3487V510.4451h92.2442V534.284h-58.3174v26.6982h54.9912Z" fill="#407035"/></g></g></svg>